<svg width="22" height="30" viewBox="0 0 22 30" fill="none" xmlns="http://www.w3.org/2000/svg">
<path d="M14.1977 -1.73804e-06L7.31695 -1.82009e-06C6.26644 0.00196655 5.41476 0.849598 5.41377 1.8939L5.41377 17.4306L1.7736 17.4306C0.79431 17.4306 1.40472e-07 18.2202 1.28852e-07 19.1947C1.23329e-07 19.6579 0.183987 20.1033 0.511405 20.4337L9.49611 29.4755C10.1846 30.1687 11.3073 30.1756 12.0047 29.4912C12.0096 29.4863 12.0155 29.4804 12.0205 29.4755L21.0032 20.4327C21.6917 19.7405 21.6848 18.6234 20.9884 17.939C20.656 17.6125 20.2079 17.4296 19.741 17.4296L16.1009 17.4296L16.1009 1.89292C16.0989 0.848618 15.2482 0.00196666 14.1977 -1.73804e-06ZM19.741 18.8063C19.9557 18.8063 20.1308 18.9784 20.1308 19.1918C20.1308 19.294 20.0902 19.3924 20.018 19.4651L11.0323 28.5069C10.878 28.6554 10.6327 28.6554 10.4784 28.5069L1.49663 19.4641C1.34528 19.3127 1.34726 19.0679 1.49959 18.9174C1.57279 18.8456 1.67072 18.8053 1.7736 18.8053L5.80549 18.8053C6.35151 18.8053 6.79466 18.3648 6.79664 17.822L6.79664 1.89292C6.79664 1.60775 7.03009 1.37568 7.31695 1.37568L14.1977 1.37568C14.4845 1.37568 14.718 1.60775 14.718 1.89292L14.718 17.821C14.72 18.3638 15.1611 18.8024 15.7072 18.8043L19.741 18.8063Z" fill="white"/>
</svg>
