<svg width="90" height="90" viewBox="0 0 90 90" fill="none" xmlns="http://www.w3.org/2000/svg">
<path d="M77.9354 57.8298H46.3397V52.4336C50.8014 52.2038 54.9701 50.8615 58.5701 48.6766C58.6812 48.6268 58.7846 48.5617 58.8784 48.4851C66.289 43.8492 71.2218 35.6189 71.2333 26.234C71.2333 11.746 59.4873 0 44.9993 0C30.5112 0 18.7652 11.746 18.7652 26.234C18.7652 35.6706 23.7497 43.943 31.2273 48.5655H31.2293C34.8752 50.8194 39.1129 52.2057 43.6569 52.4336V57.8298H12.0631C11.322 57.8298 10.7227 58.4291 10.7227 59.1702V67.2128C10.7227 67.9538 11.322 68.5532 12.0631 68.5532C12.8041 68.5532 13.4035 67.9538 13.4035 67.2128V60.5106H43.6588V67.2128C43.6588 67.9538 44.2582 68.5532 44.9993 68.5532C45.7403 68.5532 46.3397 67.9538 46.3397 67.2128V60.5106H76.595V67.2128C76.595 67.9538 77.1963 68.5532 77.9354 68.5532C78.6746 68.5532 79.2739 67.9519 79.2739 67.2128V59.1702C79.2739 58.4291 78.6727 57.8298 77.9335 57.8298H77.9354ZM33.3184 46.6909V37.867C33.3107 35.797 34.7412 33.997 36.7595 33.5355L42.0714 32.3004C42.9982 32.5838 43.9805 32.7351 44.9993 32.7351C46.0141 32.7351 46.9927 32.58 47.9137 32.3004L53.239 33.5375C55.2573 33.9989 56.6858 35.797 56.6782 37.8689V46.6889C53.2352 48.6594 49.2484 49.7853 44.9973 49.7853C40.7463 49.7853 36.7595 48.6594 33.3165 46.6889L33.3184 46.6909ZM44.9973 30.0581C44.1739 30.0581 43.3831 29.9202 42.6439 29.6713C42.5903 29.6483 42.5348 29.6311 42.4793 29.6158C39.6644 28.5875 37.6556 25.8875 37.6576 22.7183C37.6576 18.6645 40.9454 15.3785 44.9993 15.3785C49.0512 15.3843 52.3352 18.6683 52.339 22.7202C52.339 26.776 49.0512 30.0619 44.9973 30.0619V30.0581ZM21.4461 26.234C21.4461 13.2262 31.9914 2.68085 44.9993 2.68085C58.0014 2.69426 68.539 13.2319 68.5524 26.234C68.5524 33.8362 64.9505 40.5938 59.361 44.9004V37.8709C59.3724 34.5523 57.0822 31.6685 53.8461 30.9275L51.4544 30.3721C53.6316 28.5338 55.0161 25.7879 55.0199 22.7164C55.0199 17.1804 50.5314 12.6938 44.9973 12.6938C39.4633 12.6938 34.9767 17.1823 34.9767 22.7164C34.9767 25.7879 36.3593 28.5338 38.5346 30.3721L36.1524 30.9275C32.9163 31.6666 30.6261 34.5504 30.6376 37.8709V44.9023C25.048 40.5957 21.4461 33.8362 21.4461 26.234Z" fill="#00344C"/>
<path d="M48.4147 74.0777L43.5432 78.9472L41.5824 76.9864C41.5709 76.9749 41.5613 76.9634 41.5498 76.9538C41.0175 76.4387 40.1692 76.454 39.6541 76.9864C39.139 77.5187 39.1543 78.367 39.6866 78.8821L42.5973 81.7928C42.8481 82.0455 43.189 82.1853 43.5451 82.1853C43.8994 82.1853 44.2383 82.0455 44.4892 81.7947L50.3105 75.9734C50.8122 75.4545 50.8122 74.6311 50.3105 74.1102C49.7953 73.5779 48.947 73.5625 48.4147 74.0777Z" fill="#FCA311"/>
<path d="M44.9994 65.8723C38.3375 65.8723 32.9355 71.2742 32.9355 77.9361C32.9355 84.5981 38.3375 90 44.9994 90C51.6594 89.9923 57.0555 84.5961 57.0632 77.9361C57.0632 71.2742 51.6613 65.8723 44.9994 65.8723ZM44.9994 87.3191C39.8177 87.3191 35.6164 83.1178 35.6164 77.9361C35.6164 72.7544 39.8177 68.5532 44.9994 68.5532C50.1792 68.5589 54.3766 72.7564 54.3824 77.9361C54.3824 83.1178 50.1811 87.3191 44.9994 87.3191Z" fill="#FCA311"/>
<path d="M15.4772 74.0777L10.6057 78.9472L8.64486 76.9864C8.63337 76.9749 8.6238 76.9634 8.61231 76.9538C8.07997 76.4387 7.23167 76.454 6.71656 76.9864C6.20146 77.5187 6.21678 78.367 6.74912 78.8821L9.65976 81.7928C9.91061 82.0455 10.2515 82.1853 10.6076 82.1853C10.9619 82.1853 11.3008 82.0455 11.5517 81.7947L17.3729 75.9734C17.8747 75.4545 17.8747 74.6311 17.3729 74.1102C16.8578 73.5779 16.0095 73.5625 15.4772 74.0777Z" fill="#FCA311"/>
<path d="M12.0638 65.8723C5.40191 65.8723 0 71.2742 0 77.9361C0 84.5981 5.40191 90 12.0638 90C18.7238 89.9923 24.12 84.5961 24.1277 77.9361C24.1277 71.2742 18.7257 65.8723 12.0638 65.8723ZM12.0638 87.3191C6.88213 87.3191 2.68085 83.1178 2.68085 77.9361C2.68085 72.7544 6.88213 68.5532 12.0638 68.5532C17.2436 68.5589 21.4411 72.7564 21.4468 77.9361C21.4468 83.1178 17.2455 87.3191 12.0638 87.3191Z" fill="#FCA311"/>
<path d="M81.3509 74.0777L76.4794 78.9472L74.5186 76.9864C73.9996 76.4847 73.1762 76.4847 72.6554 76.9864C72.123 77.5015 72.1077 78.3498 72.6228 78.8821L75.5335 81.7928C75.7843 82.0455 76.1252 82.1853 76.4813 82.1853C76.8356 82.1853 77.1745 82.0436 77.4254 81.7947L83.2466 75.9734C83.7483 75.4545 83.7483 74.6311 83.2466 74.1102C82.7315 73.5779 81.8832 73.5625 81.3509 74.0777Z" fill="#FCA311"/>
<path d="M77.9369 65.8723C71.275 65.8723 65.873 71.2742 65.873 77.9361C65.873 84.5981 71.275 90 77.9369 90C84.5969 89.9923 89.993 84.5961 90.0007 77.9361C90.0007 71.2742 84.5988 65.8723 77.9369 65.8723ZM77.9369 87.3191C72.7552 87.3191 68.5539 83.1178 68.5539 77.9361C68.5539 72.7544 72.7552 68.5532 77.9369 68.5532C83.1167 68.5589 87.3141 72.7564 87.3199 77.9361C87.3199 83.1178 83.1186 87.3191 77.9369 87.3191Z" fill="#FCA311"/>
</svg>
