<svg width="35" height="30" viewBox="0 0 35 30" fill="none" xmlns="http://www.w3.org/2000/svg">
<path d="M32.4659 27.7884H10.658C10.591 27.7885 10.5248 27.7753 10.4629 27.7497C10.4011 27.7241 10.3449 27.6866 10.2976 27.6393C10.2503 27.5919 10.2127 27.5358 10.1871 27.4739C10.1616 27.4121 10.1484 27.3458 10.1484 27.2789V2.72242C10.1484 2.6555 10.1616 2.58922 10.1871 2.52739C10.2127 2.46555 10.2503 2.40937 10.2976 2.36204C10.3449 2.31472 10.4011 2.27719 10.4629 2.2516C10.5248 2.22601 10.591 2.21285 10.658 2.21289H32.4659C32.9318 2.21335 33.3785 2.39862 33.708 2.72804C34.0374 3.05746 34.2228 3.50413 34.2233 3.97004V26.0313C34.2228 26.4972 34.0374 26.9438 33.708 27.2733C33.3785 27.6027 32.9318 27.788 32.4659 27.7884ZM11.1687 26.7694H32.4659C32.6616 26.7691 32.8492 26.6913 32.9876 26.5529C33.1261 26.4146 33.204 26.227 33.2043 26.0313V3.97004C33.204 3.77433 33.1261 3.58673 32.9876 3.44837C32.8492 3.31001 32.6616 3.23218 32.4659 3.23195H11.1687V26.7694Z" fill="#00344C"/>
<path d="M29.3514 10.5779H15.0216C14.6889 10.5775 14.3699 10.445 14.1348 10.2095C13.8996 9.97405 13.7676 9.65491 13.7676 9.32216V6.12492C13.768 5.79243 13.9002 5.47365 14.1353 5.23851C14.3704 5.00338 14.6891 4.87107 15.0216 4.87061H29.3514C29.6839 4.87099 30.0028 5.00326 30.238 5.23839C30.4732 5.47353 30.6055 5.79235 30.606 6.12492V9.32216C30.6059 9.65498 30.4737 9.97417 30.2385 10.2096C30.0032 10.4451 29.6842 10.5775 29.3514 10.5779ZM15.0216 5.89025C14.9593 5.89033 14.8995 5.91515 14.8554 5.95926C14.8114 6.00337 14.7866 6.06316 14.7866 6.12551V9.32216C14.7866 9.38453 14.8114 9.44435 14.8554 9.48851C14.8995 9.53267 14.9592 9.55755 15.0216 9.5577H29.3514C29.4138 9.55763 29.4737 9.53279 29.5178 9.48863C29.562 9.44447 29.5868 9.3846 29.5869 9.32216V6.12492C29.5868 6.0625 29.562 6.00267 29.5178 5.95855C29.4736 5.91444 29.4138 5.88967 29.3514 5.88967L15.0216 5.89025Z" fill="white"/>
<path d="M17.1314 15.51H14.7916C14.5201 15.5097 14.2598 15.4016 14.0678 15.2096C13.8759 15.0176 13.7679 14.7573 13.7676 14.4857V13.1205C13.7679 12.849 13.8759 12.5887 14.0678 12.3966C14.2598 12.2046 14.5201 12.0966 14.7916 12.0962H17.1314C17.4029 12.0966 17.6632 12.2046 17.8551 12.3966C18.0471 12.5887 18.1551 12.849 18.1554 13.1205V14.4857C18.1551 14.7573 18.0471 15.0176 17.8551 15.2096C17.6632 15.4016 17.4029 15.5097 17.1314 15.51ZM14.7916 13.1153L14.7866 14.4857L17.1314 14.491C17.1327 14.4909 17.134 14.4903 17.1349 14.4894C17.1358 14.4884 17.1363 14.4871 17.1363 14.4857V13.1205L14.7916 13.1153Z" fill="#00344C"/>
<path d="M17.1314 20.2591H14.7916C14.5201 20.2587 14.2598 20.1506 14.0678 19.9586C13.8759 19.7666 13.7679 19.5063 13.7676 19.2348V17.8695C13.7679 17.598 13.8759 17.3377 14.0678 17.1457C14.2598 16.9537 14.5201 16.8456 14.7916 16.8452H17.1314C17.4029 16.8456 17.6632 16.9537 17.8551 17.1457C18.0471 17.3377 18.1551 17.598 18.1554 17.8695V19.2348C18.1551 19.5063 18.0471 19.7666 17.8551 19.9586C17.6632 20.1506 17.4029 20.2587 17.1314 20.2591ZM14.7916 17.8643L14.7866 19.2348L17.1314 19.24C17.1327 19.2399 17.134 19.2394 17.1349 19.2384C17.1358 19.2374 17.1363 19.2361 17.1363 19.2348V17.8695L14.7916 17.8643Z" fill="#00344C"/>
<path d="M17.1314 25.0081H14.7916C14.5201 25.0078 14.2598 24.8998 14.0678 24.7078C13.8759 24.5159 13.7679 24.2556 13.7676 23.9841V22.6185C13.7679 22.347 13.8759 22.0867 14.0678 21.8947C14.2598 21.7027 14.5201 21.5946 14.7916 21.5942H17.1314C17.4029 21.5946 17.6632 21.7027 17.8551 21.8947C18.0471 22.0867 18.1551 22.347 18.1554 22.6185V23.9841C18.1551 24.2556 18.0471 24.5159 17.8551 24.7078C17.6631 24.8998 17.4028 25.0078 17.1314 25.0081ZM14.7916 22.6133L14.7866 23.9841L17.1314 23.989C17.1326 23.989 17.1339 23.9884 17.1348 23.9875C17.1357 23.9866 17.1362 23.9854 17.1363 23.9841V22.6185L14.7916 22.6133Z" fill="#00344C"/>
<path d="M23.3557 15.51H21.0162C20.7447 15.5097 20.4844 15.4016 20.2924 15.2096C20.1005 15.0176 19.9925 14.7573 19.9922 14.4857V13.1205C19.9925 12.849 20.1005 12.5887 20.2924 12.3966C20.4844 12.2046 20.7447 12.0966 21.0162 12.0962H23.3557C23.6272 12.0965 23.8876 12.2045 24.0796 12.3965C24.2717 12.5886 24.3797 12.8489 24.38 13.1205V14.4857C24.3797 14.7573 24.2717 15.0177 24.0796 15.2097C23.8876 15.4017 23.6272 15.5097 23.3557 15.51ZM21.0162 13.1153L21.0112 14.4857L23.3557 14.491C23.3571 14.491 23.3584 14.4904 23.3594 14.4894C23.3604 14.4885 23.3609 14.4871 23.3609 14.4857V13.1205L21.0162 13.1153Z" fill="#00344C"/>
<path d="M23.3557 20.2591H21.0162C20.7447 20.2587 20.4844 20.1506 20.2924 19.9586C20.1005 19.7666 19.9925 19.5063 19.9922 19.2348V17.8695C19.9925 17.598 20.1005 17.3377 20.2924 17.1457C20.4844 16.9537 20.7447 16.8456 21.0162 16.8452H23.3557C23.6272 16.8455 23.8876 16.9535 24.0796 17.1456C24.2717 17.3376 24.3797 17.5979 24.38 17.8695V19.2348C24.3797 19.5063 24.2717 19.7667 24.0796 19.9587C23.8876 20.1507 23.6272 20.2588 23.3557 20.2591ZM21.0162 17.8643L21.0112 19.2348L23.3557 19.24C23.3571 19.24 23.3584 19.2395 23.3594 19.2385C23.3604 19.2375 23.3609 19.2362 23.3609 19.2348V17.8695L21.0162 17.8643Z" fill="#00344C"/>
<path d="M23.3557 25.0081H21.0162C20.7447 25.0078 20.4844 24.8998 20.2925 24.7078C20.1005 24.5159 19.9925 24.2556 19.9922 23.9841V22.6185C19.9925 22.347 20.1005 22.0867 20.2924 21.8947C20.4844 21.7027 20.7447 21.5946 21.0162 21.5942H23.3557C23.6272 21.5945 23.8876 21.7026 24.0796 21.8946C24.2717 22.0866 24.3797 22.347 24.38 22.6185V23.9841C24.3796 24.2556 24.2715 24.5159 24.0795 24.7078C23.8875 24.8998 23.6272 25.0078 23.3557 25.0081ZM21.0162 22.6133L21.0112 23.9841L23.3557 23.989C23.357 23.989 23.3583 23.9885 23.3593 23.9876C23.3603 23.9867 23.3608 23.9854 23.3609 23.9841V22.6185L21.0162 22.6133Z" fill="#00344C"/>
<path d="M29.5825 15.51H27.2431C26.9715 15.5097 26.7111 15.4017 26.5191 15.2097C26.3271 15.0177 26.2191 14.7573 26.2188 14.4857V13.1205C26.2191 12.8489 26.3271 12.5886 26.5191 12.3965C26.7111 12.2045 26.9715 12.0965 27.2431 12.0962H29.5825C29.8541 12.0965 30.1144 12.2045 30.3065 12.3965C30.4985 12.5886 30.6065 12.8489 30.6068 13.1205V14.4857C30.6065 14.7573 30.4985 15.0177 30.3065 15.2097C30.1144 15.4017 29.8541 15.5097 29.5825 15.51ZM27.2431 13.1153L27.2378 14.4857L29.5825 14.491C29.5839 14.491 29.5852 14.4904 29.5862 14.4894C29.5872 14.4885 29.5878 14.4871 29.5878 14.4857V13.1205L27.2431 13.1153Z" fill="#00344C"/>
<path d="M29.5825 20.2591H27.2431C26.9715 20.2588 26.7111 20.1507 26.5191 19.9587C26.3271 19.7667 26.2191 19.5063 26.2188 19.2348V17.8695C26.2191 17.5979 26.3271 17.3376 26.5191 17.1456C26.7111 16.9535 26.9715 16.8455 27.2431 16.8452H29.5825C29.8541 16.8455 30.1144 16.9535 30.3065 17.1456C30.4985 17.3376 30.6065 17.5979 30.6068 17.8695V19.2348C30.6065 19.5063 30.4985 19.7667 30.3065 19.9587C30.1144 20.1507 29.8541 20.2588 29.5825 20.2591ZM27.2431 17.8643L27.2378 19.2348L29.5825 19.24C29.5839 19.2399 29.5852 19.2394 29.5862 19.2384C29.5871 19.2374 29.5877 19.2361 29.5878 19.2348V17.8695L27.2431 17.8643Z" fill="#00344C"/>
<path d="M29.5825 25.0081H27.2431C26.9715 25.0078 26.7112 24.8998 26.5192 24.7078C26.3272 24.5159 26.2191 24.2556 26.2188 23.9841V22.6185C26.2191 22.347 26.3271 22.0866 26.5191 21.8946C26.7111 21.7026 26.9715 21.5945 27.2431 21.5942H29.5825C29.8541 21.5945 30.1144 21.7026 30.3065 21.8946C30.4985 22.0866 30.6065 22.347 30.6068 22.6185V23.9841C30.6064 24.2556 30.4984 24.5159 30.3064 24.7078C30.1144 24.8998 29.854 25.0078 29.5825 25.0081ZM27.2431 22.6133L27.2378 23.9841L29.5825 23.989C29.5838 23.989 29.5851 23.9884 29.5861 23.9875C29.587 23.9866 29.5876 23.9854 29.5878 23.9841V22.6185L27.2431 22.6133Z" fill="#00344C"/>
<path d="M8.05749 30H3.113C2.28826 29.9988 1.49762 29.6707 0.914434 29.0875C0.33125 28.5043 0.0031085 27.7137 0.00195312 26.889V3.11105C0.0031085 2.2863 0.33125 1.49567 0.914434 0.912481C1.49762 0.329296 2.28826 0.00115538 3.113 0H8.05749C8.88223 0.00115538 9.67287 0.329296 10.2561 0.912481C10.8392 1.49567 11.1674 2.2863 11.1685 3.11105V26.889C11.1674 27.7137 10.8392 28.5043 10.2561 29.0875C9.67287 29.6707 8.88223 29.9988 8.05749 30ZM3.113 1.01906C2.55836 1.01968 2.02661 1.24028 1.63442 1.63247C1.24223 2.02466 1.02163 2.55641 1.02101 3.11105V26.889C1.02163 27.4436 1.24223 27.9753 1.63442 28.3675C2.02661 28.7597 2.55836 28.9803 3.113 28.9809H8.05749C8.61215 28.9803 9.14393 28.7597 9.53617 28.3675C9.9284 27.9754 10.1491 27.4436 10.1498 26.889V3.11105C10.1491 2.55638 9.9284 2.02463 9.53617 1.63245C9.14393 1.24027 8.61215 1.01968 8.05749 1.01906H3.113Z" fill="white"/>
</svg>
