<svg width="26" height="32" viewBox="0 0 26 32" fill="none" xmlns="http://www.w3.org/2000/svg">
<path d="M12.502 31.0775C12.3769 31.0776 12.2552 31.0373 12.1549 30.9627C11.6585 30.5944 0.00195312 21.8318 0.00195312 12.5C0.00195319 9.18479 1.31891 6.00537 3.66312 3.66117C6.00732 1.31696 9.18675 0 12.502 0C15.8172 0 18.9966 1.31696 21.3408 3.66117C23.685 6.00537 25.002 9.18479 25.002 12.5C25.002 22.1113 13.3384 30.6107 12.842 30.968C12.7429 31.0392 12.624 31.0774 12.502 31.0775ZM12.502 1.16585C9.49685 1.1692 6.61578 2.36436 4.49073 4.48916C2.36568 6.61397 1.17018 9.4949 1.16648 12.5C1.16648 20.3888 10.5785 28.2377 12.5069 29.7626C14.4427 28.274 23.8374 20.6254 23.8374 12.5C23.8341 9.49467 22.6387 6.61339 20.5136 4.4883C18.3886 2.36321 15.5073 1.16787 12.502 1.16452V1.16585Z" fill="#00344C"/>
<path d="M5.49517 12.807C5.37461 12.8072 5.25697 12.7699 5.15849 12.7004C5.06001 12.6308 4.98554 12.5324 4.94538 12.4188C4.90521 12.3051 4.90132 12.1817 4.93424 12.0658C4.96716 11.9498 5.03528 11.8469 5.12918 11.7713L12.135 6.12731C12.2552 6.03024 12.4091 5.98493 12.5628 6.00134C12.7165 6.01775 12.8574 6.09454 12.9544 6.21482C13.0515 6.33509 13.0968 6.489 13.0804 6.64269C13.064 6.79637 12.9872 6.93724 12.8669 7.03431L5.86016 12.6783C5.75679 12.7616 5.62798 12.8071 5.49517 12.807Z" fill="white"/>
<path d="M19.5088 12.807C19.3757 12.8073 19.2465 12.7618 19.1428 12.6783L12.1347 7.03431C12.0752 6.98625 12.0257 6.92692 11.9891 6.85973C11.9524 6.79253 11.9294 6.71878 11.9213 6.64268C11.9131 6.56659 11.9201 6.48964 11.9417 6.41622C11.9633 6.34281 11.9992 6.27437 12.0472 6.21482C12.0953 6.15526 12.1546 6.10576 12.2218 6.06913C12.289 6.0325 12.3628 6.00947 12.4389 6.00134C12.515 5.99322 12.5919 6.00016 12.6653 6.02177C12.7387 6.04338 12.8072 6.07925 12.8667 6.12731L19.8772 11.7713C19.9711 11.8469 20.0392 11.9498 20.0721 12.0658C20.105 12.1817 20.1011 12.3051 20.061 12.4188C20.0208 12.5324 19.9463 12.6308 19.8479 12.7004C19.7494 12.7699 19.6317 12.8072 19.5112 12.807H19.5088Z" fill="white"/>
<path d="M16.9359 18.4512H8.06119C7.69423 18.4504 7.34255 18.3041 7.08323 18.0445C6.8239 17.7849 6.67809 17.433 6.67773 17.066V10.8029C6.67779 10.7159 6.6973 10.63 6.73483 10.5516C6.77237 10.4731 6.82698 10.404 6.89467 10.3494L12.1344 6.12717C12.238 6.04361 12.3672 5.99805 12.5004 5.99805C12.6335 5.99805 12.7627 6.04361 12.8663 6.12717L18.104 10.3494C18.1717 10.404 18.2263 10.4731 18.2639 10.5516C18.3014 10.63 18.3209 10.7159 18.321 10.8029V17.066C18.3206 17.4333 18.1746 17.7854 17.9149 18.0451C17.6552 18.3048 17.3031 18.4508 16.9359 18.4512ZM7.84226 11.0814V17.066C7.84235 17.1244 7.86558 17.1804 7.90687 17.2217C7.94816 17.263 8.00413 17.2862 8.06252 17.2863H16.9359C16.9943 17.2862 17.0503 17.263 17.0916 17.2217C17.133 17.1804 17.1563 17.1245 17.1565 17.066V11.0814L12.5004 7.32862L7.84226 11.0814Z" fill="white"/>
<path d="M14.1741 18.4544H10.8342C10.6798 18.4544 10.5317 18.3931 10.4225 18.2839C10.3133 18.1747 10.252 18.0266 10.252 17.8722V11.9368C10.252 11.7823 10.3133 11.6342 10.4225 11.525C10.5317 11.4158 10.6798 11.3545 10.8342 11.3545H14.1741C14.3285 11.3546 14.4765 11.416 14.5857 11.5251C14.6949 11.6343 14.7562 11.7824 14.7563 11.9368V17.8722C14.7562 18.0266 14.6949 18.1746 14.5857 18.2838C14.4765 18.393 14.3285 18.4543 14.1741 18.4544ZM11.4165 17.2899H13.5918V12.519H11.4165V17.2899Z" fill="white"/>
</svg>
