<svg width="33" height="30" viewBox="0 0 33 30" fill="none" xmlns="http://www.w3.org/2000/svg">
<path d="M32.225 28.8887C32.1132 28.8888 32.0041 28.855 31.9119 28.7917L19.5285 20.3195C19.4113 20.2346 19.3318 20.1072 19.307 19.9646C19.2823 19.822 19.3141 19.6753 19.3959 19.5558C19.4776 19.4363 19.6028 19.3535 19.7447 19.3249C19.8866 19.2963 20.0341 19.3243 20.1557 19.4028L32.5391 27.8751C32.6369 27.9422 32.7106 28.0388 32.7496 28.1508C32.7885 28.2628 32.7905 28.3843 32.7554 28.4976C32.7203 28.6109 32.6499 28.7099 32.5544 28.7803C32.459 28.8507 32.3435 28.8886 32.225 28.8887Z" fill="#00344C"/>
<path d="M0.558122 28.8889C0.439389 28.8891 0.323738 28.8511 0.228125 28.7807C0.132511 28.7103 0.0619662 28.6112 0.0268326 28.4978C-0.00830108 28.3843 -0.00617504 28.2626 0.032899 28.1505C0.0719731 28.0384 0.14594 27.9418 0.243954 27.8747L12.6273 19.4025C12.6874 19.359 12.7557 19.3279 12.828 19.3112C12.9002 19.2945 12.9752 19.2924 13.0483 19.3051C13.1214 19.3178 13.1912 19.345 13.2536 19.3851C13.3161 19.4252 13.3698 19.4775 13.4117 19.5387C13.4536 19.6 13.4828 19.669 13.4976 19.7417C13.5124 19.8144 13.5125 19.8893 13.4978 19.9621C13.4832 20.0348 13.4541 20.1039 13.4123 20.1652C13.3706 20.2266 13.3169 20.2789 13.2546 20.3192L0.871179 28.7914C0.779089 28.8548 0.669933 28.8888 0.558122 28.8889Z" fill="#00344C"/>
<path d="M6.11274 15.7438C6.00083 15.7438 5.89152 15.7101 5.79913 15.6469L0.243547 11.8469C0.169069 11.7959 0.108145 11.7275 0.0660491 11.6476C0.0239531 11.5677 0.00195312 11.4788 0.00195312 11.3885C0.00195312 11.2983 0.0239531 11.2093 0.0660491 11.1295C0.108145 11.0496 0.169069 10.9812 0.243547 10.9302L5.79913 7.13019C5.88256 7.07313 5.97997 7.03992 6.08087 7.03412C6.18177 7.02832 6.28234 7.05016 6.37176 7.09728C6.46117 7.1444 6.53604 7.21502 6.58829 7.30153C6.64054 7.38804 6.66821 7.48717 6.6683 7.58824V15.1883C6.6683 15.3356 6.60977 15.4769 6.50558 15.5811C6.40139 15.6853 6.26009 15.7438 6.11274 15.7438ZM1.54105 11.3883L5.55718 14.1352V8.6413L1.54105 11.3883Z" fill="#00344C"/>
<path d="M22.4811 5.27766H10.3033C10.1846 5.27758 10.0692 5.23955 9.97374 5.16912C9.8783 5.0987 9.80791 4.99958 9.77286 4.88627C9.73781 4.77296 9.73994 4.6514 9.77895 4.53939C9.81796 4.42738 9.89179 4.33079 9.98964 4.26376L16.0786 0.0970771C16.171 0.033838 16.2803 0 16.3923 0C16.5043 0 16.6137 0.033838 16.7061 0.0970771L22.795 4.26376C22.8929 4.33081 22.9667 4.42742 23.0057 4.53946C23.0447 4.65149 23.0468 4.77307 23.0117 4.8864C22.9766 4.99973 22.9062 5.09885 22.8107 5.16925C22.7152 5.23965 22.5997 5.27764 22.4811 5.27766ZM12.0988 4.16654H20.6855L16.3922 1.22847L12.0988 4.16654Z" fill="#00344C"/>
<path d="M26.6688 15.7444C26.5215 15.7444 26.3802 15.6859 26.276 15.5817C26.1718 15.4775 26.1133 15.3362 26.1133 15.1888V7.5888C26.1133 7.48768 26.1409 7.38848 26.1931 7.30189C26.2453 7.2153 26.3201 7.14459 26.4096 7.09741C26.499 7.05022 26.5996 7.02833 26.7006 7.03411C26.8015 7.03989 26.899 7.0731 26.9825 7.13019L32.538 10.9302C32.6125 10.9812 32.6734 11.0496 32.7155 11.1295C32.7576 11.2093 32.7796 11.2983 32.7796 11.3885C32.7796 11.4788 32.7576 11.5677 32.7155 11.6476C32.6734 11.7275 32.6125 11.7959 32.538 11.8469L26.9825 15.6469C26.8901 15.7103 26.7808 15.7442 26.6688 15.7444ZM27.2244 8.64186V14.1358L31.2403 11.3888L27.2244 8.64186Z" fill="#00344C"/>
<path d="M16.392 22.7782C16.28 22.7781 16.1707 22.7442 16.0784 22.681L5.80054 15.6479C5.72596 15.5969 5.66494 15.5284 5.62278 15.4485C5.58062 15.3686 5.55859 15.2796 5.55859 15.1893V5.83367C5.55903 5.39177 5.73477 4.9681 6.04724 4.65564C6.35971 4.34317 6.78337 4.16743 7.22527 4.16699H25.5587C26.0006 4.16743 26.4243 4.34317 26.7367 4.65564C27.0492 4.9681 27.2249 5.39177 27.2254 5.83367V15.1893C27.2254 15.2796 27.2034 15.3686 27.1613 15.4485C27.1192 15.5284 27.0582 15.5968 26.9837 15.6479L16.7059 22.681C16.6134 22.7443 16.504 22.7782 16.392 22.7782ZM6.66971 14.8962L16.392 21.5496L26.1142 14.8962V5.83367C26.1142 5.68632 26.0557 5.54502 25.9515 5.44083C25.8473 5.33664 25.706 5.27811 25.5587 5.27811H7.22527C7.07793 5.27811 6.93662 5.33664 6.83243 5.44083C6.72824 5.54502 6.66971 5.68632 6.66971 5.83367V14.8962Z" fill="white"/>
<path d="M11.3919 7.77762H8.61415C8.46681 7.77762 8.3255 7.71909 8.22131 7.6149C8.11713 7.51071 8.05859 7.36941 8.05859 7.22206C8.05859 7.07472 8.11713 6.93341 8.22131 6.82922C8.3255 6.72504 8.46681 6.6665 8.61415 6.6665H11.3919C11.5393 6.6665 11.6806 6.72504 11.7848 6.82922C11.889 6.93341 11.9475 7.07472 11.9475 7.22206C11.9475 7.36941 11.889 7.51071 11.7848 7.6149C11.6806 7.71909 11.5393 7.77762 11.3919 7.77762Z" fill="white"/>
<path d="M16.9475 10.2771H8.61415C8.46681 10.2771 8.3255 10.2186 8.22131 10.1144C8.11713 10.0102 8.05859 9.86892 8.05859 9.72157C8.05859 9.57423 8.11713 9.43292 8.22131 9.32873C8.3255 9.22455 8.46681 9.16602 8.61415 9.16602H16.9475C17.0949 9.16602 17.2362 9.22455 17.3404 9.32873C17.4446 9.43292 17.5031 9.57423 17.5031 9.72157C17.5031 9.86892 17.4446 10.0102 17.3404 10.1144C17.2362 10.2186 17.0949 10.2771 16.9475 10.2771Z" fill="white"/>
<path d="M11.3919 12.7781H8.61415C8.46681 12.7781 8.3255 12.7196 8.22131 12.6154C8.11713 12.5112 8.05859 12.3699 8.05859 12.2226C8.05859 12.0752 8.11713 11.9339 8.22131 11.8297C8.3255 11.7255 8.46681 11.667 8.61415 11.667H11.3919C11.5393 11.667 11.6806 11.7255 11.7848 11.8297C11.889 11.9339 11.9475 12.0752 11.9475 12.2226C11.9475 12.3699 11.889 12.5112 11.7848 12.6154C11.6806 12.7196 11.5393 12.7781 11.3919 12.7781Z" fill="white"/>
<path d="M31.1132 29.9998H1.66863C1.22673 29.9994 0.803065 29.8236 0.490598 29.5112C0.178132 29.1987 0.00239436 28.775 0.00195313 28.3331V11.3886C0.00194636 11.2875 0.0295366 11.1883 0.0817501 11.1017C0.133964 11.0151 0.20882 10.9444 0.298251 10.8972C0.387682 10.85 0.488295 10.8281 0.589247 10.8339C0.690198 10.8397 0.787659 10.8729 0.871124 10.93L16.3909 21.5489L31.9107 10.93C31.9942 10.8729 32.0916 10.8397 32.1926 10.8339C32.2935 10.8281 32.3942 10.85 32.4836 10.8972C32.573 10.9444 32.6479 11.0151 32.7001 11.1017C32.7523 11.1883 32.7799 11.2875 32.7799 11.3886V28.3331C32.7794 28.775 32.6037 29.1987 32.2912 29.5112C31.9788 29.8236 31.5551 29.9994 31.1132 29.9998ZM1.11307 12.4419V28.3331C1.11307 28.4805 1.1716 28.6218 1.27579 28.726C1.37998 28.8302 1.52128 28.8887 1.66863 28.8887H31.1132C31.2606 28.8887 31.4019 28.8302 31.5061 28.726C31.6102 28.6218 31.6688 28.4805 31.6688 28.3331V12.4419L16.7048 22.6803C16.6124 22.7436 16.503 22.7774 16.3911 22.7774C16.2791 22.7774 16.1697 22.7436 16.0773 22.6803L1.11307 12.4419Z" fill="#00344C"/>
</svg>
