<svg width="171" height="159" viewBox="0 0 171 159" fill="none" xmlns="http://www.w3.org/2000/svg">
<path d="M170.002 98.6956L71.414 158.236L0.00195312 117.631L98.5781 57.9375L170.002 98.6956Z" fill="#D8D8D8"/>
<path d="M135.419 36.97L118.529 46.7297V88.3745L135.419 78.6268V36.97Z" fill="#E1EBF0"/>
<path d="M118.578 46.6935L84.5098 66.3577V108.015L118.578 88.3383V46.6935Z" fill="#016A86"/>
<path d="M113.535 85.7084L113.547 91.2699L108.698 94.0687L108.686 88.5072L113.535 85.7084Z" fill="#E1EBF0"/>
<path d="M108.697 94.0686L100.204 89.1345L100.18 83.5609L108.685 88.5071L108.697 94.0686Z" fill="#C9DBE4"/>
<path d="M108.685 88.5072L100.18 83.561L105.029 80.7622L113.534 85.7084L108.685 88.5072Z" fill="white"/>
<path d="M93.6052 97.2173L93.6293 102.791L88.7797 105.578L88.7676 100.016L93.6052 97.2173Z" fill="#E1EBF0"/>
<path d="M88.7808 105.578L80.2757 100.643L80.2637 95.0699L88.7687 100.016L88.7808 105.578Z" fill="#C9DBE4"/>
<path d="M88.7687 100.016L80.2637 95.07L85.1013 92.2832L93.6064 97.2174L88.7687 100.016Z" fill="white"/>
<path d="M118.638 82.7889L77.0781 106.917V107.93L118.638 83.8023V82.7889Z" fill="#E1EBF0"/>
<path d="M69.7188 102.67L77.0778 106.917V107.93L69.7188 103.684V102.67Z" fill="#C9DBE4"/>
<path d="M118.638 82.8009L77.0778 106.917L69.7188 102.67L111.279 78.5303L118.638 82.8009Z" fill="white"/>
<path d="M109.459 71.3884L110.991 70.4957C111.51 70.1941 112.222 70.2424 113.006 70.7008L111.474 71.5935C110.69 71.1351 109.978 71.0989 109.459 71.4005" fill="#A2C1D0"/>
<path d="M114.995 77.4084L113.463 78.3011C113.97 77.9995 114.284 77.3722 114.296 76.4794C114.296 74.6819 113.041 72.4984 111.473 71.5936L113.005 70.7008C114.573 71.6056 115.828 73.7892 115.828 75.5867C115.828 76.4795 115.514 77.1189 114.995 77.4084Z" fill="#75A3B7"/>
<path d="M111.474 71.5936C113.042 72.4984 114.297 74.6819 114.297 76.4794C114.297 78.277 113.018 79.0129 111.462 78.1081C109.893 77.2033 108.639 75.0077 108.639 73.2101C108.639 71.4126 109.917 70.6888 111.474 71.5936Z" fill="#016A86"/>
<path d="M72.8691 93.4414L109.17 72.3416C109.58 72.1003 110.147 72.1365 110.762 72.4984L74.4616 93.5983C73.8342 93.2363 73.2793 93.2122 72.8691 93.4414Z" fill="#A2C1D0"/>
<path d="M74.461 93.5981C75.7157 94.3219 76.717 96.0591 76.717 97.4948C76.717 98.9183 75.7036 99.4974 74.449 98.7735C73.2064 98.0618 72.2051 96.3125 72.2051 94.8889C72.2051 93.4533 73.2184 92.8742 74.461 93.586" fill="#016A86"/>
<path d="M112.366 77.8305L76.0655 98.9304C76.4636 98.7012 76.7169 98.1945 76.7169 97.4948C76.7169 96.0592 75.7156 94.322 74.4609 93.5981L110.761 72.4983C112.016 73.2221 113.017 74.9593 113.017 76.3949C113.017 77.0946 112.764 77.6013 112.366 77.8305Z" fill="#75A3B7"/>
<path d="M99.3965 68.5052L100.362 67.9502L102.232 66.9006L101.266 67.4556L99.3965 68.5052Z" fill="#FAD6CB"/>
<path d="M112.352 75.9849L112.328 86.6132L113.293 86.0583L113.317 75.4299L112.352 75.9849Z" fill="#EE8473"/>
<path d="M110.506 72.7878L112.352 75.9848L112.328 86.6131L110.47 87.6868L101.217 82.3425L99.3711 79.1335L99.3952 68.5051L101.265 67.4556L110.506 72.7878Z" fill="#E20031"/>
<path d="M110.506 72.7878L111.471 72.2329L113.317 75.4299L112.352 75.9848L110.506 72.7878Z" fill="#F5B1A1"/>
<path d="M101.266 67.4556L102.231 66.8885L111.472 72.2329L110.507 72.7878L101.266 67.4556Z" fill="#FBDAD0"/>
<path d="M67.2715 96.6504L103.572 75.5506C103.982 75.3093 104.549 75.3455 105.164 75.7074L68.8639 96.8072C68.2366 96.4453 67.6817 96.4212 67.2715 96.6504Z" fill="#A2C1D0"/>
<path d="M68.8751 96.8072C70.1298 97.531 71.1311 99.2683 71.1311 100.704C71.1311 102.127 70.1177 102.706 68.8631 101.983C67.6205 101.271 66.6191 99.5216 66.6191 98.098C66.6191 96.6624 67.6325 96.0833 68.8751 96.7951" fill="#016A86"/>
<path d="M106.768 81.0398L70.4678 102.14C70.8659 101.91 71.1192 101.404 71.1192 100.704C71.1192 99.2684 70.1179 97.5312 68.8633 96.8074L105.164 75.7075C106.418 76.4314 107.42 78.1685 107.42 79.6042C107.42 80.3039 107.166 80.8106 106.768 81.0398Z" fill="#75A3B7"/>
<path d="M93.8359 78.5785L95.3319 77.71C96.0195 77.3119 96.9725 77.3601 98.0342 77.9753L96.5383 78.844C95.4766 78.2408 94.5236 78.1804 93.8359 78.5785Z" fill="#F5B1A1"/>
<path d="M100.699 86.9509L99.2032 87.8195C99.8788 87.4214 100.301 86.589 100.313 85.3826C100.313 82.9819 98.6242 80.0503 96.5371 78.8439L98.033 77.9753C100.12 79.1817 101.821 82.1133 101.809 84.514C101.809 85.7084 101.387 86.5528 100.699 86.9509Z" fill="#EE8473"/>
<path d="M96.5385 78.844C98.6255 80.0504 100.327 82.9819 100.315 85.3826C100.315 87.7954 98.6014 88.7605 96.5143 87.5541C94.4152 86.3357 92.7263 83.4162 92.7383 81.0155C92.7383 78.6148 94.4394 77.6376 96.5385 78.844Z" fill="#E20031"/>
<path d="M58.0527 101.91L94.3532 80.8105C94.7633 80.5692 95.3304 80.6054 95.9456 80.9673L59.6451 102.067C59.0178 101.705 58.4629 101.681 58.0527 101.91Z" fill="#A2C1D0"/>
<path d="M59.6583 102.067C60.9129 102.791 61.9143 104.528 61.9143 105.964C61.9143 107.387 60.9009 107.966 59.6462 107.243C58.4036 106.531 57.4023 104.782 57.4023 103.358C57.4023 101.922 58.4157 101.343 59.6583 102.055" fill="#016A86"/>
<path d="M97.5514 86.3115L61.251 107.411C61.6491 107.182 61.9025 106.675 61.9025 105.976C61.9025 104.54 60.9011 102.803 59.6465 102.079L95.947 80.9792C97.2016 81.7031 98.2029 83.4403 98.2029 84.8759C98.2029 85.5756 97.9496 86.0823 97.5514 86.3115Z" fill="#75A3B7"/>
<path d="M77.6797 80.9792L78.6448 80.4122L80.5147 79.3627L79.5496 79.9176L77.6797 80.9792Z" fill="#FAD6CB"/>
<path d="M90.6374 88.4589L90.6133 99.0752L91.5784 98.5202L91.6025 87.8918L90.6374 88.4589Z" fill="#EE8473"/>
<path d="M88.7913 85.2619L90.637 88.4589L90.6129 99.0752L88.7551 100.149L79.502 94.8045L77.6562 91.5955L77.6804 80.9792L79.5503 79.9176L88.7913 85.2619Z" fill="#E20031"/>
<path d="M88.793 85.262L89.7581 84.6949L91.6039 87.8919L90.6388 88.4589L88.793 85.262Z" fill="#F5B1A1"/>
<path d="M79.5508 79.9176L80.5159 79.3627L89.7569 84.6949L88.7918 85.2619L79.5508 79.9176Z" fill="#FBDAD0"/>
<path d="M45.459 109.221L81.7594 88.121C82.1696 87.8797 82.7366 87.9159 83.3519 88.2778L47.0514 109.378C46.4241 109.016 45.8692 108.992 45.459 109.221Z" fill="#A2C1D0"/>
<path d="M47.0509 109.366C48.3055 110.09 49.3069 111.827 49.3069 113.262C49.3069 114.686 48.2935 115.265 47.0388 114.541C45.7962 113.829 44.7949 112.08 44.7949 110.657C44.7949 109.221 45.8083 108.642 47.0509 109.354" fill="#016A86"/>
<path d="M84.944 93.6101L48.6436 114.71C49.0417 114.481 49.295 113.974 49.295 113.274C49.295 111.839 48.2937 110.102 47.0391 109.378L83.3395 88.2778C84.5941 89.0017 85.5954 90.7389 85.5954 92.1745C85.5954 92.8742 85.3421 93.3809 84.944 93.6101Z" fill="#75A3B7"/>
<path d="M93.6052 81.1724L93.6293 86.7338L88.7797 89.5327L88.7676 83.9591L93.6052 81.1724Z" fill="#E1EBF0"/>
<path d="M88.7808 89.5326L80.2757 84.5864L80.2637 79.0249L88.7687 83.9591L88.7808 89.5326Z" fill="#C9DBE4"/>
<path d="M88.7687 83.9591L80.2637 79.0249L85.1013 76.2261L93.6064 81.1723L88.7687 83.9591Z" fill="white"/>
<path d="M108.119 78.5182C108.18 78.2769 108.143 78.0356 108.059 77.8305C106.31 77.1067 99.7469 74.4406 98.1062 74.151C93.8839 73.4031 83.8949 80.5811 83.4727 80.8948L84.1845 81.872C86.9471 79.8693 94.8128 74.7904 97.9012 75.3454C99.3006 75.5866 105.357 78.0236 107.83 79.049C107.962 78.9042 108.071 78.7353 108.131 78.5303" fill="#009EE0"/>
<path d="M113.717 69.9045L113.729 75.4781L108.891 78.2769L108.867 72.7034L113.717 69.9045Z" fill="#E1EBF0"/>
<path d="M108.89 78.2769L100.385 73.3307L100.373 67.7692L108.866 72.7033L108.89 78.2769Z" fill="#C9DBE4"/>
<path d="M108.866 72.7035L100.373 67.7573L105.211 64.9705L113.716 69.9046L108.866 72.7035Z" fill="white"/>
<path d="M118.638 66.7075L77.0781 90.8354V91.8488L118.638 67.7209V66.7075Z" fill="#E1EBF0"/>
<path d="M69.7188 86.5891L77.0778 90.8356V91.849L69.7188 87.6025V86.5891Z" fill="#C9DBE4"/>
<path d="M118.638 66.7075L77.0778 90.8355L69.7188 86.589L111.279 62.449L118.638 66.7075Z" fill="white"/>
<path d="M109.459 55.3073L110.991 54.4145C111.51 54.1129 112.222 54.1612 113.006 54.6196L111.474 55.5124C110.69 55.0539 109.978 55.0177 109.459 55.3193" fill="#A2C1D0"/>
<path d="M114.995 61.315L113.463 62.2077C113.97 61.9061 114.284 61.2788 114.296 60.3861C114.296 58.5885 113.041 56.405 111.473 55.5002L113.005 54.6074C114.573 55.5122 115.828 57.6958 115.828 59.4933C115.828 60.3861 115.514 61.0254 114.995 61.315Z" fill="#75A3B7"/>
<path d="M111.474 55.5002C113.042 56.405 114.297 58.5885 114.297 60.3861C114.297 62.1836 113.018 62.9195 111.462 62.0147C109.893 61.1099 108.639 58.9143 108.639 57.1167C108.639 55.3192 109.917 54.5954 111.474 55.5002Z" fill="#016A86"/>
<path d="M72.8691 77.36L109.17 56.2602C109.58 56.0189 110.147 56.0551 110.762 56.417L74.4616 77.5169C73.8342 77.155 73.2793 77.1188 72.8691 77.36Z" fill="#A2C1D0"/>
<path d="M74.461 77.5049C75.7157 78.2288 76.717 79.966 76.717 81.4016C76.717 82.8252 75.7036 83.4042 74.449 82.6804C73.2064 81.9686 72.2051 80.2193 72.2051 78.7958C72.2051 77.3602 73.2184 76.7811 74.461 77.4929" fill="#016A86"/>
<path d="M112.366 61.7493L76.0655 82.8491C76.4636 82.6199 76.7169 82.1132 76.7169 81.4135C76.7169 79.9779 75.7156 78.2407 74.4609 77.5169L110.761 56.417C112.016 57.1408 113.017 58.8781 113.017 60.3137C113.017 61.0134 112.764 61.5201 112.366 61.7493Z" fill="#75A3B7"/>
<path d="M99.3965 52.4239L100.362 51.8569L102.232 50.8074L101.266 51.3744L99.3965 52.4239Z" fill="#FAD6CB"/>
<path d="M112.354 59.9036L113.319 59.3486L113.295 69.9649L112.33 70.5319L112.354 59.9036Z" fill="#EE8473"/>
<path d="M110.508 56.7066L112.354 59.9035L112.33 70.5318L110.472 71.5935L101.219 66.2612L99.373 63.0522L99.3972 52.4238L101.267 51.3743L110.508 56.7066Z" fill="#E20031"/>
<path d="M110.508 56.7067L111.473 56.1517L113.319 59.3487L112.354 59.9036L110.508 56.7067Z" fill="#F5B1A1"/>
<path d="M101.268 51.3744L102.233 50.8074L111.474 56.1517L110.509 56.7067L101.268 51.3744Z" fill="#FBDAD0"/>
<path d="M67.2715 80.557L103.572 59.4572C103.982 59.2159 104.549 59.2521 105.164 59.614L68.8639 80.7139C68.2366 80.3519 67.6817 80.3157 67.2715 80.557Z" fill="#A2C1D0"/>
<path d="M68.8751 80.7139C70.1298 81.4378 71.1311 83.175 71.1311 84.6106C71.1311 86.0341 70.1177 86.6132 68.8631 85.8894C67.6205 85.1776 66.6191 83.4283 66.6191 82.0048C66.6191 80.5692 67.6325 79.9901 68.8751 80.7019" fill="#016A86"/>
<path d="M106.768 64.9583L70.4678 86.0581C70.8659 85.8289 71.1192 85.3222 71.1192 84.6225C71.1192 83.1869 70.1179 81.4497 68.8633 80.7259L105.164 59.626C106.418 60.3498 107.42 62.087 107.42 63.5226C107.42 64.2224 107.166 64.729 106.768 64.9583Z" fill="#75A3B7"/>
<path d="M93.8359 62.4974L95.3319 61.6288C96.0195 61.2307 96.9725 61.2789 98.0342 61.8942L96.5383 62.7628C95.4766 62.1596 94.5236 62.0993 93.8359 62.4974Z" fill="#F5B1A1"/>
<path d="M100.699 70.8696L99.2032 71.7382C99.8788 71.3401 100.301 70.5077 100.313 69.3013C100.313 66.9006 98.6242 63.969 96.5371 62.7626L98.033 61.894C100.12 63.1004 101.821 66.032 101.809 68.4327C101.809 69.6271 101.387 70.4715 100.699 70.8696Z" fill="#EE8473"/>
<path d="M96.5385 62.7628C98.6255 63.9692 100.327 66.9008 100.315 69.3015C100.315 71.7143 98.6014 72.6794 96.5143 71.473C94.4152 70.2545 92.7263 67.335 92.7383 64.9343C92.7383 62.5336 94.4394 61.5564 96.5385 62.7628Z" fill="#E20031"/>
<path d="M58.0547 85.8289L94.3551 64.729C94.7653 64.4878 95.3323 64.524 95.9476 64.8859L59.6471 85.9857C59.0198 85.6238 58.4649 85.5997 58.0547 85.8289Z" fill="#A2C1D0"/>
<path d="M59.6583 85.9858C60.9129 86.7096 61.9143 88.4468 61.9143 89.8825C61.9143 91.306 60.9009 91.8851 59.6462 91.1612C58.4036 90.4495 57.4023 88.7002 57.4023 87.2766C57.4023 85.841 58.4157 85.2619 59.6583 85.9737" fill="#016A86"/>
<path d="M97.5514 70.2182L61.251 91.3181C61.6491 91.0889 61.9025 90.5822 61.9025 89.8825C61.9025 88.4469 60.9011 86.7097 59.6465 85.9858L95.947 64.886C97.2016 65.6098 98.2029 67.347 98.2029 68.7826C98.2029 69.4823 97.9496 69.989 97.5514 70.2182Z" fill="#75A3B7"/>
<path d="M77.6816 64.886L78.6467 64.3311L80.5167 63.2815L79.5515 63.8365L77.6816 64.886Z" fill="#FAD6CB"/>
<path d="M90.6374 72.3656L91.6025 71.8107L91.5784 82.439L90.6133 82.9939L90.6374 72.3656Z" fill="#EE8473"/>
<path d="M88.7932 69.1687L90.639 72.3656L90.6149 82.994L88.757 84.0677L79.504 78.7233L77.6582 75.5143L77.6823 64.886L79.5522 63.8364L88.7932 69.1687Z" fill="#E20031"/>
<path d="M88.793 69.1687L89.7581 68.6138L91.6039 71.8107L90.6388 72.3656L88.793 69.1687Z" fill="#F5B1A1"/>
<path d="M79.5508 63.8363L80.5159 63.2693L89.7569 68.6136L88.7918 69.1685L79.5508 63.8363Z" fill="#FBDAD0"/>
<path d="M108.468 62.3163C108.504 62.1715 108.504 62.0267 108.492 61.882C107.286 61.3874 100.011 58.3955 98.2742 58.0939C94.0518 57.3459 84.0629 64.524 83.6406 64.8377L84.3524 65.8148C87.115 63.8122 94.9807 58.7333 98.0691 59.2882C99.4685 59.5295 105.561 61.9785 108.01 62.9919C108.227 62.835 108.408 62.6058 108.468 62.3163Z" fill="#009EE0"/>
<path d="M45.459 93.1277L81.7594 72.0279C82.1696 71.7866 82.7366 71.8228 83.3519 72.1847L47.0514 93.2845C46.4241 92.9226 45.8692 92.8985 45.459 93.1277Z" fill="#A2C1D0"/>
<path d="M47.0509 93.2845C48.3055 94.0083 49.3069 95.7455 49.3069 97.1811C49.3069 98.6047 48.2935 99.1837 47.0388 98.4599C45.7962 97.7481 44.7949 95.9989 44.7949 94.5753C44.7949 93.1397 45.8083 92.5606 47.0509 93.2724" fill="#016A86"/>
<path d="M84.944 77.529L48.6436 98.6289C49.0417 98.3997 49.295 97.893 49.295 97.1933C49.295 95.7577 48.2937 94.0205 47.0391 93.2966L83.3395 72.1968C84.5941 72.9206 85.5954 74.6578 85.5954 76.0934C85.5954 76.7931 85.3421 77.2998 84.944 77.529Z" fill="#75A3B7"/>
<path d="M0.146484 75.8522L34.2151 95.5164V137.161L0.146484 117.497V75.8522Z" fill="#C9DBE4"/>
<path d="M84.51 66.3215L118.494 46.7055L118.53 46.7296L135.384 36.994L101.279 17.3057L84.5944 26.9689L84.51 26.9206L16.3607 66.3336L16.3969 66.3577L0.00195312 75.852L34.0826 95.5163L50.936 85.7806L50.8757 85.7445L84.51 66.3336" fill="#F2F5F7"/>
<path d="M58.0301 1.9121L57.9336 53.4855C57.9336 53.9681 57.6079 54.4627 56.9685 54.8367C55.6777 55.5846 53.5906 55.5846 52.2877 54.8367C51.6363 54.4627 51.3105 53.968 51.3105 53.4734L51.407 1.90002C51.407 1.90002 51.7328 2.88927 52.3721 3.26326C53.6751 4.01122 55.7742 4.01122 57.053 3.26326C57.6924 2.88927 58.0181 1.9121 58.0181 1.9121" fill="#E1EBF0"/>
<path d="M57.0529 0.548898C58.3558 1.29686 58.3558 2.51532 57.065 3.26329C55.7741 4.01125 53.6871 4.01125 52.3841 3.26329C51.0933 2.51532 51.0933 1.29687 52.3841 0.560974C53.675 -0.186991 55.7621 -0.186991 57.065 0.560974" fill="#F2F5F7"/>
<path d="M93.9087 19.9839L85.4277 24.8818V48.9977L93.9087 44.0997V19.9839Z" fill="#E1EBF0"/>
<path d="M76.9453 33.7247L85.4263 38.6227V48.9977L76.9453 44.0997V33.7247Z" fill="#C9DBE4"/>
<path d="M73.086 37.718L73.0619 47.8155L64.2793 42.7486L64.3034 32.6511L73.086 37.718Z" fill="#C9DBE4"/>
<path d="M73.0847 37.7179L105.392 18.9585L105.356 29.0439L73.0605 47.8155L73.0847 37.7179Z" fill="#E1EBF0"/>
<path d="M64.3027 32.6511L96.5979 13.8796L105.38 18.9586L73.0853 37.718L64.3027 32.6511Z" fill="#F2F5F7"/>
<path d="M84.5094 66.3336L34.082 95.5163V137.161L84.5094 107.978V66.3336Z" fill="#E1EBF0"/>
<path d="M72.6745 105.433V78.7112L61.8652 84.9483V111.67L72.6745 105.433Z" fill="white"/>
<path d="M71.6265 82.7285L62.9043 87.7713V88.9535L71.6265 83.9229V82.7285Z" fill="#003652"/>
<path d="M71.6265 84.5984L62.9043 89.6411V90.8234L71.6265 85.7927V84.5984Z" fill="#003652"/>
<path d="M71.6265 86.4683L62.9043 91.511V92.6933L71.6265 87.6626V86.4683Z" fill="#003652"/>
<path d="M71.6265 88.3384L62.9043 93.369V94.5633L71.6265 89.5206V88.3384Z" fill="#003652"/>
<path d="M71.6265 90.2083L62.9043 95.2389V96.4333L71.6265 91.3905V90.2083Z" fill="#003652"/>
<path d="M71.6265 92.0781L62.9043 97.1088V98.3031L71.6265 93.2604V92.0781Z" fill="#003652"/>
<path d="M71.6265 93.948L62.9043 98.9786V100.173L71.6265 95.1302V93.948Z" fill="#003652"/>
<path d="M71.6265 95.818L62.9043 100.849V102.043L71.6265 97.0003V95.818Z" fill="#003652"/>
<path d="M71.6265 97.6879L62.9043 102.719V103.913L71.6265 98.8701V97.6879Z" fill="#003652"/>
<path d="M71.6265 99.5579L62.9043 104.589V105.783L71.6265 100.74V99.5579Z" fill="#003652"/>
<path d="M71.6265 101.428L62.9043 106.458V107.653L71.6265 102.61V101.428Z" fill="#003652"/>
<path d="M41.7914 109.909L41.6467 110.053L41.5984 110.234L41.6105 111.055L40.5247 111.682L40.5127 110.862L40.4644 110.729L40.3196 110.753L40.1869 110.898L40.1387 111.079L40.1507 113.106L40.199 113.238L40.3317 113.226L40.4765 113.081L40.5247 112.888V112.032L41.6105 111.405V112.261L41.6587 112.394L41.7914 112.382L41.9362 112.237L41.9845 112.044V110.017L41.9241 109.885L41.7914 109.909Z" fill="#214B98"/>
<path d="M43.8774 108.702L43.7568 108.847L43.1415 110.078L42.5262 109.559H42.4056L42.2729 109.691L42.2246 109.86L42.2729 109.957L42.9485 110.524V111.477L43.0088 111.622L43.1415 111.598L43.2862 111.453L43.3345 111.26V110.307L44.0101 108.956L44.0584 108.799L43.998 108.69L43.8774 108.702Z" fill="#214B98"/>
<path d="M44.6989 110.319V108.606L45.0608 108.389C45.5434 108.111 45.7847 108.256 45.7847 108.823C45.7847 109.39 45.5434 109.824 45.0608 110.102L44.6868 110.319H44.6989ZM45.085 108.015L44.4818 108.364L44.349 108.497L44.3008 108.678V110.693L44.3611 110.813L44.4938 110.789L45.097 110.439C45.4469 110.234 45.7123 109.981 45.9053 109.655C46.0983 109.33 46.1948 108.968 46.1948 108.594C46.1948 108.208 46.0983 107.966 45.9053 107.87C45.7123 107.773 45.4469 107.81 45.097 108.015" fill="#214B98"/>
<path d="M46.9423 108.063V107.303L47.449 107.013C47.5938 106.929 47.7024 106.893 47.7627 106.917C47.823 106.941 47.8713 107.013 47.8713 107.158C47.8713 107.291 47.8351 107.411 47.7748 107.508C47.7144 107.616 47.5938 107.701 47.4611 107.785L46.9544 108.075L46.9423 108.063ZM47.4973 106.627L46.7493 107.062L46.6166 107.194L46.5684 107.375V109.39L46.6287 109.535L46.7735 109.51L46.9182 109.366L46.9665 109.161V108.389L47.256 108.22L47.4249 108.171L47.5576 108.244L47.9557 108.714L48.0281 108.75L48.1125 108.726L48.2453 108.594L48.2935 108.437L48.2573 108.328L47.9799 108.015L47.8592 107.918H47.7024C47.8713 107.785 48.004 107.628 48.1005 107.46C48.185 107.291 48.2332 107.11 48.2332 106.929C48.2332 106.688 48.1729 106.543 48.0522 106.507C47.9316 106.458 47.7386 106.507 47.5093 106.639" fill="#214B98"/>
<path d="M49.5856 107.532C49.3926 107.653 49.2358 107.653 49.1272 107.568C49.0186 107.484 48.9583 107.291 48.9583 107.001C48.9583 106.712 49.0066 106.458 49.1152 106.241C49.2237 106.024 49.3685 105.867 49.5736 105.747C49.7666 105.638 49.9234 105.626 50.02 105.71C50.1285 105.795 50.1888 105.988 50.1888 106.277C50.1888 106.567 50.1406 106.82 50.032 107.037C49.9355 107.255 49.7787 107.411 49.5856 107.532ZM49.5856 105.397C49.3805 105.517 49.1996 105.674 49.0428 105.867C48.898 106.048 48.7774 106.265 48.6929 106.495C48.6085 106.724 48.5723 106.977 48.5723 107.23C48.5723 107.484 48.6205 107.677 48.705 107.822C48.7894 107.966 48.91 108.039 49.0548 108.051C49.2116 108.063 49.3926 108.015 49.5977 107.894C49.8028 107.785 49.9717 107.629 50.1285 107.435C50.2733 107.255 50.3939 107.037 50.4784 106.808C50.5628 106.579 50.599 106.326 50.599 106.072C50.599 105.819 50.5508 105.626 50.4663 105.481C50.3819 105.336 50.2733 105.264 50.1165 105.252C49.9717 105.24 49.7907 105.288 49.5856 105.409" fill="#214B98"/>
<path d="M51.9376 104.033C51.7325 104.154 51.5394 104.311 51.3947 104.504C51.2378 104.697 51.1172 104.914 51.0328 105.143C50.9483 105.385 50.9121 105.626 50.9121 105.879C50.9121 106.145 50.9483 106.338 51.0448 106.482C51.1293 106.627 51.2499 106.7 51.4188 106.7C51.5756 106.712 51.7687 106.651 51.9858 106.531C52.0944 106.47 52.1909 106.41 52.2995 106.326C52.408 106.253 52.5046 106.169 52.5769 106.096C52.6493 106.024 52.6976 105.952 52.7217 105.903C52.7579 105.843 52.7579 105.759 52.7579 105.662V104.926L52.7217 104.818L52.6011 104.842L52.0702 105.143L51.9496 105.252L51.9134 105.385L51.9496 105.481L52.0702 105.457L52.408 105.264V105.879C52.2753 106 52.1306 106.108 51.9979 106.181C51.5515 106.446 51.3102 106.265 51.3102 105.674C51.3102 105.385 51.3585 105.131 51.467 104.914C51.5756 104.709 51.7445 104.528 51.9617 104.407C52.0582 104.347 52.1426 104.323 52.2271 104.299C52.2995 104.299 52.3839 104.287 52.4684 104.311H52.5287L52.589 104.287L52.6734 104.19L52.7096 104.046L52.6855 103.961L52.6372 103.913C52.4563 103.84 52.2271 103.889 51.9376 104.046" fill="#214B98"/>
<path d="M54.4347 102.622L53.3489 103.249L53.2162 103.382L53.168 103.563L53.18 105.578L53.2283 105.698L53.361 105.674L54.4467 105.047L54.5795 104.926L54.6277 104.781L54.5795 104.673L54.4467 104.697L53.554 105.216V104.504L54.3864 104.021L54.5191 103.901L54.5674 103.756L54.5191 103.647L54.3864 103.672L53.554 104.154L53.5419 103.491L54.4467 102.984L54.5795 102.851L54.6157 102.694L54.5674 102.586L54.4347 102.622Z" fill="#214B98"/>
<path d="M56.5342 101.391L56.4015 101.524L56.3532 101.717V103.201L55.2675 102.2L55.1227 102.212L54.99 102.344L54.9297 102.538L54.9417 104.564L54.99 104.697L55.1227 104.685L55.2554 104.54L55.3037 104.347V102.863L56.4015 103.865H56.5463L56.6789 103.72L56.7272 103.527V101.512L56.6669 101.379L56.5342 101.391Z" fill="#214B98"/>
<path d="M42.3464 107.194L41.5139 107.677L41.2485 108.799L41.2365 108.811L40.959 108.003L40.1387 108.473V110.126L40.6936 109.8V108.75L41.0193 109.607L41.4657 109.354L41.7914 108.111H41.8035V109.161L42.3584 108.847L42.3464 107.194Z" fill="#DB0031"/>
<path d="M43.2028 107.761L43.3838 107.146L43.5647 107.556L43.2028 107.761ZM43.6733 106.422L43.0942 106.76L42.3945 108.811L42.9857 108.473L43.0701 108.183L43.6733 107.834L43.7578 108.027L44.373 107.677L44.2403 107.749L44.3248 107.592L43.6733 106.434" fill="#DB0031"/>
<path d="M46.2067 104.962L45.5552 105.348L45.2778 105.952L44.9882 105.674L44.3005 106.072L44.9279 106.482L44.3247 107.592L44.2402 107.749L44.373 107.677L44.9158 107.363L45.2536 106.675L45.5794 106.977L46.279 106.579L45.5914 106.096L46.2067 104.962Z" fill="#DB0031"/>
<path d="M46.8939 104.576L46.3027 104.914V106.555L46.8939 106.217V104.576Z" fill="#DB0031"/>
<path d="M49.3428 103.153L48.5104 103.635L48.2329 104.769L47.9554 103.961L47.123 104.444V106.084L47.678 105.771V104.709L48.0158 105.578L48.4501 105.324L48.7758 104.082L48.7878 104.07V105.131L49.3428 104.806V103.153Z" fill="#DB0031"/>
<path d="M50.2005 103.72L50.3815 103.105L50.5504 103.515L50.1884 103.72H50.2005ZM50.671 102.381L50.104 102.706L49.4043 104.757L49.9954 104.42L50.0799 104.13L50.6831 103.78L50.7675 103.973L51.3707 103.623L50.671 102.381Z" fill="#DB0031"/>
<path d="M52.7699 101.174L51.1172 102.139V102.562L51.648 102.248V103.479L52.2391 103.129V101.91L52.7699 101.609V101.174Z" fill="#DB0031"/>
<path d="M53.7717 101.874C53.627 101.959 53.3978 102.007 53.3978 101.645C53.3978 101.283 53.627 101.066 53.7717 100.981C53.9165 100.897 54.1457 100.849 54.1457 101.211C54.1457 101.573 53.9165 101.79 53.7717 101.874ZM53.7717 100.559C53.1927 100.897 52.8066 101.488 52.8066 101.983C52.8066 102.489 53.2047 102.61 53.7717 102.284C54.3508 101.947 54.7369 101.367 54.7369 100.873C54.7369 100.366 54.3387 100.233 53.7717 100.559Z" fill="#DB0031"/>
<path d="M55.5091 100.318V99.98L55.7866 99.8231C56.0037 99.6904 56.0761 99.7145 56.0761 99.8231C56.0761 99.98 55.9313 100.076 55.8228 100.137L55.5212 100.318H55.5091ZM56.0399 99.2923L54.918 99.9438V101.597L55.5091 101.259V100.68L55.8228 100.499C56.052 100.366 56.0761 100.523 56.0882 100.668C56.0882 100.752 56.1002 100.824 56.1364 100.897L56.7276 100.559L56.6552 100.245C56.6311 100.052 56.5345 99.9558 56.3777 100.004C56.5707 99.8352 56.6672 99.5939 56.6672 99.425C56.6672 99.1234 56.3777 99.1234 56.0399 99.3164" fill="#DB0031"/>
<path d="M56.9557 98.9907V98.9183L56.9919 98.8942H57.0401L56.9919 98.9545L56.9436 98.9786L56.9557 98.9907ZM57.0039 98.858L56.9195 98.9062V99.1837L56.9677 99.1596V99.0389H56.9919L57.0522 99.1113L57.1004 99.0872L57.0401 99.0027L57.1004 98.8942L57.016 98.87M57.016 99.2078C56.9315 99.2561 56.8591 99.2078 56.8591 99.1113C56.8591 99.0148 56.9315 98.8821 57.016 98.8338C57.1004 98.7856 57.1728 98.8218 57.1728 98.9304C57.1728 99.0389 57.1125 99.1596 57.016 99.2199M57.016 98.7856C56.8953 98.8579 56.7988 99.0027 56.7988 99.1475C56.7988 99.2923 56.8953 99.3405 57.016 99.2681C57.1245 99.2078 57.2331 99.0389 57.2331 98.8942C57.2331 98.7494 57.1245 98.7132 57.016 98.7735" fill="#DB0031"/>
<path d="M48.0156 102.839C48.0156 102.839 48.0518 102.839 48.0639 102.827C48.0518 102.827 48.0277 102.839 48.0156 102.839ZM48.6067 102.417C48.474 102.562 48.3414 102.682 48.2087 102.755C48.1604 102.779 48.1121 102.803 48.0639 102.827C48.1121 102.815 48.1604 102.791 48.2087 102.755C48.3414 102.67 48.4861 102.562 48.6067 102.417ZM48.9928 101.778C48.9445 101.898 48.8842 102.031 48.8239 102.127C48.8842 102.019 48.9445 101.91 48.9928 101.79M49.2823 96.9158C49.2341 97.0002 49.1979 97.0726 49.1738 97.1571L48.0518 100.064C48.1363 100.221 48.2328 100.33 48.3655 100.414C48.462 100.475 48.5826 100.475 48.7033 100.523C48.9446 100.595 49.1134 100.764 49.1496 101.102C49.1617 101.247 49.1135 101.452 49.0411 101.645L50.1751 98.7254C50.1148 98.6047 50.0303 98.5082 49.9459 98.4358C49.8252 98.3393 49.6684 98.3152 49.4995 98.2911C49.3185 98.279 49.1858 98.1584 49.1134 97.9533C49.0169 97.6637 49.1014 97.2777 49.2944 96.9037" fill="#DB0031"/>
<path d="M46.3755 98.5685L44.4091 103.635C44.1558 104.275 44.3126 104.818 44.7348 104.854H44.7469C44.8917 104.866 45.0364 104.83 45.1933 104.733C45.4949 104.552 45.7965 104.202 45.9653 103.768L47.3889 100.077C47.3286 99.9559 47.2442 99.8714 47.1597 99.787C47.0391 99.6905 46.8822 99.6543 46.7133 99.6422C46.5323 99.6181 46.3997 99.4975 46.3273 99.2924C46.267 99.0873 46.279 98.8219 46.3755 98.5444M48.1007 95.1303C47.787 95.3112 47.4975 95.6611 47.3286 96.0833L46.4479 98.3393C46.5927 98.0015 46.846 97.6878 47.1476 97.4707C47.1718 97.4466 47.2079 97.4345 47.2441 97.4104C47.5699 97.2174 47.8835 97.2415 48.0404 97.4828C48.161 97.6637 48.1731 97.9291 48.1127 98.2066L48.8848 96.2161C49.1382 95.5767 48.9813 95.0338 48.5591 94.9976C48.4143 94.9855 48.2575 95.0217 48.1127 95.1182" fill="#DB0031"/>
<path d="M52.1177 96.3125C51.804 96.4934 51.5145 96.8553 51.3456 97.2776L50.8027 98.7011C50.8872 98.858 50.9837 98.9786 51.1164 99.063C51.2129 99.1234 51.3336 99.1354 51.4542 99.1716C51.6834 99.244 51.8764 99.3646 51.9126 99.7024C51.9247 99.8593 51.8885 100.064 51.8161 100.282L52.926 97.4224C53.1673 96.783 53.0225 96.2401 52.5882 96.2039C52.4434 96.1918 52.2866 96.228 52.1418 96.3245" fill="#214B98"/>
<path d="M50.0064 96.1195C50.0064 96.1195 49.9461 96.1557 49.9099 96.1798C49.6445 96.3608 49.4273 96.6382 49.2705 96.9278C49.0775 97.2897 49.0051 97.6878 49.0895 97.9773C49.1619 98.1824 49.2946 98.303 49.4756 98.3151C49.6324 98.3272 49.8013 98.3634 49.9219 98.4599C50.0185 98.5323 50.0908 98.6288 50.1512 98.7494C50.1874 98.8097 50.2115 98.8821 50.2356 98.9666C50.308 99.2079 50.3201 99.4853 50.2959 99.7748C50.2718 99.9679 50.2115 100.185 50.1391 100.39C50.0426 100.668 50.0185 100.933 50.0788 101.15C50.1994 101.512 50.5493 101.584 50.9474 101.367C51.1042 101.283 51.2611 101.15 51.4058 100.969C51.5506 100.8 51.6833 100.547 51.7677 100.294C51.8401 100.076 51.8884 99.8714 51.8643 99.7145C51.8401 99.3767 51.6471 99.2561 51.4058 99.1837C51.2972 99.1475 51.1645 99.1475 51.068 99.0751C50.9353 98.9907 50.8388 98.87 50.7544 98.7132C50.7302 98.6529 50.694 98.5926 50.6699 98.5202C50.5975 98.2789 50.5855 98.0014 50.6096 97.6998C50.6337 97.5068 50.6941 97.3018 50.7664 97.0846C50.8871 96.7468 50.8871 96.409 50.7544 96.1798C50.6096 95.9506 50.2959 95.9144 49.9702 96.1074" fill="#214B98"/>
<path d="M47.2437 97.4346C47.2437 97.4346 47.1834 97.4708 47.1472 97.4949C46.8456 97.7121 46.5922 98.0257 46.4474 98.3635C46.4233 98.4359 46.3871 98.4962 46.363 98.5686C46.2786 98.834 46.2544 99.0994 46.3148 99.3045C46.3871 99.5096 46.5198 99.6302 46.7008 99.6544C46.8697 99.6544 47.0386 99.7026 47.1472 99.7992C47.2316 99.8836 47.3161 99.968 47.3764 100.089C47.4126 100.149 47.4488 100.233 47.4729 100.306C47.5453 100.547 47.5574 100.837 47.5332 101.126C47.497 101.331 47.4488 101.548 47.3764 101.754C47.2799 102.031 47.2557 102.308 47.3281 102.526C47.4246 102.815 47.6659 102.924 47.9554 102.851H47.9917L48.0399 102.827C48.0399 102.827 48.1364 102.779 48.1847 102.755C48.3174 102.682 48.4501 102.562 48.5828 102.417C48.6069 102.393 48.631 102.369 48.6552 102.333C48.7034 102.284 48.7517 102.212 48.7999 102.127C48.8602 102.019 48.9206 101.898 48.9688 101.778C48.9809 101.741 48.9929 101.705 49.0171 101.669C49.0895 101.476 49.1377 101.271 49.1256 101.126C49.0894 100.776 48.9206 100.619 48.6793 100.535C48.5707 100.499 48.438 100.499 48.3415 100.426C48.2088 100.342 48.1123 100.221 48.0279 100.065C47.9917 100.004 47.9675 99.9318 47.9434 99.8595C47.8589 99.6302 47.8469 99.3407 47.8831 99.0391C47.9072 98.834 47.9675 98.6289 48.0399 98.4118C48.064 98.3514 48.0761 98.2911 48.0882 98.2308C48.1485 97.9533 48.1364 97.6879 48.0158 97.507C47.8589 97.2657 47.5453 97.2416 47.2196 97.4346" fill="#DB0031"/>
</svg>
