<svg width="163" height="113" viewBox="0 0 163 113" fill="none" xmlns="http://www.w3.org/2000/svg">
<path d="M37.7275 78.8311L0 100.594L8.62124 105.591L46.3297 83.8093L37.7275 78.8311Z" fill="#D8D8D8"/>
<path d="M49.3633 4.23425L58.1562 9.30782V76.523L49.3633 71.4495V4.23425Z" fill="#E1EBF0"/>
<path d="M49.3236 30.3081L58.0783 35.3817L27.141 53.2917L18.3672 48.2182L49.3236 30.3081Z" fill="#F8F8F8"/>
<path d="M26.7402 25.9974V95.12L62.9991 74.1963V5.07373L26.7402 25.9974ZM31.6421 32.9974L58.0972 17.7195V35.3816L31.6421 50.6595V32.9974Z" fill="#E1EBF0"/>
<path d="M54.2447 0L62.9995 5.07357L26.7406 25.9973L17.9668 20.9428L54.2447 0Z" fill="#F8F8F8"/>
<path d="M17.9492 20.9238L26.7421 25.9974V95.12L17.9492 90.0464V20.9238Z" fill="#C9DBE4"/>
<path d="M33.7402 35.1337L42.5141 40.1882V44.3843L33.7402 39.3298V35.1337Z" fill="#C9DBE4"/>
<path d="M51.2704 35.1337L42.5156 40.1882V44.3843L51.2704 39.3298V35.1337Z" fill="#E1EBF0"/>
<path d="M33.7402 35.1336L42.5141 40.1881L51.2688 35.1336L42.5141 30.0601L33.7402 35.1336Z" fill="#F8F8F8"/>
<path d="M50.1625 37.4988L44.1543 40.9702V49.7059L50.1625 46.2535V37.4988Z" fill="#003652"/>
<path d="M42.0761 45.6621L40.6074 46.5204V48.1989L42.0761 47.3406V45.6621Z" fill="#0098A1"/>
<path d="M42.0761 48.0463L40.6074 48.9046V50.5831L42.0761 49.7247V48.0463Z" fill="#E20031"/>
<path d="M42.0761 50.4304L40.6074 51.2887V52.9672L42.0761 52.1089V50.4304Z" fill="#E20031"/>
<path d="M16.9187 90.237C16.3083 90.237 15.698 90.1798 15.0876 90.0463C12.7225 89.5313 7.40099 87.1471 9.13668 76.4468C11.7116 60.5204 17.9868 56.3624 18.2538 56.1907L19.2838 57.7929C19.2838 57.7929 13.4473 61.7983 11.025 76.752C9.97592 83.237 11.559 87.2997 15.4882 88.1771C18.025 88.7302 20.2566 87.6239 20.4092 87.1471C20.9241 85.0872 20.3519 51.3842 19.837 29.2589L21.7443 29.2207C21.8778 34.9237 23.0032 84.9727 22.2402 87.6812C21.8206 89.188 19.4364 90.2561 16.9187 90.2561V90.237Z" fill="#7BA7BB"/>
<path d="M18.9605 21.2673V29.6788C18.9605 29.9458 19.1321 30.1938 19.4755 30.4036C20.1621 30.8041 21.2684 30.8041 21.955 30.4036C22.2984 30.2128 22.47 29.9458 22.47 29.6788V21.2673C22.47 21.5344 22.2984 21.8014 21.936 21.9921C21.2493 22.3927 20.143 22.3927 19.4564 21.9921C19.1131 21.8014 18.9414 21.5344 18.9414 21.2673H18.9605Z" fill="#7BA7BB"/>
<path d="M19.474 20.5424C18.7873 20.9429 18.7873 21.5914 19.474 21.9919C20.1606 22.3925 21.2669 22.3925 21.9535 21.9919C22.6402 21.5914 22.6402 20.9429 21.9535 20.5424C21.2669 20.1418 20.1606 20.1418 19.474 20.5424Z" fill="#AFC9D7"/>
<path d="M19.6842 50.2397L15.6025 57.5831C15.469 57.8119 15.5071 58.1171 15.6979 58.4605C16.0984 59.1471 17.0711 59.6812 17.8722 59.6812C18.2728 59.6812 18.5589 59.5286 18.6733 59.2997L22.7551 51.9564C22.6215 52.1852 22.3545 52.3378 21.954 52.3378C21.1529 52.3378 20.1801 51.8038 19.7796 51.1171C19.5698 50.7738 19.5507 50.4686 19.6842 50.2397Z" fill="#003652"/>
<path d="M20.4849 49.8584C19.6838 49.8584 19.3786 50.4306 19.7791 51.1173C20.1797 51.8039 21.1524 52.338 21.9535 52.338C22.7546 52.338 23.0598 51.7658 22.6592 51.0791C22.2587 50.3925 21.2859 49.8584 20.4849 49.8584Z" fill="#75A3B7"/>
<path d="M15.9082 50.2971L20.3523 52.853V54.9892L15.9082 52.4334V50.2971Z" fill="#C9DBE4"/>
<path d="M24.8148 50.2971L20.3516 52.853V54.9892L24.8148 56.2481V50.2971Z" fill="#E1EBF0"/>
<path d="M15.9082 50.2971L20.3523 52.853L24.8156 50.2971L20.3523 47.7222L15.9082 50.2971Z" fill="#F8F8F8"/>
<path d="M35.1711 28.4387L35.2283 28.6676L34.8468 28.8965V28.782L34.5226 29.1063C34.3318 29.2207 34.1602 29.2016 34.1602 28.9537C34.1602 28.6104 34.5226 28.4006 34.7133 28.248L34.8087 28.0954L34.6942 28.0572L34.5607 28.248L34.1983 28.4578C34.1983 28.1335 34.4844 27.9237 34.7133 27.7902C35.1711 27.5232 35.1711 27.7521 35.1711 27.9619V28.4196V28.4387ZM34.8087 28.4959V28.3815L34.6561 28.515L34.5416 28.7057L34.6561 28.7439L34.8087 28.4769" fill="#000207"/>
<path d="M35.2657 23.575L35.2848 25.8829L34.5027 26.3215V24.8338L34.4837 24.8529L34.0259 26.6076L33.4156 26.951L32.9578 25.7303L32.9387 25.7493V27.218L32.1758 27.6758V25.3679L33.3393 24.6812L33.7207 25.8256L34.1022 24.2425L35.2657 23.575Z" fill="#DB0031"/>
<path d="M39.0431 25.2916C39.2911 25.139 39.3864 25.2916 39.3864 25.4633V26.2453L39.0049 26.4551V25.8447L38.8714 25.7112L38.7379 25.9973V26.6077L38.3755 26.8175V26.2071L38.242 26.0736L38.1276 26.3597V26.9701L37.7461 27.1799V26.0546L38.1085 25.8447V25.9973C38.1848 25.8066 38.2992 25.7112 38.4327 25.6349L38.6807 25.6731C38.6807 25.6731 38.7761 25.4442 39.024 25.2916H39.0431Z" fill="#000207"/>
<path d="M40.8546 24.2616V25.3869L40.4923 25.5967V25.4442C40.416 25.5967 40.3206 25.7303 40.168 25.8066C39.9963 25.9019 39.8438 25.8638 39.8438 25.5967V24.8338L40.2062 24.624V25.2153L40.3397 25.3679C40.3397 25.3679 40.4923 25.2343 40.4923 25.0818V24.4714L40.8737 24.2616H40.8546Z" fill="#000207"/>
<path d="M40.6646 20.4468L39.8253 22.0299L40.779 22.6975L39.7872 23.2697L39.3294 22.85L38.8526 23.8037L38.0896 24.2424L37.918 24.3569L38.0324 24.147L38.8907 22.5639L37.9943 21.9917L38.967 21.4386L39.3676 21.8391L39.749 20.9808L40.6646 20.4468Z" fill="#DB0031"/>
<path d="M37.1176 22.4878L38.0331 24.1281L37.9187 24.3379L37.232 24.7385L37.1176 24.4714L36.2784 24.9483L36.1639 25.3488L35.3438 25.8257L36.3165 22.9456L37.1176 22.4878ZM36.45 24.357L36.965 24.0709L36.717 23.4987L36.45 24.3761" fill="#DB0031"/>
<path d="M41.6361 19.8938V22.2017L40.816 22.6785L40.7969 20.3706L41.6361 19.8938Z" fill="#DB0031"/>
<path d="M44.9948 21.4579C45.3572 21.2481 45.4907 21.477 45.4907 21.7059C45.4907 22.0874 45.2809 22.3735 44.9566 22.5642L44.7087 22.6977V23.1746L44.2891 23.4225V21.8776L44.9757 21.477L44.9948 21.4579ZM44.8803 22.24C44.9948 22.1827 45.0901 22.1064 45.0901 21.9539C45.0901 21.8203 44.9948 21.8585 44.8994 21.9157L44.7087 22.0301V22.3544L44.8613 22.259" fill="#000207"/>
<path d="M45.0524 17.9293V20.2372L44.2894 20.6759L44.2703 19.1882L43.8126 20.9429L43.2022 21.3053L42.7444 20.0846H42.7254V21.5724L41.9624 22.0301L41.9434 19.7222L43.1259 19.0356L43.5074 20.18L43.8889 18.5969L45.0524 17.9293Z" fill="#DB0031"/>
<path d="M50.1444 18.8829C50.3542 18.7684 50.6021 18.6921 50.6212 18.9592L50.2779 19.1499L50.2207 19.0927H50.1444L50.0299 19.2643H50.0871C50.0871 19.2643 50.2779 19.2262 50.4114 19.2071C50.5258 19.188 50.6403 19.2071 50.6403 19.3788C50.6403 19.703 50.3732 19.9319 50.1444 20.0654C49.9155 20.1989 49.6484 20.2371 49.6484 19.9319L50.0108 19.7221L50.0681 19.7984H50.1634L50.2779 19.6267C50.2779 19.6267 50.2588 19.5504 50.0681 19.6267C49.782 19.7412 49.6675 19.6839 49.6675 19.5123C49.6675 19.2262 49.9345 18.9973 50.1444 18.8829Z" fill="#000207"/>
<path d="M49.8582 15.1443V15.7546L49.1144 16.1743V17.8909L48.2942 18.3677V16.6511L47.5312 17.0898V16.4794L49.8582 15.1443Z" fill="#DB0031"/>
<path d="M47.4364 21.3434L47.589 21.1717L47.9514 20.9619C47.8751 21.248 47.6653 21.496 47.4555 21.6104C47.1312 21.8012 46.9023 21.7058 46.9023 21.3243C46.9023 21.0001 47.1122 20.6186 47.4173 20.4279C47.7988 20.199 47.9705 20.3516 47.9705 20.7903L47.2457 21.2099L47.4364 21.3243V21.3434ZM47.4364 20.714L47.2457 21.0001L47.6081 20.7903L47.4555 20.6949" fill="#000207"/>
<path d="M46.9199 16.8419L47.8926 18.5967L47.0343 19.0926L46.9199 18.8256L46.0616 19.3215L45.9471 19.722L45.127 20.1989L46.0997 17.3188L46.9008 16.861L46.9199 16.8419ZM46.2714 18.7111L46.7864 18.425L46.5384 17.8528L46.2904 18.7302" fill="#DB0031"/>
<path d="M53.1763 17.128L53.2907 17.0708V17.4523L53.1382 17.5095C52.9856 17.5858 52.9283 17.7384 52.9283 17.9863V18.425L52.5469 18.6348V17.5095L52.8902 17.2997V17.4904C52.9474 17.2997 53.0237 17.2043 53.1572 17.128H53.1763Z" fill="#000207"/>
<path d="M51.2507 14.286C52.0518 13.8282 52.6049 13.9999 52.6049 14.7246C52.6049 15.4494 52.0518 16.2505 51.2507 16.7083C50.4496 17.1661 49.8965 16.9944 49.8965 16.2887C49.8965 15.583 50.4306 14.7628 51.2507 14.286ZM51.2507 16.1361C51.4605 16.0216 51.7657 15.7165 51.7657 15.2015C51.7657 14.6865 51.4415 14.7628 51.2316 14.8772C51.0218 14.9917 50.6976 15.2969 50.6976 15.8118C50.6976 16.3268 51.0218 16.2505 51.2316 16.1361" fill="#DB0031"/>
<path d="M55.2934 13.8283L55.3888 14.267L54.5686 14.7439L54.5114 14.4387C54.4923 14.2289 54.4542 14 54.1299 14.1907L53.6913 14.4387V15.2588L52.8711 15.7357V13.4278L54.416 12.5313C54.8929 12.2643 55.2934 12.2452 55.2934 12.6839C55.2934 12.9128 55.1599 13.2561 54.8929 13.5041C55.1218 13.4468 55.2553 13.5804 55.2934 13.8474V13.8283ZM54.1299 13.6948C54.2825 13.6185 54.4923 13.485 54.4733 13.2752C54.4733 13.1417 54.397 13.1035 54.0727 13.2752L53.6913 13.5041V13.9428L54.1299 13.6948Z" fill="#DB0031"/>
<path d="M55.8851 11.94L55.8088 12.0926L55.9042 12.188L55.8279 12.2261L55.7516 12.1308H55.7135V12.3024L55.6562 12.3406V11.9591L55.7707 11.8828L55.8851 11.921V11.94ZM55.6944 12.0926L55.7516 12.0545L55.8088 11.9591H55.6944V12.0926Z" fill="#DA0032"/>
<path d="M55.7524 11.7685C55.905 11.6731 56.0576 11.7112 56.0576 11.9211C56.0576 12.1309 55.905 12.3407 55.7524 12.436C55.5999 12.5314 55.4473 12.4933 55.4473 12.2835C55.4473 12.0736 55.5999 11.8638 55.7524 11.7685ZM55.7524 12.3788C55.8669 12.3025 55.9813 12.1309 55.9813 11.9783C55.9813 11.8257 55.8669 11.7685 55.7524 11.8448C55.638 11.9211 55.5426 12.0927 55.5426 12.2453C55.5426 12.3979 55.638 12.4551 55.7715 12.3788" fill="#DB0031"/>
<path d="M33.7413 27.9429L33.7604 29.5069L33.3598 29.7358L33.3408 28.7249L33.1119 29.8693L32.8067 30.06L32.5778 29.1827V30.1936L32.1773 30.4224L32.1582 28.8584L32.7686 28.5151L32.9593 29.3162L33.15 28.2862L33.7413 27.9429Z" fill="#000207"/>
<path d="M36.5642 26.7412L36.24 27.466L36.6024 27.8666L36.1827 28.0954L36.0492 27.9047L35.9157 28.2671L35.4961 28.496L35.8394 27.6949L35.5342 27.3516L35.9348 27.1036L36.0492 27.2562L36.1637 26.9701L36.5642 26.7412Z" fill="#000207"/>
<path d="M36.8887 27.6949V26.5505L37.2702 26.3407V27.466L36.8887 27.6949Z" fill="#000207"/>
<path d="M36.8887 26.1309L37.2702 25.9211V26.2072L36.8887 26.4361V26.1309Z" fill="#000207"/>
<path d="M42.6095 23.2317C42.8575 23.0791 42.9528 23.2317 42.9528 23.4033V24.1854L42.5714 24.3952V23.7848L42.4378 23.6513L42.3234 23.9374V24.5478L41.9419 24.7576V24.1472L41.8084 24.0137L41.6749 24.2998V24.9102L41.3125 25.12V23.9946L41.6558 23.7848V23.9374C41.7321 23.7467 41.8466 23.6513 41.9801 23.575H42.2471C42.2471 23.575 42.3234 23.3652 42.5714 23.2317H42.6095Z" fill="#000207"/>
<path d="M46.5196 20.9809L46.634 20.9237V21.3052L46.4814 21.3624C46.3289 21.4387 46.2526 21.5913 46.2526 21.8392V22.2779L45.8711 22.4877V21.3624L46.2335 21.1526V21.3433C46.2907 21.1717 46.3861 21.0572 46.5196 20.9809Z" fill="#000207"/>
<path d="M48.7913 19.665C49.0011 19.5505 49.2491 19.4742 49.2681 19.7413L48.9248 19.932L48.8867 19.8748H48.8104L48.6959 20.0464H48.7531C48.7531 20.0464 48.963 19.9892 49.0774 19.9892C49.1918 19.9701 49.3063 19.9892 49.3063 20.1609C49.3063 20.4851 49.0583 20.714 48.8104 20.8475C48.5624 20.981 48.3145 21.0192 48.3145 20.714L48.6768 20.5042L48.7341 20.5805H48.8294L48.9629 20.4088C48.9629 20.4088 48.9248 20.3325 48.7531 20.4088C48.467 20.5233 48.3526 20.4661 48.3526 20.2944C48.3526 20.0083 48.6196 19.7794 48.8104 19.665H48.7913Z" fill="#000207"/>
<path d="M52.0715 17.7957V18.921L51.7091 19.1308V18.9782C51.6328 19.1308 51.5374 19.2643 51.3848 19.3406C51.2131 19.436 51.0605 19.3978 51.0605 19.1308V18.3679L51.442 18.1581V18.7493L51.5755 18.9019C51.5755 18.9019 51.7281 18.7684 51.7281 18.6158V18.0055L52.1096 17.7957H52.0715Z" fill="#000207"/>
<path d="M54.1117 17.4904L54.2643 17.3187L54.6267 17.1089C54.5504 17.4141 54.3406 17.643 54.1117 17.7765C53.7875 17.9672 53.5586 17.8719 53.5586 17.4904C53.5586 17.1661 53.7684 16.7847 54.0736 16.5939C54.455 16.365 54.6267 16.5367 54.6267 16.9563L53.9019 17.3759L54.0927 17.4904H54.1117ZM54.1117 16.861L53.921 17.1471L54.2834 16.9372L54.1117 16.861Z" fill="#000207"/>
<path d="M55.2756 16.6321V17.0708L54.875 17.2997V16.88L55.2756 16.6321Z" fill="#000207"/>
<path d="M34.637 78.6214L34.4272 78.8312L34.3509 79.1364V80.4143L32.6342 81.4061V80.1282L32.5579 79.9184L32.3291 79.9565L32.1002 80.1664L32.043 80.4715V83.6568L32.1383 83.8666L32.3481 83.8476L32.5579 83.6187L32.6533 83.3135L32.6342 81.9783L34.3509 80.9865L34.3699 82.3217L34.4272 82.5315L34.656 82.5124L34.8849 82.2835L34.9612 81.9783L34.9421 78.7931L34.8658 78.5833L34.637 78.6214Z" fill="#214B98"/>
<path d="M37.9568 76.6951L37.747 76.9431L36.7933 78.8886L35.8206 78.0493H35.6108L35.42 78.2591L35.3438 78.5452L35.401 78.6978L36.4882 79.5943V81.1011L36.5645 81.3109L36.7933 81.2918L37.0222 81.0629L37.0985 80.7387V79.251L38.1666 77.1147L38.2239 76.8668L38.1476 76.676L37.9568 76.6951Z" fill="#214B98"/>
<path d="M39.252 79.2699V76.5806L39.8242 76.2372C40.5872 75.7985 40.9686 76.0274 40.9686 76.9239C40.9686 77.8203 40.5872 78.507 39.8242 78.9457L39.2329 79.289M39.8433 75.665L38.8896 76.2182L38.6798 76.428L38.6035 76.7141V79.8993L38.6989 80.0901L38.9087 80.0519L39.8624 79.4988C40.4155 79.1746 40.8351 78.774 41.1403 78.259C41.4455 77.744 41.5981 77.1718 41.5981 76.5806C41.5981 75.9893 41.4455 75.5887 41.1403 75.4361C40.8351 75.2835 40.4155 75.3408 39.8624 75.665" fill="#214B98"/>
<path d="M42.8003 75.7033V74.5017L43.6014 74.044C43.8302 73.9104 44.0019 73.8532 44.0973 73.8914C44.2117 73.9295 44.2689 74.0439 44.2689 74.2728C44.2689 74.4826 44.2117 74.6734 44.0973 74.826C44.0019 74.9976 43.8112 75.1311 43.6014 75.2647L42.8003 75.7224M43.6777 73.4527L42.4951 74.1393L42.2853 74.3491L42.209 74.6352V77.8205L42.3044 78.0494L42.5332 78.0113L42.7621 77.7824L42.8384 77.4581V76.2374L43.2962 75.9704L43.5632 75.8941L43.773 76.0085L44.4024 76.7524L44.5169 76.8096L44.6504 76.7715L44.8602 76.5617L44.9365 76.3137L44.8793 76.142L44.4406 75.6461L44.2499 75.4935H44.0019C44.2689 75.2837 44.4787 75.0358 44.6313 74.7687C44.7648 74.5017 44.8411 74.2156 44.8411 73.9295C44.8411 73.548 44.7458 73.3192 44.555 73.2429C44.3643 73.1475 44.0591 73.2429 43.6967 73.4527" fill="#214B98"/>
<path d="M46.9596 74.864C46.6354 75.0547 46.4065 75.0547 46.2348 74.9212C46.0631 74.7877 45.9678 74.4825 45.9678 74.0248C45.9678 73.567 46.0441 73.1665 46.2157 72.8231C46.3874 72.4798 46.6163 72.2319 46.9405 72.0411C47.2648 71.8504 47.4937 71.8504 47.6463 71.9839C47.8179 72.1174 47.9133 72.4226 47.9133 72.8804C47.9133 73.3381 47.837 73.7387 47.6653 74.082C47.4937 74.4253 47.2648 74.6733 46.9596 74.864ZM46.9596 71.488C46.6354 71.6787 46.3492 71.9267 46.1013 72.2128C45.8724 72.518 45.6817 72.8422 45.5482 73.2237C45.4146 73.6051 45.3574 73.9866 45.3574 74.3872C45.3574 74.7877 45.4337 75.0929 45.5672 75.3218C45.7007 75.5506 45.8915 75.6651 46.1204 75.6842C46.3683 75.7032 46.6544 75.6269 46.9787 75.4362C47.3029 75.2455 47.57 75.0166 47.8179 74.7114C48.0468 74.4062 48.2375 74.082 48.371 73.7005C48.5046 73.319 48.5618 72.9376 48.5618 72.537C48.5618 72.1365 48.4855 71.8313 48.352 71.6024C48.2185 71.3735 48.0468 71.2591 47.7988 71.24C47.57 71.221 47.2839 71.2972 46.9596 71.488Z" fill="#214B98"/>
<path d="M50.6974 69.3136C50.3732 69.5043 50.0871 69.7523 49.8391 70.0575C49.5911 70.3626 49.4004 70.706 49.2669 71.0684C49.1334 71.4498 49.0762 71.8313 49.0762 72.2318C49.0762 72.6324 49.1334 72.9566 49.286 73.1855C49.4195 73.4144 49.6102 73.5288 49.8773 73.5288C50.1252 73.5479 50.4304 73.4526 50.7737 73.2618C50.9454 73.1665 51.098 73.0711 51.2696 72.9376C51.4413 72.8231 51.5939 72.6896 51.7083 72.5752C51.8228 72.4607 51.8991 72.3463 51.9372 72.27C51.9754 72.1746 51.9944 72.0411 51.9944 71.8885V70.725L51.9372 70.5534L51.7465 70.5915L50.9263 71.0684L50.7356 71.24L50.6783 71.4498L50.7356 71.6024L50.9263 71.5643L51.4604 71.2591V72.2318C51.2506 72.4226 51.0217 72.5942 50.8119 72.7087C50.1061 73.1283 49.7437 72.8422 49.7247 71.9076C49.7247 71.4498 49.801 71.0493 49.9726 70.706C50.1443 70.3817 50.4113 70.0956 50.7546 69.9049C50.9072 69.8095 51.0407 69.7714 51.1552 69.7332C51.2696 69.7332 51.4031 69.7141 51.5366 69.7332H51.6511L51.7465 69.6951L51.88 69.5425L51.9372 69.3136L51.8991 69.1801L51.8228 69.1038C51.5367 68.9893 51.1742 69.0656 50.7165 69.3136" fill="#214B98"/>
<path d="M54.6453 67.0821L52.9287 68.0739L52.7189 68.3028L52.6426 68.5889V71.7742L52.738 71.9649L52.9478 71.9268L54.6644 70.9349L54.8742 70.7442L54.9314 70.4963L54.8742 70.3246L54.6644 70.3818L53.2339 71.202V70.0766L54.5499 69.3137L54.7597 69.123L54.836 68.875L54.7597 68.7224L54.5499 68.7606L53.2339 69.5235V68.4745L54.6453 67.6543L54.8551 67.4445L54.9314 67.1965L54.8551 67.0439L54.6453 67.0821Z" fill="#214B98"/>
<path d="M57.9645 65.1556L57.7547 65.3654L57.6784 65.6706V68.0166L55.9618 66.4335L55.7138 66.4526L55.504 66.6624L55.4277 66.9676L55.4468 70.1528L55.5231 70.3627H55.7138L55.9237 70.1338L56.019 69.8286L55.9999 67.4826L57.7356 69.0466H57.9836L58.1934 68.8177L58.2697 68.5316L58.2506 65.3272L58.1743 65.1174L57.9645 65.1556Z" fill="#214B98"/>
<path d="M35.533 74.3107L34.2169 75.0736L33.7782 76.8665L33.3395 75.5886L32.0234 76.3515L32.0425 78.9455L32.9199 78.4496L32.9008 76.7712L33.4349 78.1445L34.1215 77.7439L34.6556 75.7793V75.7603V77.4387L35.533 76.9237V74.3107Z" fill="#DB0031"/>
<path d="M36.8873 75.2263L37.1734 74.2535L37.4595 74.902L36.8873 75.2263ZM37.6312 73.1091L36.7156 73.6432L35.6094 76.8857L36.544 76.3516L36.6775 75.8939L37.6312 75.3407L37.7647 75.6459L38.7374 75.0928L38.5276 75.2072L38.6611 74.9593L37.6312 73.1282" fill="#DB0031"/>
<path d="M41.6363 70.8013L40.6064 71.3926L40.1677 72.3653L39.7099 71.9075L38.6227 72.537L39.5955 73.1855L38.6609 74.9593L38.5273 75.2073L38.7372 75.0737L39.5764 74.5969L40.1105 73.5097L40.6254 73.9866L41.7508 73.3381L40.6636 72.5751L41.6363 70.8013Z" fill="#DB0031"/>
<path d="M42.7237 70.172L41.7891 70.7061V73.3191L42.7237 72.7851V70.172Z" fill="#DB0031"/>
<path d="M46.5764 67.9403L45.2603 68.7033L44.8407 70.4771L44.8216 70.4962L44.402 69.1992L43.0859 69.9621V72.5752L43.9633 72.0602V70.4008L44.4974 71.755L45.184 71.3545L45.699 69.3899H45.7181V71.0493L46.5955 70.5343L46.5764 67.9403Z" fill="#DB0031"/>
<path d="M47.9498 68.8366L48.2359 67.8639L48.5029 68.5124L47.9307 68.8366M48.6746 66.7195L47.7781 67.2345L46.6719 70.477L47.6065 69.9429L47.74 69.4851L48.6937 68.932L48.8272 69.2372L49.7809 68.6841L48.6746 66.7195Z" fill="#DB0031"/>
<path d="M52.013 64.8123L49.3809 66.3191L49.3999 66.9866L50.2392 66.5098V68.4362L51.1738 67.9022V65.9567L52.013 65.4798V64.8123Z" fill="#DB0031"/>
<path d="M53.5942 65.9184C53.3654 66.0519 53.003 66.1282 53.003 65.556C53.003 64.9838 53.3654 64.6405 53.5942 64.507C53.8231 64.3734 54.1855 64.2971 54.1855 64.8694C54.1855 65.4416 53.8231 65.7849 53.5942 65.9184ZM53.5942 63.8394C52.6787 64.3734 52.0684 65.3081 52.0684 66.0901C52.0684 66.8721 52.6978 67.0819 53.5942 66.5669C54.4907 66.0519 55.1201 65.1173 55.1201 64.3353C55.1201 63.5533 54.4907 63.3244 53.5942 63.8585" fill="#DB0031"/>
<path d="M56.3237 63.4579V62.9429L56.7624 62.695C57.1057 62.4852 57.2202 62.5233 57.2202 62.695C57.2202 62.9429 56.9913 63.0955 56.8196 63.1909L56.3428 63.4579M57.182 61.8367L55.4082 62.8666V65.4797L56.3428 64.9456V64.0301L56.8387 63.744C57.2011 63.5342 57.2393 63.7822 57.2583 64.011C57.2583 64.1446 57.2774 64.259 57.3346 64.3734L58.2692 63.8394L58.1548 63.3435C58.1166 63.0383 57.9641 62.8857 57.7161 62.962C58.0213 62.695 58.1739 62.3326 58.1739 62.0465C58.1739 61.5696 57.7161 61.5696 57.182 61.8748" fill="#DB0031"/>
<path d="M58.6123 61.3598V61.2453L58.6695 61.2072H58.7458L58.6695 61.3026L58.5932 61.3407M58.6695 61.1309L58.536 61.2072V61.6459L58.6123 61.6077V61.417H58.6504L58.7458 61.5314L58.8221 61.4933L58.7267 61.3598L58.8221 61.1881L58.6886 61.15M58.6886 61.684C58.555 61.7603 58.4406 61.684 58.4215 61.5314C58.4025 61.3788 58.536 61.169 58.6695 61.0927C58.803 61.0165 58.9174 61.0737 58.9174 61.2453C58.9174 61.417 58.8221 61.6077 58.6695 61.7031M58.6695 61.0164C58.4788 61.1309 58.3262 61.3598 58.3262 61.5887C58.3262 61.8175 58.4788 61.8938 58.6695 61.7794C58.8412 61.684 59.0128 61.417 59.0128 61.1881C59.0128 60.9592 58.8412 60.902 58.6695 61.0164Z" fill="#DB0031"/>
<path d="M44.4785 67.4445C44.4785 67.4445 44.5357 67.4445 44.5548 67.4254C44.5357 67.4254 44.4976 67.4445 44.4785 67.4445ZM45.4131 66.7579C45.2033 66.9868 44.9935 67.1775 44.7837 67.2919C44.7074 67.3301 44.6311 67.3682 44.5548 67.4064C44.6311 67.3682 44.7074 67.3492 44.7837 67.2919C44.9935 67.1584 45.2224 66.9868 45.4131 66.7579ZM46.0235 65.747C45.9472 65.9377 45.8518 66.1284 45.7564 66.3001C45.8518 66.1284 45.9472 65.9568 46.0235 65.766M46.4812 58.0603C46.424 58.1748 46.3477 58.3083 46.3096 58.4418L44.5357 63.0385C44.6692 63.2865 44.8218 63.4772 45.0317 63.5917C45.1842 63.687 45.375 63.7061 45.5657 63.7633C45.9472 63.8778 46.2142 64.1448 46.2714 64.6789C46.2905 64.9077 46.2142 65.232 46.0998 65.5372L47.8927 60.9214C47.7973 60.7306 47.6638 60.578 47.5303 60.4636C47.3395 60.311 47.0916 60.2729 46.8246 60.2347C46.5385 60.2156 46.3287 60.0249 46.2142 59.7007C46.0616 59.2429 46.1951 58.6325 46.5003 58.0413" fill="#DB0031"/>
<path d="M41.9035 60.6732L38.7945 68.6841C38.3939 69.695 38.6419 70.5533 39.3095 70.6105H39.3285C39.5574 70.6296 39.7863 70.5724 40.0343 70.4198C40.5111 70.1337 40.9879 69.5806 41.255 68.8939L43.5056 63.0574C43.4103 62.8667 43.2768 62.7332 43.1433 62.5996C42.9525 62.447 42.7046 62.4089 42.4375 62.3708C42.1514 62.3326 41.9416 62.1419 41.8272 61.8176C41.7318 61.4934 41.7509 61.0738 41.9035 60.6541M44.631 55.2563C44.1351 55.5424 43.6773 56.0956 43.4103 56.7631L42.0179 60.3299C42.2468 59.7958 42.6473 59.2999 43.1242 58.9566C43.1814 58.9184 43.2195 58.8994 43.2768 58.8612C43.7918 58.556 44.2877 58.5942 44.5356 58.9757C44.7263 59.2618 44.7454 59.6814 44.6501 60.1201L45.8708 56.9729C46.2713 55.962 46.0234 55.1037 45.3558 55.0465C45.1269 55.0274 44.8789 55.0847 44.6501 55.2372" fill="#DB0031"/>
<path d="M50.9833 57.1256C50.4874 57.4117 50.0296 57.9648 49.7626 58.6515L48.9043 60.9022C49.0378 61.1501 49.1904 61.3409 49.4002 61.4744C49.5528 61.5697 49.7435 61.5888 49.9343 61.646C50.2967 61.7605 50.6018 61.9512 50.6591 62.4853C50.6781 62.7332 50.6209 63.0575 50.5065 63.4008L52.2612 58.8804C52.6427 57.8886 52.4138 57.0112 51.7272 56.954C51.4983 56.9349 51.2503 57.0112 51.0215 57.1447" fill="#214B98"/>
<path d="M47.6458 56.8014C47.6458 56.8014 47.5504 56.8586 47.5122 56.8968C47.0926 57.1829 46.7302 57.6216 46.5013 58.0793C46.1962 58.6515 46.0817 59.281 46.2153 59.7387C46.3297 60.063 46.5395 60.2537 46.8256 60.2728C47.0926 60.2919 47.3406 60.3491 47.5313 60.5017C47.6839 60.6161 47.7984 60.7687 47.8937 60.9594C47.9509 61.0548 47.9891 61.1692 48.0272 61.3028C48.1417 61.6842 48.1608 62.1229 48.1226 62.5998C48.0845 62.9049 47.9891 63.2292 47.8746 63.5725C47.7221 64.0112 47.6839 64.4308 47.7793 64.7741C47.97 65.3463 48.5231 65.4608 49.1526 65.1175C49.4005 64.984 49.6485 64.7741 49.8774 64.488C50.1063 64.221 50.3161 63.8205 50.4686 63.4199C50.5831 63.0766 50.6594 62.7523 50.6212 62.5044C50.564 61.9703 50.2588 61.7796 49.8964 61.6651C49.7248 61.6079 49.515 61.6079 49.3624 61.4935C49.1526 61.36 48.9809 61.1692 48.8665 60.9213C48.8283 60.8259 48.7711 60.7305 48.733 60.6161C48.6185 60.2346 48.5994 59.7959 48.6376 59.3191C48.6757 59.0139 48.7711 58.6897 48.8855 58.3464C49.0763 57.8123 49.0763 57.2782 48.8665 56.9158C48.6376 56.5534 48.1417 56.5153 47.6267 56.8014" fill="#214B98"/>
<path d="M43.2775 58.8993C43.2775 58.8993 43.1821 58.9565 43.1249 58.9947C42.6481 59.3189 42.2475 59.8339 42.0186 60.368C41.9614 60.4824 41.9233 60.5778 41.8851 60.6922C41.7516 61.1118 41.7135 61.5315 41.8088 61.8557C41.9233 62.18 42.1331 62.3707 42.4192 62.4088C42.6862 62.4279 42.9533 62.4851 43.1249 62.6377C43.2584 62.7522 43.3919 62.9048 43.4873 63.0955C43.5445 63.2099 43.6017 63.3244 43.6399 63.4388C43.7543 63.8203 43.7734 64.2781 43.7353 64.7358C43.6971 65.0601 43.6018 65.4034 43.4873 65.7276C43.3347 66.1663 43.2966 66.605 43.411 66.9483C43.5636 67.4061 43.9451 67.5778 44.4028 67.4633H44.4791C44.4791 67.4633 44.5364 67.4252 44.5554 67.4252C44.5554 67.4252 44.708 67.3489 44.7843 67.3108C44.9941 67.1963 45.2039 67.0056 45.4137 66.7767C45.4519 66.7385 45.49 66.7004 45.5282 66.6432C45.6045 66.5669 45.6808 66.4524 45.7571 66.3189C45.8524 66.1473 45.9478 65.9565 46.0241 65.7658C46.0432 65.7086 46.0622 65.6514 46.1004 65.5941C46.2148 65.289 46.2911 64.9647 46.2721 64.7358C46.2148 64.2018 45.9478 63.9347 45.5663 63.8203C45.3947 63.7631 45.1849 63.7631 45.0323 63.6486C44.8415 63.5151 44.6699 63.3244 44.5364 63.0955C44.4791 63.0001 44.441 62.8857 44.4028 62.7712C44.2693 62.4088 44.2503 61.9511 44.3075 61.4742C44.3456 61.15 44.441 60.8257 44.5554 60.4824C44.5936 60.387 44.6127 60.2917 44.6317 60.1963C44.7271 59.7576 44.708 59.338 44.5173 59.0519C44.2693 58.6704 43.7734 58.6323 43.2584 58.9375" fill="#DB0031"/>
<path d="M161.814 63.9307C164.932 73.2838 138.444 90.5213 102.668 102.425C66.8918 114.329 35.367 116.403 32.2493 107.063C29.1316 97.71 55.6191 80.4854 91.3953 68.5686C127.171 56.6647 158.696 54.5905 161.814 63.9307Z" fill="#D8D8D8"/>
<path d="M135.055 40.4194L110.023 54.8742V85.4843L135.055 71.0295V40.4194Z" fill="#005875"/>
<path d="M87.6582 45.1218L110.088 58.0693V85.4844L87.6582 72.5369V45.1218Z" fill="#003652"/>
<path d="M147.178 67.2676L141.922 64.4849C141.922 64.4849 140.273 63.042 140.685 60.3108L140.788 58.7648L151.984 53.0576C151.984 53.0576 145.22 64.7425 147.178 67.2676Z" fill="#016A86"/>
<path d="M110.27 18.8531L135.301 33.3079V63.9179L110.27 49.4632V18.8531Z" fill="#C9DBE4"/>
<path d="M135.442 33.2821L110.41 47.7369V78.347L135.416 63.9051V63.9179L160.448 49.4632V18.8531L135.442 33.2821Z" fill="#E1EBF0"/>
<path d="M85.3652 33.2821L110.397 47.7369V78.3469L85.3652 63.8922V33.2821Z" fill="#C9DBE4"/>
<path d="M160.46 18.8532L135.416 4.34692L85.3652 33.2822L110.397 47.7369L160.46 18.8532Z" fill="white"/>
<path d="M97.7071 68.1954V59.3447L95.2207 60.7747V69.6254L97.7071 68.1954Z" fill="#7BA7BB"/>
<path d="M156.351 52.6326L159.159 54.2687C158.039 53.6246 156.493 53.7148 154.792 54.6939L151.971 53.0577C153.684 52.0786 155.23 51.9756 156.338 52.6326" fill="#75A3B7"/>
<path d="M150.464 69.2258L147.642 67.5897C146.547 66.9455 145.852 65.5928 145.852 63.6475C145.852 59.7568 148.583 55.0158 151.971 53.0576L154.779 54.6937C151.391 56.652 148.66 61.3929 148.673 65.2836C148.673 67.2161 150.464 69.2258 150.464 69.2258Z" fill="#016A86"/>
<path d="M154.793 54.6937C158.182 52.7355 160.938 54.3072 160.951 58.1979C160.951 62.0886 158.22 66.8424 154.832 68.8006C151.444 70.7588 148.687 69.1871 148.674 65.2835C148.674 61.3929 151.405 56.6519 154.793 54.6937Z" fill="#47869F"/>
<path d="M155.346 58.2238C156.97 57.2963 158.284 58.0435 158.284 59.8986C158.284 61.7538 156.982 64.0212 155.359 64.9616C153.749 65.8892 152.422 65.142 152.422 63.2869C152.422 61.4317 153.723 59.1643 155.346 58.2367" fill="#95B8C9"/>
<path d="M155.347 60.3623C155.939 60.0274 156.416 60.2979 156.416 60.9678C156.416 61.6506 155.939 62.4751 155.347 62.8101C154.754 63.145 154.277 62.8745 154.277 62.2046C154.277 61.5347 154.754 60.7102 155.334 60.3623" fill="#005875"/>
<path d="M60.5527 64.4849V88.8209L84.0385 102.387V78.0507L60.5527 64.4849Z" fill="#003652"/>
<path d="M60.5527 60.2593V84.5953L84.0385 98.1612V73.8251L60.5527 60.2593Z" fill="#75A3B7"/>
<path d="M83.8984 97.5944V102.426L106.328 89.4781V84.8917L83.8984 97.5944Z" fill="#005875"/>
<path d="M63.2207 73.5676V83.5262L80.9091 93.7424V83.7839L63.2207 73.5676Z" fill="#016A86"/>
<path d="M106.238 53.2766L86.7585 64.5235V69.1356L83.8984 70.7846V98.0709L106.328 85.1363L106.238 53.2766Z" fill="#8BB2C4"/>
<path d="M101.986 85.9223L104.794 87.5584C103.673 86.9143 102.127 87.0044 100.427 87.9835L97.6055 86.3474C99.3189 85.3683 100.865 85.2653 101.973 85.9223" fill="#75A3B7"/>
<path d="M96.0984 102.515L93.277 100.879C92.182 100.235 91.4863 98.8824 91.4863 96.937C91.4863 93.0463 94.2175 88.3054 97.6058 86.3472L100.414 87.9833C97.026 89.9415 94.2948 94.6825 94.3077 98.5731C94.3077 100.506 96.0984 102.515 96.0984 102.515Z" fill="#016A86"/>
<path d="M100.426 87.9835C103.814 86.0253 106.571 87.597 106.584 91.4877C106.584 95.3783 103.853 100.132 100.465 102.09C97.0765 104.049 94.3195 102.477 94.3066 98.5733C94.3066 94.6827 97.0378 89.9417 100.426 87.9835Z" fill="#47869F"/>
<path d="M100.438 91.6681C102.061 90.7405 103.375 91.4877 103.375 93.3428C103.375 95.198 102.074 97.4654 100.451 98.4059C98.8406 99.3335 97.5137 98.5862 97.5137 96.7311C97.5137 94.8759 98.8148 92.6085 100.438 91.6809" fill="#95B8C9"/>
<path d="M100.438 93.8065C101.031 93.4716 101.508 93.7421 101.508 94.412C101.508 95.0948 101.031 95.9193 100.438 96.2543C99.8458 96.5892 99.3691 96.3187 99.3691 95.6488C99.3691 94.9789 99.8458 94.1544 100.426 93.8065" fill="#005875"/>
<path d="M86.3455 41.8365L66.8535 53.1349L86.6805 64.5751L106.211 53.3024L86.3455 41.8365Z" fill="#A2C1D0"/>
<path d="M100.684 46.3326L88.0075 38.8347L71.543 52.13L88.1621 61.8696L100.684 46.3326Z" fill="#D0E0E8"/>
<path d="M104.124 55.8018L88.1621 61.8697L104.588 51.3958L104.124 55.8018Z" fill="#8BB2C4"/>
<path d="M100.684 46.3326L100.607 49.7338L88.1621 61.8696L100.684 46.3326Z" fill="#8BB2C4"/>
<path d="M104.549 51.4343L100.607 49.7338L88.1621 61.8696L104.549 51.4343Z" fill="#A2C1D0"/>
<path d="M64.6895 56.4329L66.8538 53.1349L86.7838 64.5621L86.8483 69.5221L64.6895 56.4329Z" fill="#75A3B7"/>
<path d="M63.6074 61.0323V71.9056L81.0511 81.9673V71.094L63.6074 61.0323Z" fill="#BCD2DE"/>
<path d="M89.7071 67.3449L98.532 62.3206L98.5964 70.2179L96.0584 71.5319C93.907 72.6399 92.2708 74.5465 91.485 76.8397L91.1886 77.7029L88.5863 78.9783L88.4961 69.316C88.5219 68.5044 88.9727 67.7572 89.6813 67.3578" fill="#D6E4EB"/>
<path d="M77.5586 95.3911L77.5843 96.4604L80.5732 98.1996L80.6119 97.1948L77.5586 95.3911Z" fill="white"/>
<path d="M60.5156 85.6646L60.5414 86.7338L63.5174 88.473L63.556 87.4682L60.5156 85.6646Z" fill="white"/>
<path d="M77.5598 92.1704L77.5469 94.4636L80.5744 96.1771L80.613 93.9483L77.5598 92.1704Z" fill="white"/>
<path d="M60.5914 82.4052L60.5527 84.5953L63.7091 86.4246L63.7477 84.2088L60.5914 82.4052Z" fill="white"/>
<path d="M83.8711 73.9409L83.884 81.091L86.0225 82.2762L86.0483 75.139L83.8711 73.9409Z" fill="#016A86"/>
<path d="M94.2032 83.5518V80.0476L91.7168 81.4776V84.9947L94.2032 83.5518Z" fill="#005875"/>
<path d="M77.0178 84.4664L66.1445 78.3341V79.1844L77.0178 85.3167V84.4664Z" fill="#003652"/>
<path d="M77.0178 87.378L66.1445 81.2457V82.1089L77.0178 88.2283V87.378Z" fill="#003652"/>
<path d="M60.5527 60.2591L64.6753 56.4329L86.847 69.522L84.0385 74.0568L60.5527 60.2591Z" fill="#003652"/>
</svg>
