<svg width="166" height="210" viewBox="0 0 166 210" fill="none" xmlns="http://www.w3.org/2000/svg">
<path d="M110.959 186.292C120.274 191.665 120.309 200.379 111.065 205.753C101.803 211.126 86.7606 211.126 77.4454 205.753C68.1303 200.379 68.0772 191.647 77.3394 186.274C86.6015 180.901 101.644 180.901 110.959 186.274V186.292Z" fill="#D8D8D8"/>
<path d="M48.8982 153.892C58.2134 159.265 58.2487 167.979 49.0042 173.353C39.7421 178.726 24.7 178.726 15.3849 173.353C6.06971 167.979 6.01669 159.248 15.2788 153.874C24.5409 148.501 39.583 148.501 48.8982 153.874V153.892Z" fill="#D8D8D8"/>
<path d="M146.115 117.957C155.43 123.33 155.465 132.045 146.221 137.418C136.959 142.791 121.917 142.791 112.602 137.418C103.287 132.045 103.233 123.313 112.496 117.939C121.758 112.566 136.8 112.566 146.115 117.939V117.957Z" fill="#D8D8D8"/>
<path d="M135.051 32.6358L129.058 27.6336C129.058 27.6336 99.3984 17.523 98.5146 18.3007C97.6308 19.0785 98.709 20.0683 101.166 21.2526C103.623 22.4369 133.177 36.0826 133.177 36.0826L135.051 32.6535V32.6358Z" fill="#E1EBF0"/>
<path d="M152.725 125.027L147.122 33.8909L140.635 37.426L139.168 125.222H139.203C139.221 126.777 142.244 128.015 145.955 128.015C149.667 128.015 152.725 126.76 152.725 125.204C152.725 125.151 152.69 125.08 152.69 125.027H152.743H152.725Z" fill="#E1EBF0"/>
<path d="M150.517 89.0216L147.123 33.9084L140.636 37.4436L140.053 72.6715C142.227 76.7193 146.982 85.2213 150.517 89.0216Z" fill="#C9DBE4"/>
<path d="M140.053 38.6279L141.237 48.0491C141.237 48.0491 161.759 84.1785 162.748 84.6734C163.738 85.1683 165.594 85.5572 164.817 83.2947C164.039 81.0322 141.537 37.532 141.537 37.532L140.07 38.6102L140.053 38.6279Z" fill="#E1EBF0"/>
<path d="M138.779 32.0348C138.779 32.0348 148.695 26.4316 156.066 23.3029C156.066 23.3029 161.263 22.7196 159.018 25.9543C156.773 29.189 141.537 37.5497 141.537 37.5497L138.779 32.0525V32.0348Z" fill="#C9DBE4"/>
<path d="M138.09 32.1409C138.09 32.1409 146.433 6.31649 153.804 0.713258C153.804 0.713258 155.182 -0.364967 155.571 0.129956C155.96 0.624879 156.455 1.89754 154.581 6.42255C152.708 10.9476 146.132 29.896 146.132 29.896L140.936 33.8201L138.09 32.1585V32.1409Z" fill="#E1EBF0"/>
<path d="M137.401 31.4516C136.252 31.3632 132.098 34.5979 133.283 37.9386C134.467 41.2793 141.431 38.4335 141.431 38.4335C141.431 38.4335 142.615 31.8581 137.401 31.4693V31.4516Z" fill="#F8F8F8"/>
<path d="M99.699 99.3974L93.7068 94.3952C93.7068 94.3952 64.0468 84.2846 63.163 85.0623C62.2792 85.8401 63.3575 86.8299 65.8144 88.0142C68.2713 89.1985 97.8253 102.844 97.8253 102.844L99.699 99.4151V99.3974Z" fill="#E1EBF0"/>
<path d="M117.374 191.807L111.771 100.67L105.284 104.205L103.816 192.001H103.852C103.869 193.556 106.892 194.794 110.604 194.794C114.316 194.794 117.374 193.539 117.374 191.983C117.374 191.93 117.338 191.86 117.338 191.807H117.391H117.374Z" fill="#E1EBF0"/>
<path d="M115.165 155.801L111.771 100.688L105.285 104.223L104.701 139.451C106.875 143.499 111.63 152.001 115.165 155.801Z" fill="#C9DBE4"/>
<path d="M104.701 105.39L105.885 114.811C105.885 114.811 126.407 150.94 127.397 151.435C128.387 151.93 130.243 152.319 129.465 150.056C128.687 147.794 106.186 104.294 106.186 104.294L104.719 105.372L104.701 105.39Z" fill="#E1EBF0"/>
<path d="M103.428 98.8141C103.428 98.8141 113.344 93.2109 120.715 90.0822C120.715 90.0822 125.911 89.4989 123.667 92.7336C121.422 95.9683 106.185 104.329 106.185 104.329L103.428 98.8318V98.8141Z" fill="#C9DBE4"/>
<path d="M102.846 98.8141C102.846 98.8141 111.1 73.0781 118.454 67.4926C118.454 67.4926 119.832 66.4143 120.221 66.9093C120.61 67.4042 121.105 68.6768 119.231 73.2018C117.358 77.7269 110.782 96.6753 110.782 96.6753L105.586 100.599L102.828 98.8318L102.846 98.8141Z" fill="#E1EBF0"/>
<path d="M102.049 98.2308C100.9 98.1424 96.7467 101.377 97.9309 104.718C99.1152 108.059 106.079 105.213 106.079 105.213C106.079 105.213 107.264 98.6373 102.049 98.2485V98.2308Z" fill="#F8F8F8"/>
<path d="M36.8435 68.9597L30.8514 63.9574C30.8514 63.9574 1.19134 53.8468 0.307554 54.6246C-0.576236 55.4023 0.501988 56.3922 2.95893 57.5764C5.41586 58.7607 34.9699 72.4064 34.9699 72.4064L36.8435 68.9773V68.9597Z" fill="#E1EBF0"/>
<path d="M54.5183 161.369L48.9151 70.2323L42.4281 73.7675L40.9609 161.563H40.9963C41.0139 163.119 44.0365 164.356 47.7484 164.356C51.4604 164.356 54.5183 163.101 54.5183 161.546C54.5183 161.493 54.4829 161.422 54.4829 161.369H54.5359H54.5183Z" fill="#E1EBF0"/>
<path d="M52.3098 125.363L48.916 70.25L42.429 73.7852L41.8457 109.013C44.0198 113.061 48.7746 121.563 52.3098 125.363Z" fill="#C9DBE4"/>
<path d="M41.8633 74.9519L43.0475 84.3731C43.0475 84.3731 63.5692 120.502 64.559 120.997C65.5489 121.492 67.4048 121.881 66.6271 119.619C65.8493 117.356 43.348 73.856 43.348 73.856L41.8809 74.9342L41.8633 74.9519Z" fill="#E1EBF0"/>
<path d="M40.5723 68.3763C40.5723 68.3763 50.4884 62.7731 57.8592 59.6445C57.8592 59.6445 63.0559 59.0612 60.8111 62.2959C58.5663 65.5305 43.3297 73.8912 43.3297 73.8912L40.5723 68.394V68.3763Z" fill="#C9DBE4"/>
<path d="M39.9023 68.1819C39.9023 68.1819 48.2454 42.658 55.6162 37.0548C55.6162 37.0548 56.9949 35.9766 57.3838 36.4715C57.7726 36.9664 58.2675 38.2391 56.3939 42.7641C54.5203 47.2891 47.9449 66.2376 47.9449 66.2376L42.7482 70.1616L39.9023 68.1996V68.1819Z" fill="#E1EBF0"/>
<path d="M39.2116 67.793C38.0626 67.7047 33.9088 70.9393 35.0931 74.2801C36.2773 77.6208 43.2416 74.775 43.2416 74.775C43.2416 74.775 44.4259 68.1996 39.2116 67.8107V67.793Z" fill="#F8F8F8"/>
</svg>
