<svg width="90" height="90" viewBox="0 0 90 90" fill="none" xmlns="http://www.w3.org/2000/svg">
<path d="M38.7972 68.8837L31.9413 76.3917C31.6237 76.743 31.1713 76.9428 30.6972 76.9404C29.7659 76.9404 29.0127 76.1848 29.0127 75.2559C29.0127 74.8348 29.1691 74.4305 29.4531 74.12L36.309 66.612C40.821 61.6765 43.3212 55.2297 43.3164 48.5422V45.4452C43.3164 44.5139 44.0696 43.7607 45.0009 43.7607C45.9322 43.7607 46.6854 44.5139 46.6854 45.4452V48.5422C46.6926 56.0695 43.8772 63.3273 38.7972 68.8813V68.8837ZM60.1469 22.0452C47.2245 13.6829 29.9729 17.3791 21.6106 30.2992C21.1028 31.0789 21.3242 32.1233 22.1063 32.6286C22.886 33.1364 23.9303 32.915 24.4357 32.1329C28.9525 25.1495 36.7012 20.931 45.0202 20.9358C58.5515 20.9406 69.5151 31.9139 69.5103 45.4452V48.5422C69.5103 53.461 68.8293 58.358 67.4817 63.089C67.2266 63.9818 67.744 64.9155 68.6368 65.1706C68.7884 65.2139 68.9424 65.2356 69.0988 65.2356C69.852 65.2356 70.5114 64.735 70.7183 64.0131C72.1501 58.9813 72.8769 53.7738 72.8745 48.5422V45.4452C72.8745 35.9904 68.0857 27.1805 60.1469 22.0428V22.0452ZM20.494 45.4476C20.494 43.7679 20.6648 42.093 21.009 40.4471C21.1991 39.535 20.6143 38.6447 19.7023 38.4545C18.7902 38.2644 17.8999 38.8492 17.7098 39.7612C17.3223 41.6334 17.125 43.5393 17.125 45.45V48.5471C17.125 49.4759 17.8806 50.2316 18.8095 50.2316C19.7408 50.2316 20.494 49.4783 20.494 48.5471V45.45V45.4476ZM39.613 73.3717L34.5812 78.8823C34.2996 79.1928 34.1432 79.5971 34.1432 80.0158C34.1432 80.9446 34.8964 81.7003 35.8253 81.7003C36.2993 81.7003 36.7517 81.5029 37.0694 81.154L42.1012 75.6433C42.7052 74.9623 42.6571 73.9251 41.9953 73.2995C41.3167 72.6618 40.2507 72.693 39.613 73.3717ZM47.2221 69.466C51.4309 63.3008 53.6809 56.0094 53.6713 48.5447V45.4476C53.6664 43.0436 52.6702 40.7503 50.9159 39.1091C49.164 37.4583 46.8009 36.616 44.3993 36.7869C39.7862 37.1791 36.2584 41.0655 36.3138 45.6955V48.5422C36.3138 51.9353 35.4426 55.273 33.7822 58.2329C33.2889 58.9861 32.745 59.7056 32.1579 60.3866C31.3517 61.3925 30.1606 62.0158 28.8755 62.1096C27.6843 62.2011 26.5028 61.8377 25.5691 61.0869C23.5477 59.4626 23.2277 56.5075 24.852 54.4861C25.2178 54.0722 25.5402 53.6198 25.8146 53.1385C26.5172 51.7091 26.883 50.1377 26.8854 48.5447V45.4476C26.9312 35.5861 34.8242 27.5559 44.6833 27.3417C45.6146 27.3345 46.3606 26.5741 46.3533 25.6428C46.3461 24.7115 45.5857 23.9655 44.6544 23.9727H44.6255C32.9328 24.2254 23.5694 33.75 23.5165 45.4452V48.5447C23.5165 49.6011 23.2806 50.643 22.8234 51.596C22.6381 51.8679 22.4384 52.1302 22.2266 52.3805C20.9416 53.9783 20.3159 56.007 20.4723 58.0524C20.8165 62.4922 24.6932 65.8155 29.133 65.4714C31.3445 65.3102 33.3876 64.2369 34.7761 62.5067C35.4884 61.6837 36.1381 60.8078 36.7181 59.8861C38.66 56.4209 39.6828 52.5176 39.6828 48.5447V45.6955C39.6226 42.8366 41.7812 40.4158 44.628 40.1487C44.7459 40.1414 44.8638 40.1366 44.9817 40.1366C47.9199 40.1318 50.3047 42.5118 50.3071 45.4476V48.5447C50.3143 55.3332 48.2713 61.9652 44.4451 67.5698C44.255 67.8489 44.1539 68.1786 44.1539 68.5155C44.1539 69.4468 44.9071 70.2 45.836 70.2024C46.3895 70.2024 46.9092 69.9257 47.2197 69.466H47.2221ZM56.8453 27.6738C56.802 27.6401 56.7563 27.6088 56.7082 27.5799C55.9164 27.0914 54.8793 27.3393 54.3908 28.131C53.9023 28.9227 54.1501 29.9599 54.9419 30.4484C60.0459 33.9353 63.0996 39.7155 63.1044 45.8952V48.5422C63.0996 56.6735 60.9723 64.6604 56.932 71.716C56.7876 71.9711 56.7106 72.2575 56.7082 72.5511C56.7082 73.4823 57.4614 74.238 58.3902 74.238C58.9942 74.238 59.5501 73.9179 59.8534 73.3957C64.1849 65.8299 66.4662 57.2607 66.4686 48.5422V45.9C66.4662 38.6086 62.8638 31.7888 56.8429 27.6738H56.8453ZM29.9175 45.4452V48.5398C29.9175 50.8404 29.3255 53.1 28.2017 55.1069C28.0598 55.3596 27.9852 55.646 27.9828 55.9348C27.9828 56.866 28.736 57.6192 29.6672 57.6217C30.2761 57.6217 30.8368 57.292 31.1352 56.7626C32.5453 54.2527 33.2841 51.4227 33.2865 48.5447V45.4476C33.2865 38.9816 38.5301 33.738 44.9961 33.738C51.4646 33.738 56.7082 38.9791 56.7082 45.4476C56.7082 46.3789 57.4614 47.1321 58.3926 47.1321C59.3239 47.1321 60.0771 46.3789 60.0771 45.4476C60.0723 37.1262 53.3271 30.3786 45.0057 30.3762C36.6771 30.3714 29.9223 37.119 29.9175 45.4476V45.4452ZM58.0943 53.9663C57.1798 53.7979 56.3015 54.4043 56.133 55.3211C54.8408 62.9086 51.3924 69.9642 46.1969 75.6433C45.913 75.9537 45.7565 76.358 45.7565 76.7791C45.7565 77.7104 46.5098 78.4636 47.441 78.4636C47.9151 78.4636 48.3675 78.2639 48.6852 77.915C54.3162 71.7594 58.0558 64.1118 59.4539 55.889C59.5959 54.9866 58.9918 54.1324 58.0943 53.9687V53.9663ZM63.7999 19.0853C65.4868 20.2091 67.0485 21.5134 68.4587 22.9717C68.7764 23.3037 69.2143 23.489 69.6739 23.489C70.1095 23.489 70.5306 23.3206 70.8434 23.0174C71.5124 22.3725 71.5317 21.3064 70.8868 20.6374C69.3106 19.0059 67.5635 17.5476 65.6745 16.2866C64.902 15.7693 63.8552 15.9762 63.3378 16.7487C62.8205 17.5211 63.0274 18.5679 63.7999 19.0853ZM22.3469 21.215C22.7368 21.215 23.1146 21.0754 23.4154 20.8275C29.4747 15.9906 37.0237 13.4037 44.7771 13.512C48.6804 13.5024 52.5595 14.1329 56.2557 15.3842C57.1028 15.6417 58.0028 15.1989 58.3181 14.3711C58.6501 13.5024 58.2122 12.5278 57.3435 12.1981C53.2959 10.8289 49.0509 10.1358 44.7771 10.1479C36.2416 10.042 27.9322 12.8984 21.2688 18.2334C20.8814 18.5535 20.6552 19.0324 20.6552 19.5353C20.6552 20.4666 21.4108 21.2198 22.3421 21.2174L22.3469 21.215Z" fill="#FCA311"/>
<path d="M80.1144 90H9.88558C4.42783 89.9952 0.00481283 85.5722 0 80.1144V9.88556C0.00481283 4.42781 4.42783 0.00481283 9.88558 0H80.1144C85.5722 0.00481283 89.9952 4.42781 90 9.88556V80.1144C89.9952 85.5722 85.5722 89.9952 80.1144 90ZM9.88558 3.36898C6.28799 3.3738 3.3738 6.28797 3.36898 9.88556V80.1144C3.3738 83.712 6.28799 86.6262 9.88558 86.631H80.1144C83.712 86.6262 86.6262 83.712 86.631 80.1144V9.88556C86.6262 6.28797 83.712 3.3738 80.1144 3.36898H9.88558Z" fill="#00344C"/>
</svg>
