<svg width="90" height="90" viewBox="0 0 90 90" fill="none" xmlns="http://www.w3.org/2000/svg">
<path d="M65.49 30.4477C65.49 27.8396 64.3066 25.5092 62.4472 23.96C62.4759 23.8317 62.5027 23.7054 62.5257 23.5751C63.2036 19.6822 60.5955 15.9768 56.7006 15.299C56.3961 13.702 55.5095 12.2734 54.2132 11.2911C51.3178 9.09663 47.1932 9.66344 44.9987 12.5588C44.0164 11.2624 42.5878 10.3777 40.9908 10.0732C37.4234 9.39153 33.9785 11.7315 33.2968 15.3009C32.8219 15.3832 32.3546 15.5134 31.9066 15.6915C28.5593 17.0071 26.7612 20.563 27.5521 23.9639C26.8991 24.5077 26.3227 25.1511 25.8498 25.8864C23.5193 29.5113 24.3178 34.2488 27.5521 36.9334C27.5234 37.0617 27.4966 37.192 27.4736 37.3222C26.7976 41.2151 29.4057 44.9185 33.2987 45.5926C33.6032 47.1896 34.4898 48.6181 35.7842 49.6005C38.6795 51.7949 42.8042 51.2281 44.9987 48.3328C46.2415 49.9739 48.1793 50.9371 50.2378 50.9371C53.3936 50.9332 56.1051 48.6928 56.7006 45.5926C58.6595 45.2537 60.3868 44.1143 61.4706 42.4483C62.5755 40.7517 62.8666 38.7622 62.4434 36.9354C64.3583 35.3441 65.4861 32.9734 65.4861 30.4496L65.49 30.4477ZM39.7615 48.2543C37.6091 48.2543 35.8627 46.5098 35.8627 44.3556C35.8627 43.6145 35.2634 43.0151 34.5223 43.0151C33.0076 43.0151 31.5964 42.2492 30.771 40.9815C29.4249 38.9115 30.0108 36.1407 32.0827 34.7945C32.0961 34.7868 32.1076 34.7792 32.121 34.7696C32.7338 34.3541 32.8947 33.5211 32.4791 32.9083C32.0636 32.2956 31.2306 32.1347 30.6178 32.5503C29.871 33.0366 29.2334 33.6513 28.7221 34.3579C27.7493 33.3066 27.1902 31.9145 27.1902 30.4458C27.1902 27.2671 29.7676 24.6896 32.9464 24.6896C33.6874 24.6896 34.2868 24.0903 34.2868 23.3492C34.2868 22.6081 33.6874 22.0088 32.9464 22.0088C31.9449 22.0088 30.9702 22.1907 30.0568 22.5239C30.0549 22.4664 30.0491 22.4109 30.0491 22.3534C30.0491 19.8813 32.0502 17.8783 34.5223 17.8764C35.2634 17.8764 35.8627 17.2771 35.8627 16.536C35.8627 14.3837 37.6091 12.6373 39.7615 12.6373C41.9138 12.6373 43.6602 14.3817 43.6602 16.536V44.3575C43.6602 46.5098 41.9157 48.2562 39.7615 48.2562V48.2543ZM61.2791 34.356C60.7774 33.6609 60.1436 33.0443 59.3834 32.5483C59.3719 32.5407 59.3585 32.5311 59.3451 32.5234C58.7189 32.129 57.8917 32.3186 57.4972 32.9447C57.1027 33.5709 57.2923 34.3981 57.9185 34.7926C59.1861 35.6179 59.9521 37.0292 59.9521 38.542C59.9521 41.0122 57.9491 43.0151 55.4789 43.0151C54.7378 43.0151 54.1385 43.6145 54.1385 44.3556C54.1385 46.5079 52.394 48.2543 50.2398 48.2543C48.0874 48.2543 46.341 46.5098 46.341 44.3556V16.5379C46.341 14.3856 48.0855 12.6392 50.2398 12.6392C52.3921 12.6392 54.1385 14.3837 54.1385 16.5379C54.1385 17.279 54.7378 17.8783 55.4789 17.8783C56.0361 17.8783 56.5895 17.9837 57.1104 18.1866C58.9295 18.899 60.0191 20.6722 59.9483 22.522C59.0463 22.1926 58.0698 22.0126 57.0529 22.0126C56.3119 22.0126 55.7125 22.612 55.7125 23.353C55.7125 24.0941 56.3119 24.6934 57.0529 24.6934C59.0119 24.6934 60.8349 25.6892 61.8938 27.3379C63.3434 29.5937 63.0198 32.4794 61.2772 34.3598L61.2791 34.356Z" fill="#FCA311"/>
<path d="M45.8674 0.0123496C37.394 -0.228927 29.2021 3.07426 23.266 9.12533C11.4913 21.1298 11.677 40.4051 23.6815 52.1798C26.3145 54.7668 28.2428 57.9819 29.2806 61.5245L30.2611 64.8736V82.2953C30.2611 83.0364 30.8623 83.6357 31.6015 83.6357H33.5643L34.604 87.343C35.0483 88.9113 36.4768 89.9951 38.1064 89.9989H51.8936C53.5213 89.9932 54.9498 88.9094 55.394 87.343L56.4338 83.6357H58.4004C59.1396 83.6357 59.7389 83.0345 59.7389 82.2953V64.8813L60.7213 61.5245C61.7515 57.9934 63.6702 54.786 66.2936 52.2066C71.9368 46.6879 75.2151 39.193 75.4372 31.3036C75.914 14.4966 62.6745 0.487243 45.8674 0.0104348V0.0123496ZM32.9419 71.8917H57.0581V75.0838H32.9419V71.8917ZM57.0581 69.2109H32.9419V66.0187H57.0581V69.2109ZM52.8128 86.6192C52.696 87.0309 52.3206 87.3162 51.8936 87.3181H38.1026C37.6755 87.3162 37.3002 87.0309 37.1834 86.6192L36.3466 83.6357H53.6477L52.8109 86.6192H52.8128ZM55.6985 80.9549C55.5109 80.9166 55.3251 80.9166 55.1489 80.9549H34.853C34.673 80.9166 34.4834 80.9147 34.2938 80.9549H32.9438V77.7647H57.06V80.9549H55.7023H55.6985ZM64.417 50.2898C61.4643 53.1889 59.3062 56.7985 58.1458 60.77L57.3932 63.3379H32.6068L31.8543 60.77C30.6862 56.7889 28.5185 53.1736 25.56 50.2668C25.4221 50.1328 25.2881 49.9968 25.154 49.8589C14.4306 38.8981 14.624 21.3175 25.5849 10.5941C36.5457 -0.129353 54.1264 0.0640509 64.8498 11.0249C75.5732 21.9858 75.3798 39.5664 64.4189 50.2898H64.417ZM90 30.4458C90 31.1868 89.4006 31.7862 88.6596 31.7862H80.8391C80.0981 31.7862 79.4987 31.1868 79.4987 30.4458C79.4987 29.7047 80.0981 29.1053 80.8391 29.1053H88.6596C89.4006 29.1053 90 29.7047 90 30.4458ZM9.16085 31.7862H1.34043C0.599362 31.7862 0 31.1868 0 30.4458C0 29.7047 0.599362 29.1053 1.34043 29.1053H9.16085C9.90192 29.1053 10.5013 29.7047 10.5013 30.4458C10.5013 31.1868 9.90192 31.7862 9.16085 31.7862ZM87.2885 45.8358C87.0951 46.3662 86.5915 46.7204 86.0266 46.7185C85.8696 46.7185 85.7145 46.6917 85.567 46.6381L78.2177 43.963C77.5226 43.7083 77.1645 42.9385 77.4172 42.2434C77.6719 41.5483 78.4417 41.1902 79.1368 41.443L86.4862 44.1181C87.1813 44.3709 87.5413 45.1387 87.2885 45.8358ZM2.70957 15.0538C2.96426 14.3587 3.73404 14.0006 4.42915 14.2534L11.7823 16.9285C12.4774 17.1813 12.8374 17.9492 12.5847 18.6462C12.3913 19.1766 11.8877 19.5309 11.3228 19.5289C11.1657 19.5289 11.0106 19.5021 10.8632 19.4485L3.51 16.7734C2.81489 16.5187 2.45681 15.7509 2.70957 15.0538ZM77.3349 18.1923C77.3349 17.6275 77.6872 17.1219 78.2177 16.9304L85.567 14.2553C86.2621 14.0006 87.0319 14.3587 87.2866 15.0558C87.5413 15.7509 87.1813 16.5206 86.4862 16.7753L79.1368 19.4504C78.9894 19.5041 78.8343 19.5309 78.6772 19.5309C77.9362 19.5309 77.3349 18.9334 77.3349 18.1923ZM12.5866 42.2453C12.8413 42.9404 12.4832 43.7102 11.7862 43.9649L4.43298 46.64C4.28553 46.6936 4.13043 46.7204 3.9734 46.7204C3.23234 46.7204 2.63106 46.123 2.63106 45.3819C2.63106 44.817 2.9834 44.3115 3.51383 44.12L10.867 41.4449C11.5621 41.1902 12.3319 41.5483 12.5866 42.2453Z" fill="#00344C"/>
</svg>
