<svg width="179" height="60" viewBox="0 0 179 60" fill="none" xmlns="http://www.w3.org/2000/svg">
<path d="M177.344 37.458C177.344 37.7152 177.259 37.9723 176.916 38.3152C176.573 38.658 176.401 38.7437 176.059 38.7437H171.944V34.3723H176.059C176.316 34.3723 176.573 34.458 176.916 34.8009C177.259 35.1437 177.344 35.3152 177.344 35.658V37.458ZM178.201 34.6295C178.03 34.3723 177.43 33.7723 177.173 33.6009C176.83 33.4295 176.487 33.3438 176.144 33.3438H170.83V45.0866H171.944V39.858H176.144C176.573 39.858 176.916 39.7723 177.173 39.6009C177.43 39.4295 178.03 38.8295 178.201 38.5723C178.373 38.2295 178.459 37.8866 178.459 37.458V35.7437C178.459 35.3152 178.373 34.9723 178.201 34.6295Z" fill="#00344C"/>
<path d="M109.029 41.2292L105 33.2578H102.771V45.0864H104.829V37.2864L108.857 45.0864H111V33.2578H109.029V41.2292Z" fill="#00344C"/>
<path d="M94.7152 40.6292L96.2581 35.8292L97.8009 40.6292H94.7152ZM95.1438 33.2578L91.1152 45.0864H93.2581L94.1152 42.6007H98.5724L99.4295 45.0864H101.572L97.5438 33.2578H95.1438Z" fill="#00344C"/>
<path d="M113.314 35.2292H118.457L113.314 43.4578V45.0864H121.029V43.115H115.886L121.029 34.9721V33.2578H113.314V35.2292Z" fill="#00344C"/>
<path d="M156.171 42.5985C156.171 42.8556 156 43.1128 155.571 43.5413C155.142 43.9699 154.885 44.1413 154.714 44.1413H151.714C151.457 44.1413 151.285 43.9699 150.857 43.5413C150.428 43.1128 150.257 42.8556 150.257 42.5985V35.8271C150.257 35.5699 150.428 35.3128 150.857 34.8842C151.285 34.4556 151.542 34.2842 151.714 34.2842H154.714C154.971 34.2842 155.142 34.4556 155.571 34.8842C156 35.3128 156.171 35.5699 156.171 35.8271V42.5985ZM155.914 33.6842C155.571 33.3413 155.228 33.1699 154.714 33.1699H151.628C151.028 33.1699 150.771 33.2556 150.257 33.7699C150.085 33.9414 149.742 34.2842 149.485 34.5413C149.142 34.8842 149.057 35.3128 149.057 35.8271V42.5985C149.057 43.1985 149.142 43.4556 149.657 43.9699C149.828 44.1413 150.171 44.4842 150.428 44.7414C150.771 45.0842 151.114 45.2556 151.628 45.2556H154.714C155.314 45.2556 155.571 45.1699 156.085 44.6556C156.257 44.4842 156.6 44.1414 156.857 43.8842C157.2 43.5414 157.285 43.1128 157.285 42.5985V35.8271C157.285 35.2271 157.2 34.9699 156.685 34.4556C156.6 34.3699 156.171 33.9413 155.914 33.6842Z" fill="#00344C"/>
<path d="M135.686 38.6578H131.829V39.7721H134.572V42.6007C134.572 42.8578 134.4 43.115 133.972 43.5435C133.543 43.9721 133.286 44.1435 133.115 44.1435H130.2C129.943 44.1435 129.772 43.9721 129.343 43.5435C128.915 43.115 128.743 42.8578 128.743 42.6007V35.8292C128.743 35.5721 128.915 35.315 129.343 34.8864C129.772 34.4578 130.029 34.2864 130.2 34.2864H133.2C133.629 34.2864 134.315 35.1435 134.572 35.6578L135.686 35.4007C135.515 35.0578 135.257 34.6292 135 34.3721C134.572 33.8578 133.972 33.2578 133.2 33.2578H130.2C129.6 33.2578 129.343 33.3435 128.829 33.8578C128.657 34.0292 128.315 34.3721 128.057 34.6292C127.715 34.9721 127.629 35.4007 127.629 35.915V42.6007C127.629 43.2007 127.715 43.4578 128.229 43.9721C128.4 44.1435 128.743 44.4864 129 44.7435C129.343 45.0864 129.686 45.2578 130.2 45.2578H133.2C133.8 45.2578 134.229 44.8292 134.829 44.2292L135 45.2578H136.029L135.772 43.115V38.6578H135.686Z" fill="#00344C"/>
<path d="M87.8568 37.715C87.8568 37.8864 87.771 37.9721 87.5996 38.2292C87.4282 38.4864 87.2568 38.4864 87.0853 38.4864H83.6568V35.315H87.0853C87.2568 35.315 87.3425 35.4007 87.5996 35.5721C87.771 35.8292 87.8568 35.915 87.8568 36.0864V37.715ZM88.5425 40.0292C88.7996 39.8578 89.3139 39.3435 89.4853 39.0864C89.7425 38.7435 89.9139 38.2292 89.9139 37.8007V35.8292C89.9139 35.4007 89.8282 34.9721 89.4853 34.6292C89.3139 34.3721 88.7996 33.8578 88.5425 33.6864C88.1996 33.4292 87.6853 33.2578 87.3425 33.2578H81.5996V45.0864H83.6568V40.4578H85.8853L88.0282 45.0864H90.3425L88.0282 40.2864C88.1996 40.2864 88.371 40.2007 88.5425 40.0292Z" fill="#00344C"/>
<path d="M166.715 42.6009C166.715 42.858 166.544 43.1152 166.115 43.5437C165.687 43.9723 165.43 44.1437 165.258 44.1437H162.687C162.43 44.1437 162.258 43.9723 161.83 43.5437C161.401 43.1152 161.23 42.858 161.23 42.6009V33.3438H160.115V42.6009C160.115 43.2009 160.201 43.458 160.715 43.9723C160.887 44.1437 161.23 44.4866 161.487 44.7437C161.83 45.0866 162.172 45.258 162.687 45.258H165.258C165.858 45.258 166.115 45.1723 166.63 44.658C166.801 44.4866 167.144 44.1437 167.401 43.8866C167.744 43.5437 167.83 43.1152 167.83 42.6009V33.3438H166.715V42.6009Z" fill="#00344C"/>
<path d="M80.0573 33.2578H77.5716L74.0573 38.1435H73.3716V33.2578H71.3145V45.0864H73.3716V40.115H74.0573L77.5716 45.0864H80.143L75.7716 39.0864L80.0573 33.2578Z" fill="#00344C"/>
<path d="M139.8 38.7437V34.3723H143.914C144.171 34.3723 144.428 34.458 144.771 34.8009C145.114 35.1437 145.2 35.3152 145.2 35.658V37.3723C145.2 37.6295 145.114 37.8866 144.771 38.2295C144.428 38.5723 144.257 38.658 143.914 38.658H139.8V38.7437ZM145.028 39.6009C145.286 39.4295 145.886 38.8295 146.057 38.5723C146.228 38.2295 146.314 37.8866 146.314 37.458V35.7437C146.314 35.3152 146.228 34.9723 146.057 34.6295C145.886 34.3723 145.286 33.7723 145.028 33.6009C144.686 33.4295 144.343 33.3438 144 33.3438H138.686V45.0866H139.8V39.858H143.057L145.543 45.0866H146.828L144.257 39.7723C144.514 39.7723 144.771 39.7723 145.028 39.6009Z" fill="#00344C"/>
<path d="M94.7993 22.7143H99.085V27.5143H101.142V15.7715H99.085V20.6572H94.7993V15.7715H92.7422V27.5143H94.7993V22.7143Z" fill="#00344C"/>
<path d="M118.543 15.7715H116.486V27.6001H118.543V15.7715Z" fill="#00344C"/>
<path d="M84.6852 17.9996C84.9423 17.7425 85.1137 17.571 85.1994 17.571H87.7709C87.9423 17.571 88.3709 17.9139 88.7137 18.5139L90.6852 17.9996C90.5994 17.7425 90.2566 17.2282 89.9994 16.8853C89.3994 16.1139 88.7137 15.5996 87.7709 15.5996H85.1137C84.428 15.5996 83.9994 15.771 83.4852 16.2853C83.3137 16.4568 82.8852 16.971 82.628 17.2282C82.3709 17.6568 82.2852 17.9996 82.2852 18.5996V24.6853C82.2852 25.371 82.4566 25.7996 82.8852 26.3139C83.0566 26.571 83.4852 26.9996 83.828 27.171C84.2566 27.5139 84.5994 27.6853 85.1994 27.6853H87.8566C88.7994 27.6853 89.4852 27.0853 90.0852 26.3996C90.3423 26.1425 90.6852 25.5425 90.7709 25.2853L88.7994 24.771C88.4566 25.371 88.028 25.7139 87.8566 25.7139H85.2852C85.1994 25.7139 85.028 25.5425 84.7709 25.2853C84.5137 25.0282 84.3423 24.8568 84.3423 24.771V18.5996C84.3423 18.5139 84.428 18.2568 84.6852 17.9996Z" fill="#00344C"/>
<path d="M139.971 15.7715H131.656V17.7429H134.828V27.5143H136.799V17.7429H139.971V15.7715Z" fill="#00344C"/>
<path d="M127.715 24.6001C127.715 24.6858 127.544 24.8572 127.287 25.1143C127.03 25.3715 126.858 25.5429 126.772 25.5429H123.172V17.6572H126.772C126.858 17.6572 127.03 17.8286 127.287 18.0858C127.544 18.3429 127.715 18.5143 127.715 18.6001V24.6001ZM129.344 25.9715C129.687 25.5429 129.772 25.2001 129.772 24.6001V18.7715C129.772 18.0858 129.601 17.6572 129.172 17.1429C129.001 16.8858 128.572 16.4572 128.23 16.2858C127.801 15.9429 127.458 15.7715 126.858 15.7715H121.115V27.6001H126.858C127.544 27.6001 127.972 27.4286 128.487 26.9143C128.658 26.7429 129.087 26.2286 129.344 25.9715Z" fill="#00344C"/>
<path d="M77.5727 25.2853C77.3155 25.5425 77.1441 25.7139 77.0584 25.7139H73.8869C73.7155 25.7139 73.2869 25.371 72.9441 24.771L70.9727 25.2853C71.0584 25.5425 71.4012 26.0568 71.6584 26.3996C72.2584 27.171 72.9441 27.6853 73.8869 27.6853H77.1441C77.8298 27.6853 78.2584 27.5139 78.7727 26.9996C78.9441 26.8282 79.3727 26.3139 79.6298 26.0568C79.9727 25.6282 80.0584 25.2853 80.0584 24.6853V23.4853C80.0584 22.6282 79.5441 21.5996 78.5155 21.3425L73.4584 19.7996C73.3727 19.7996 73.2869 19.6282 73.2869 19.4568V18.5139C73.2869 18.4282 73.4584 18.2568 73.7155 17.9996C73.9727 17.7425 74.1441 17.571 74.2298 17.571H76.9727C77.1441 17.571 77.5727 17.9139 77.9155 18.5139L79.8869 17.9996C79.8012 17.7425 79.4584 17.2282 79.2012 16.8853C78.6012 16.1139 77.9155 15.5996 76.9727 15.5996H74.1441C73.4584 15.5996 73.0298 15.771 72.5155 16.2853C72.3441 16.4568 71.9155 16.971 71.6584 17.2282C71.3155 17.6568 71.2298 17.9996 71.2298 18.5996V19.6282C71.2298 20.571 71.7441 21.5139 72.7727 21.771L77.8298 23.2282C77.9155 23.2282 78.0869 23.3996 78.0869 23.571V24.771C78.0012 24.771 77.8298 25.0282 77.5727 25.2853Z" fill="#00344C"/>
<path d="M113.915 27.5143V15.7715H111.601L108.858 21.8572L106.029 15.7715H103.715V27.5143H105.686V19.5429L108.001 24.5143H109.629L111.858 19.5429V27.5143H113.915Z" fill="#00344C"/>
<path d="M27.6857 15.6H19.3714C15.0857 15.6 11.6571 19.1143 11.6571 23.3143C11.6571 24.9429 12.1714 26.4857 13.1143 27.8571L18.7714 35.8286C18.9429 36.0857 19.0286 36.4286 19.0286 36.6857C19.0286 37.5429 18.3429 38.1429 17.4857 38.1429H8.4L8.31429 37.9714C7.37143 35.4857 6.85714 32.7429 6.85714 30C6.85714 18.0857 15.7714 8.22857 27.5143 6.94286H27.7714V7.02857L27.6857 15.6ZM19.3714 17.8286H29.8286V4.54286C15.8571 4.71429 4.62857 16.0286 4.62857 30C4.62857 33.6857 5.4 37.2857 6.94286 40.5429H17.5714C19.6286 40.5429 21.3429 38.8286 21.3429 36.7714C21.3429 36 21.0857 35.2286 20.6571 34.5429L14.9143 26.5714C14.2286 25.6286 13.8857 24.5143 13.8857 23.4C13.8857 20.3143 16.3714 17.8286 19.3714 17.8286ZM27.7714 52.9714H27.5143C21.8571 52.3714 16.6286 49.7143 12.8571 45.5143L12.5143 45.1714H17.4857C22.1143 45.1714 25.9714 41.4 25.9714 36.6857C25.9714 34.8857 25.4571 33.1714 24.4286 31.8L18.6857 23.8286C18.6 23.6571 18.5143 23.4857 18.5143 23.3143C18.5143 22.8857 18.8571 22.4571 19.3714 22.4571H27.7714V52.9714ZM29.7429 55.2857V20.2286H19.2857C17.5714 20.2286 16.2 21.6 16.2 23.3143C16.2 24 16.3714 24.6 16.8 25.1143L22.4571 33.0857C23.2286 34.1143 23.5714 35.4 23.5714 36.6857C23.5714 40.1143 20.8286 42.8571 17.4 42.8571H8.05714C12.6857 50.4857 20.9143 55.2857 29.7429 55.2857ZM34.0286 37.2857L34.8857 36.1714L34.9714 36.2571L44.0571 48.3429L43.8857 48.4286C40.9714 50.5714 37.7143 52.0286 34.2857 52.6286L34.0286 52.7143V52.4571V37.2857ZM32.0571 36.6V55.2C37.5429 54.7714 42.7714 52.4571 46.8857 48.8571L34.8857 32.9143L32.0571 36.6ZM34.0286 7.2L34.2857 7.28571C38.1429 8.05714 41.8286 9.77143 44.8286 12.2571L45 12.3429V12.4286L34.0286 26.9143V7.2ZM31.9714 32.9143L47.7429 12C43.5429 7.71429 37.9714 5.14286 32.0571 4.71429L31.9714 32.9143ZM53.0571 30C53.0571 34.9714 51.5143 39.6857 48.6 43.6286L48.4286 43.8857L48.3429 43.7143L38.7429 31.0286L38.8286 30.9429L49.2 17.2286L49.3714 17.4857C51.7714 21.1714 53.0571 25.4571 53.0571 30ZM55.2857 30C55.2857 24 53.1429 18.2571 49.2857 13.6286L36.2571 31.0286L48.5143 47.3143C52.8857 42.5143 55.2857 36.4286 55.2857 30ZM57.8571 30C57.8571 45.4286 45.3429 57.9429 30 57.9429C14.5714 57.8571 2.05714 45.3429 2.05714 30C2.05714 14.6571 14.5714 2.05714 29.9143 2.05714C45.3429 2.05714 57.8571 14.5714 57.8571 30ZM59.9143 30C59.9143 13.4571 46.4571 0 30 0C13.4571 0 0 13.4571 0 30C0 46.5429 13.4571 60 29.9143 60C46.4571 59.9143 59.9143 46.4571 59.9143 30Z" fill="#00344C"/>
</svg>
