<svg width="179" height="60" viewBox="0 0 179 60" fill="none" xmlns="http://www.w3.org/2000/svg">
<path d="M177.346 37.458C177.346 37.7152 177.261 37.9723 176.918 38.3152C176.575 38.658 176.403 38.7437 176.061 38.7437H171.946V34.3723H176.061C176.318 34.3723 176.575 34.458 176.918 34.8009C177.261 35.1437 177.346 35.3152 177.346 35.658V37.458ZM178.203 34.6295C178.032 34.3723 177.432 33.7723 177.175 33.6009C176.832 33.4295 176.489 33.3438 176.146 33.3438H170.832V45.0866H171.946V39.858H176.146C176.575 39.858 176.918 39.7723 177.175 39.6009C177.432 39.4295 178.032 38.8295 178.203 38.5723C178.375 38.2295 178.461 37.8866 178.461 37.458V35.7437C178.461 35.3152 178.375 34.9723 178.203 34.6295Z" fill="white"/>
<path d="M109.031 41.2292L105.002 33.2578H102.773V45.0864H104.831V37.2864L108.859 45.0864H111.002V33.2578H109.031V41.2292Z" fill="white"/>
<path d="M94.7172 40.6292L96.26 35.8292L97.8029 40.6292H94.7172ZM95.1458 33.2578L91.1172 45.0864H93.26L94.1172 42.6007H98.5743L99.4315 45.0864H101.574L97.5458 33.2578H95.1458Z" fill="white"/>
<path d="M113.316 35.2292H118.459L113.316 43.4578V45.0864H121.031V43.115H115.888L121.031 34.9721V33.2578H113.316V35.2292Z" fill="white"/>
<path d="M156.173 42.5985C156.173 42.8556 156.001 43.1128 155.573 43.5413C155.144 43.9699 154.887 44.1413 154.716 44.1413H151.716C151.459 44.1413 151.287 43.9699 150.859 43.5413C150.43 43.1128 150.259 42.8556 150.259 42.5985V35.8271C150.259 35.5699 150.43 35.3128 150.859 34.8842C151.287 34.4556 151.544 34.2842 151.716 34.2842H154.716C154.973 34.2842 155.144 34.4556 155.573 34.8842C156.001 35.3128 156.173 35.5699 156.173 35.8271V42.5985ZM155.916 33.6842C155.573 33.3413 155.23 33.1699 154.716 33.1699H151.63C151.03 33.1699 150.773 33.2556 150.259 33.7699C150.087 33.9414 149.744 34.2842 149.487 34.5413C149.144 34.8842 149.059 35.3128 149.059 35.8271V42.5985C149.059 43.1985 149.144 43.4556 149.659 43.9699C149.83 44.1413 150.173 44.4842 150.43 44.7414C150.773 45.0842 151.116 45.2556 151.63 45.2556H154.716C155.316 45.2556 155.573 45.1699 156.087 44.6556C156.259 44.4842 156.601 44.1414 156.859 43.8842C157.201 43.5414 157.287 43.1128 157.287 42.5985V35.8271C157.287 35.2271 157.201 34.9699 156.687 34.4556C156.601 34.3699 156.173 33.9413 155.916 33.6842Z" fill="white"/>
<path d="M135.688 38.6578H131.831V39.7721H134.574V42.6007C134.574 42.8578 134.402 43.115 133.974 43.5435C133.545 43.9721 133.288 44.1435 133.117 44.1435H130.202C129.945 44.1435 129.774 43.9721 129.345 43.5435C128.917 43.115 128.745 42.8578 128.745 42.6007V35.8292C128.745 35.5721 128.917 35.315 129.345 34.8864C129.774 34.4578 130.031 34.2864 130.202 34.2864H133.202C133.631 34.2864 134.317 35.1435 134.574 35.6578L135.688 35.4007C135.517 35.0578 135.259 34.6292 135.002 34.3721C134.574 33.8578 133.974 33.2578 133.202 33.2578H130.202C129.602 33.2578 129.345 33.3435 128.831 33.8578C128.659 34.0292 128.317 34.3721 128.059 34.6292C127.717 34.9721 127.631 35.4007 127.631 35.915V42.6007C127.631 43.2007 127.717 43.4578 128.231 43.9721C128.402 44.1435 128.745 44.4864 129.002 44.7435C129.345 45.0864 129.688 45.2578 130.202 45.2578H133.202C133.802 45.2578 134.231 44.8292 134.831 44.2292L135.002 45.2578H136.031L135.774 43.115V38.6578H135.688Z" fill="white"/>
<path d="M87.8587 37.715C87.8587 37.8864 87.773 37.9721 87.6016 38.2292C87.4301 38.4864 87.2587 38.4864 87.0873 38.4864H83.6587V35.315H87.0873C87.2587 35.315 87.3444 35.4007 87.6016 35.5721C87.773 35.8292 87.8587 35.915 87.8587 36.0864V37.715ZM88.5444 40.0292C88.8016 39.8578 89.3159 39.3435 89.4873 39.0864C89.7444 38.7435 89.9159 38.2292 89.9159 37.8007V35.8292C89.9159 35.4007 89.8301 34.9721 89.4873 34.6292C89.3159 34.3721 88.8016 33.8578 88.5444 33.6864C88.2016 33.4292 87.6873 33.2578 87.3444 33.2578H81.6016V45.0864H83.6587V40.4578H85.8873L88.0301 45.0864H90.3444L88.0301 40.2864C88.2016 40.2864 88.373 40.2007 88.5444 40.0292Z" fill="white"/>
<path d="M166.717 42.6009C166.717 42.858 166.546 43.1152 166.117 43.5437C165.689 43.9723 165.431 44.1437 165.26 44.1437H162.689C162.431 44.1437 162.26 43.9723 161.831 43.5437C161.403 43.1152 161.231 42.858 161.231 42.6009V33.3438H160.117V42.6009C160.117 43.2009 160.203 43.458 160.717 43.9723C160.889 44.1437 161.231 44.4866 161.489 44.7437C161.831 45.0866 162.174 45.258 162.689 45.258H165.26C165.86 45.258 166.117 45.1723 166.631 44.658C166.803 44.4866 167.146 44.1437 167.403 43.8866C167.746 43.5437 167.831 43.1152 167.831 42.6009V33.3438H166.717V42.6009Z" fill="white"/>
<path d="M80.0593 33.2578H77.5736L74.0593 38.1435H73.3736V33.2578H71.3164V45.0864H73.3736V40.115H74.0593L77.5736 45.0864H80.145L75.7736 39.0864L80.0593 33.2578Z" fill="white"/>
<path d="M139.802 38.7437V34.3723H143.916C144.173 34.3723 144.43 34.458 144.773 34.8009C145.116 35.1437 145.202 35.3152 145.202 35.658V37.3723C145.202 37.6295 145.116 37.8866 144.773 38.2295C144.43 38.5723 144.259 38.658 143.916 38.658H139.802V38.7437ZM145.03 39.6009C145.287 39.4295 145.887 38.8295 146.059 38.5723C146.23 38.2295 146.316 37.8866 146.316 37.458V35.7437C146.316 35.3152 146.23 34.9723 146.059 34.6295C145.887 34.3723 145.287 33.7723 145.03 33.6009C144.687 33.4295 144.345 33.3438 144.002 33.3438H138.688V45.0866H139.802V39.858H143.059L145.545 45.0866H146.83L144.259 39.7723C144.516 39.7723 144.773 39.7723 145.03 39.6009Z" fill="white"/>
<path d="M94.8013 22.7143H99.087V27.5143H101.144V15.7715H99.087V20.6572H94.8013V15.7715H92.7441V27.5143H94.8013V22.7143Z" fill="white"/>
<path d="M118.545 15.7715H116.488V27.6001H118.545V15.7715Z" fill="white"/>
<path d="M84.6871 17.9996C84.9443 17.7425 85.1157 17.571 85.2014 17.571H87.7728C87.9443 17.571 88.3728 17.9139 88.7157 18.5139L90.6871 17.9996C90.6014 17.7425 90.2585 17.2282 90.0014 16.8853C89.4014 16.1139 88.7157 15.5996 87.7728 15.5996H85.1157C84.43 15.5996 84.0014 15.771 83.4871 16.2853C83.3157 16.4568 82.8871 16.971 82.63 17.2282C82.3728 17.6568 82.2871 17.9996 82.2871 18.5996V24.6853C82.2871 25.371 82.4585 25.7996 82.8871 26.3139C83.0585 26.571 83.4871 26.9996 83.83 27.171C84.2585 27.5139 84.6014 27.6853 85.2014 27.6853H87.8585C88.8014 27.6853 89.4871 27.0853 90.0871 26.3996C90.3443 26.1425 90.6871 25.5425 90.7728 25.2853L88.8014 24.771C88.4585 25.371 88.03 25.7139 87.8585 25.7139H85.2871C85.2014 25.7139 85.03 25.5425 84.7728 25.2853C84.5157 25.0282 84.3443 24.8568 84.3443 24.771V18.5996C84.3443 18.5139 84.43 18.2568 84.6871 17.9996Z" fill="white"/>
<path d="M139.972 15.7715H131.658V17.7429H134.83V27.5143H136.801V17.7429H139.972V15.7715Z" fill="white"/>
<path d="M127.717 24.6001C127.717 24.6858 127.546 24.8572 127.289 25.1143C127.031 25.3715 126.86 25.5429 126.774 25.5429H123.174V17.6572H126.774C126.86 17.6572 127.031 17.8286 127.289 18.0858C127.546 18.3429 127.717 18.5143 127.717 18.6001V24.6001ZM129.346 25.9715C129.689 25.5429 129.774 25.2001 129.774 24.6001V18.7715C129.774 18.0858 129.603 17.6572 129.174 17.1429C129.003 16.8858 128.574 16.4572 128.231 16.2858C127.803 15.9429 127.46 15.7715 126.86 15.7715H121.117V27.6001H126.86C127.546 27.6001 127.974 27.4286 128.489 26.9143C128.66 26.7429 129.089 26.2286 129.346 25.9715Z" fill="white"/>
<path d="M77.5746 25.2853C77.3175 25.5425 77.146 25.7139 77.0603 25.7139H73.8889C73.7175 25.7139 73.2889 25.371 72.946 24.771L70.9746 25.2853C71.0603 25.5425 71.4032 26.0568 71.6603 26.3996C72.2603 27.171 72.946 27.6853 73.8889 27.6853H77.146C77.8318 27.6853 78.2603 27.5139 78.7746 26.9996C78.946 26.8282 79.3746 26.3139 79.6318 26.0568C79.9746 25.6282 80.0603 25.2853 80.0603 24.6853V23.4853C80.0603 22.6282 79.546 21.5996 78.5175 21.3425L73.4603 19.7996C73.3746 19.7996 73.2889 19.6282 73.2889 19.4568V18.5139C73.2889 18.4282 73.4603 18.2568 73.7175 17.9996C73.9746 17.7425 74.146 17.571 74.2317 17.571H76.9746C77.146 17.571 77.5746 17.9139 77.9175 18.5139L79.8889 17.9996C79.8032 17.7425 79.4603 17.2282 79.2032 16.8853C78.6032 16.1139 77.9175 15.5996 76.9746 15.5996H74.146C73.4603 15.5996 73.0317 15.771 72.5175 16.2853C72.346 16.4568 71.9175 16.971 71.6603 17.2282C71.3175 17.6568 71.2317 17.9996 71.2317 18.5996V19.6282C71.2317 20.571 71.746 21.5139 72.7746 21.771L77.8318 23.2282C77.9175 23.2282 78.0889 23.3996 78.0889 23.571V24.771C78.0032 24.771 77.8318 25.0282 77.5746 25.2853Z" fill="white"/>
<path d="M113.917 27.5143V15.7715H111.603L108.86 21.8572L106.031 15.7715H103.717V27.5143H105.688V19.5429L108.003 24.5143H109.631L111.86 19.5429V27.5143H113.917Z" fill="white"/>
<path d="M27.6877 15.6H19.3734C15.0877 15.6 11.6591 19.1143 11.6591 23.3143C11.6591 24.9429 12.1734 26.4857 13.1162 27.8571L18.7734 35.8286C18.9448 36.0857 19.0305 36.4286 19.0305 36.6857C19.0305 37.5429 18.3448 38.1429 17.4877 38.1429H8.40195L8.31624 37.9714C7.37338 35.4857 6.8591 32.7429 6.8591 30C6.8591 18.0857 15.7734 8.22857 27.5162 6.94286H27.7734V7.02857L27.6877 15.6ZM19.3734 17.8286H29.8305V4.54286C15.8591 4.71429 4.63052 16.0286 4.63052 30C4.63052 33.6857 5.40195 37.2857 6.94481 40.5429H17.5734C19.6305 40.5429 21.3448 38.8286 21.3448 36.7714C21.3448 36 21.0877 35.2286 20.6591 34.5429L14.9162 26.5714C14.2305 25.6286 13.8877 24.5143 13.8877 23.4C13.8877 20.3143 16.3734 17.8286 19.3734 17.8286ZM27.7734 52.9714H27.5162C21.8591 52.3714 16.6305 49.7143 12.8591 45.5143L12.5162 45.1714H17.4877C22.1162 45.1714 25.9734 41.4 25.9734 36.6857C25.9734 34.8857 25.4591 33.1714 24.4305 31.8L18.6877 23.8286C18.602 23.6571 18.5162 23.4857 18.5162 23.3143C18.5162 22.8857 18.8591 22.4571 19.3734 22.4571H27.7734V52.9714ZM29.7448 55.2857V20.2286H19.2877C17.5734 20.2286 16.202 21.6 16.202 23.3143C16.202 24 16.3734 24.6 16.802 25.1143L22.4591 33.0857C23.2305 34.1143 23.5734 35.4 23.5734 36.6857C23.5734 40.1143 20.8305 42.8571 17.402 42.8571H8.0591C12.6877 50.4857 20.9162 55.2857 29.7448 55.2857ZM34.0305 37.2857L34.8877 36.1714L34.9734 36.2571L44.0591 48.3429L43.8877 48.4286C40.9734 50.5714 37.7162 52.0286 34.2877 52.6286L34.0305 52.7143V52.4571V37.2857ZM32.0591 36.6V55.2C37.5448 54.7714 42.7734 52.4571 46.8877 48.8571L34.8877 32.9143L32.0591 36.6ZM34.0305 7.2L34.2877 7.28571C38.1448 8.05714 41.8305 9.77143 44.8305 12.2571L45.002 12.3429V12.4286L34.0305 26.9143V7.2ZM31.9734 32.9143L47.7448 12C43.5448 7.71429 37.9734 5.14286 32.0591 4.71429L31.9734 32.9143ZM53.0591 30C53.0591 34.9714 51.5162 39.6857 48.602 43.6286L48.4305 43.8857L48.3448 43.7143L38.7448 31.0286L38.8305 30.9429L49.202 17.2286L49.3734 17.4857C51.7734 21.1714 53.0591 25.4571 53.0591 30ZM55.2877 30C55.2877 24 53.1448 18.2571 49.2877 13.6286L36.2591 31.0286L48.5162 47.3143C52.8877 42.5143 55.2877 36.4286 55.2877 30ZM57.8591 30C57.8591 45.4286 45.3448 57.9429 30.002 57.9429C14.5734 57.8571 2.0591 45.3429 2.0591 30C2.0591 14.6571 14.5734 2.05714 29.9162 2.05714C45.3448 2.05714 57.8591 14.5714 57.8591 30ZM59.9162 30C59.9162 13.4571 46.4591 0 30.002 0C13.4591 0 0.00195312 13.4571 0.00195312 30C0.00195312 46.5429 13.4591 60 29.9162 60C46.4591 59.9143 59.9162 46.4571 59.9162 30Z" fill="white"/>
</svg>
