<svg width="70" height="70" viewBox="0 0 70 70" fill="none" xmlns="http://www.w3.org/2000/svg">
<path d="M9.70236 38.0908H3.68106C2.70515 38.092 1.76954 38.4802 1.07947 39.1703C0.389394 39.8604 0.00118869 40.796 0 41.7719V66.319C0.00118869 67.2949 0.389394 68.2305 1.07947 68.9206C1.76954 69.6107 2.70515 69.9989 3.68106 70.0001H9.7061C10.682 69.9989 11.6176 69.6107 12.3077 68.9206C12.9978 68.2305 13.386 67.2949 13.3872 66.319V41.7719C13.386 40.7953 12.9973 39.8592 12.3064 39.169C11.6155 38.4788 10.6789 38.091 9.70236 38.0908ZM10.7632 66.319C10.7628 66.6002 10.6509 66.8698 10.452 67.0687C10.2532 67.2675 9.98359 67.3794 9.70236 67.3798H3.68106C3.39983 67.3794 3.13024 67.2675 2.93138 67.0687C2.73252 66.8698 2.62063 66.6002 2.62024 66.319V41.7719C2.62063 41.4907 2.73252 41.2211 2.93138 41.0222C3.13024 40.8233 3.39983 40.7115 3.68106 40.7111H9.7061C9.98733 40.7115 10.2569 40.8233 10.4558 41.0222C10.6546 41.2211 10.7665 41.4907 10.7669 41.7719L10.7632 66.319Z" fill="#00344C"/>
<path d="M28.5577 43.5574H22.5326C21.5566 43.5584 20.6209 43.9465 19.9308 44.6366C19.2407 45.3267 18.8526 46.2625 18.8516 47.2384V66.319C18.8526 67.295 19.2407 68.2307 19.9308 68.9208C20.6209 69.6109 21.5566 69.9991 22.5326 70.0001H28.5577C29.5336 69.9989 30.4692 69.6107 31.1593 68.9206C31.8493 68.2305 32.2375 67.2949 32.2387 66.319V47.2384C32.2375 46.2625 31.8493 45.3269 31.1593 44.6368C30.4692 43.9468 29.5336 43.5586 28.5577 43.5574ZM29.6185 66.316C29.6181 66.5972 29.5062 66.8668 29.3073 67.0657C29.1085 67.2645 28.8389 67.3764 28.5577 67.3768H22.5326C22.2514 67.3764 21.9818 67.2645 21.7829 67.0657C21.5841 66.8668 21.4722 66.5972 21.4718 66.316V47.2384C21.472 46.9571 21.5838 46.6874 21.7827 46.4885C21.9816 46.2896 22.2513 46.1778 22.5326 46.1776H28.5577C28.839 46.1778 29.1087 46.2896 29.3076 46.4885C29.5065 46.6874 29.6183 46.9571 29.6185 47.2384V66.316Z" fill="#00344C"/>
<path d="M47.4143 33.429H41.3893C40.4135 33.4301 39.4779 33.8184 38.788 34.5085C38.098 35.1986 37.71 36.1342 37.709 37.11V66.3182C37.71 67.294 38.098 68.2296 38.788 68.9197C39.4779 69.6098 40.4135 69.998 41.3893 69.9992H47.4143C48.3903 69.9982 49.326 69.6101 50.0162 68.92C50.7063 68.2299 51.0944 67.2941 51.0954 66.3182V37.1108C51.0946 36.1347 50.7066 35.1988 50.0164 34.5085C49.3263 33.8182 48.3904 33.4299 47.4143 33.429ZM48.4752 66.3182C48.4748 66.5994 48.3629 66.869 48.164 67.0678C47.9652 67.2667 47.6956 67.3786 47.4143 67.379H41.3893C41.1081 67.3786 40.8386 67.2667 40.6399 67.0678C40.4411 66.8689 40.3294 66.5993 40.3292 66.3182V37.1108C40.3292 36.8295 40.4409 36.5597 40.6396 36.3606C40.8384 36.1616 41.108 36.0496 41.3893 36.0492H47.4143C47.6956 36.0496 47.9652 36.1615 48.164 36.3603C48.3629 36.5592 48.4748 36.8288 48.4752 37.11V66.3182Z" fill="#00344C"/>
<path d="M66.2664 19.7334H60.2436C59.2677 19.7348 58.3322 20.1231 57.6422 20.8131C56.9522 21.5031 56.5639 22.4386 56.5625 23.4145V66.319C56.5637 67.2949 56.9519 68.2305 57.642 68.9206C58.332 69.6106 59.2676 69.9988 60.2436 70H66.2664C67.2423 69.999 68.1781 69.6109 68.8682 68.9208C69.5583 68.2306 69.9464 67.2949 69.9474 66.319V23.4145C69.9462 22.4385 69.558 21.5029 68.868 20.8129C68.1779 20.1228 67.2423 19.7346 66.2664 19.7334ZM67.3272 66.319C67.3268 66.6002 67.2149 66.8698 67.016 67.0686C66.8172 67.2675 66.5476 67.3794 66.2664 67.3798H60.2436C59.9623 67.3794 59.6927 67.2675 59.4939 67.0686C59.295 66.8698 59.1831 66.6002 59.1827 66.319V23.4145C59.1831 23.1332 59.295 22.8636 59.4939 22.6648C59.6927 22.4659 59.9623 22.354 60.2436 22.3536H66.2664C66.5476 22.354 66.8172 22.4659 67.016 22.6648C67.2149 22.8636 67.3268 23.1332 67.3272 23.4145V66.319Z" fill="#00344C"/>
<path d="M6.69033 18.377C5.6994 18.3768 4.73069 18.6705 3.9067 19.221C3.08272 19.7714 2.44047 20.5538 2.06119 21.4693C1.68191 22.3848 1.58263 23.3922 1.77592 24.364C1.9692 25.3359 2.44636 26.2287 3.14705 26.9294C3.84775 27.6301 4.74049 28.1072 5.71239 28.3005C6.68428 28.4938 7.69166 28.3945 8.60713 28.0152C9.5226 27.636 10.305 26.9937 10.8555 26.1697C11.4059 25.3457 11.6996 24.377 11.6995 23.3861C11.6977 22.0581 11.1694 20.7851 10.2304 19.8461C9.29135 18.9071 8.01829 18.3787 6.69033 18.377ZM6.69033 25.7758C6.21767 25.7759 5.75558 25.6359 5.36251 25.3734C4.96943 25.1109 4.66303 24.7377 4.48204 24.3011C4.30106 23.8645 4.25363 23.384 4.34575 22.9204C4.43787 22.4568 4.66541 22.0309 4.99958 21.6966C5.33375 21.3623 5.75954 21.1347 6.22311 21.0424C6.68668 20.9501 7.1672 20.9974 7.60389 21.1783C8.04059 21.3591 8.41385 21.6654 8.67646 22.0584C8.93907 22.4514 9.07924 22.9134 9.07924 23.3861C9.07864 24.0196 8.82679 24.6269 8.37893 25.0749C7.93108 25.5229 7.3238 25.775 6.69033 25.7758Z" fill="#FCA311"/>
<path d="M63.2584 0.00224634C61.9307 0.00422651 60.658 0.532531 59.7191 1.47136C58.7803 2.41019 58.252 3.68294 58.25 5.01064C58.247 6.02802 58.5581 7.02153 59.1409 7.85547C59.631 8.56437 60.2958 9.13478 61.0709 9.51151C61.8461 9.88825 62.7053 10.0586 63.5655 10.006C64.4258 9.95336 65.2579 9.67965 65.9813 9.21129C66.7048 8.74293 67.2951 8.09578 67.6952 7.33245C68.0953 6.56912 68.2917 5.71544 68.2652 4.85402C68.2388 3.99259 67.9905 3.15256 67.5443 2.41521C67.0981 1.67785 66.4692 1.06813 65.7184 0.645018C64.9676 0.221909 64.1203 -0.000260954 63.2584 2.3002e-07V0.00224634ZM63.2584 7.3988C62.8712 7.39863 62.4899 7.3042 62.1474 7.12368C61.8049 6.94316 61.5115 6.68198 61.2925 6.36268C61.0155 5.96642 60.868 5.49411 60.8703 5.01064C60.8703 4.53831 61.0103 4.07658 61.2727 3.68385C61.5352 3.29112 61.9081 2.98503 62.3445 2.80427C62.7809 2.62352 63.2611 2.57622 63.7243 2.66837C64.1876 2.76052 64.6131 2.98797 64.9471 3.32196C65.2811 3.65595 65.5085 4.08148 65.6007 4.54473C65.6928 5.00799 65.6455 5.48817 65.4648 5.92455C65.284 6.36093 64.9779 6.73391 64.5852 6.99632C64.1925 7.25874 63.7308 7.3988 63.2584 7.3988Z" fill="#FCA311"/>
<path d="M25.5494 23.9587C24.5588 23.9587 23.5905 24.2525 22.7669 24.8028C21.9433 25.3531 21.3013 26.1353 20.9223 27.0505C20.5432 27.9657 20.444 28.9727 20.6373 29.9442C20.8305 30.9158 21.3075 31.8082 22.0079 32.5086C22.7084 33.209 23.6008 33.686 24.5723 33.8793C25.5439 34.0725 26.5509 33.9734 27.466 33.5943C28.3812 33.2152 29.1634 32.5733 29.7137 31.7497C30.2641 30.926 30.5578 29.9577 30.5578 28.9671C30.5592 28.0881 30.3267 27.2246 29.884 26.4652C29.4448 25.704 28.8131 25.0716 28.0523 24.6317C27.2914 24.1918 26.4283 23.9597 25.5494 23.9587ZM25.5494 31.3553C25.1295 31.3563 24.7168 31.2465 24.3529 31.0372C23.9889 30.8278 23.6866 30.5261 23.4764 30.1626C23.2662 29.7991 23.1556 29.3867 23.1556 28.9668C23.1557 28.5469 23.2665 28.1344 23.4768 27.771C23.6871 27.4076 23.9895 27.106 24.3535 26.8968C24.7175 26.6875 25.1303 26.5779 25.5502 26.579C25.97 26.5801 26.3822 26.6919 26.7451 26.9031C27.108 27.1143 27.4088 27.4175 27.6172 27.782C27.829 28.1409 27.9397 28.5504 27.9376 28.9671C27.9368 29.6003 27.6849 30.2072 27.2372 30.6549C26.7895 31.1026 26.1826 31.3545 25.5494 31.3553Z" fill="#FCA311"/>
<path d="M22.3658 26.6628L10.6122 23.1816C10.446 23.1284 10.2709 23.1089 10.0971 23.1242C9.92333 23.1396 9.75435 23.1895 9.60011 23.2711C9.44586 23.3526 9.30946 23.4641 9.19891 23.5991C9.08836 23.7341 9.00588 23.8898 8.95632 24.0571C8.90675 24.2244 8.8911 24.3999 8.91029 24.5733C8.92947 24.7467 8.9831 24.9146 9.06802 25.067C9.15295 25.2194 9.26747 25.3533 9.40485 25.4608C9.54223 25.5684 9.69971 25.6474 9.86805 25.6933L21.6217 29.1752C21.7431 29.2115 21.8693 29.2297 21.996 29.2291C22.3111 29.2297 22.6159 29.1167 22.8544 28.9108C23.093 28.7049 23.2493 28.4199 23.2948 28.1081C23.3403 27.7963 23.2719 27.4785 23.1021 27.2131C22.9323 26.9476 22.6725 26.7522 22.3703 26.6628H22.3658Z" fill="#FCA311"/>
<path d="M44.401 13.0361C43.0733 13.0381 41.8005 13.5664 40.8617 14.5052C39.9229 15.4441 39.3946 16.7168 39.3926 18.0445C39.3894 18.9221 39.6221 19.7844 40.0664 20.5412C40.6161 21.497 41.466 22.2445 42.4841 22.6677C43.5022 23.0908 44.6316 23.1659 45.6968 22.8812C46.762 22.5966 47.7033 21.9681 48.3747 21.0935C49.046 20.2189 49.4098 19.1471 49.4094 18.0445C49.4149 17.0268 49.1035 16.0325 48.5185 15.1997C48.0587 14.5326 47.4438 13.9871 46.7265 13.6102C46.0093 13.2334 45.2112 13.0364 44.401 13.0361ZM44.401 20.4327C43.9794 20.4329 43.5654 20.321 43.2014 20.1084C42.8374 19.8958 42.5364 19.5902 42.3295 19.2229C42.1197 18.8658 42.0103 18.4587 42.0128 18.0445C42.0122 17.5342 42.1752 17.037 42.4778 16.6261C42.7805 16.2152 43.2069 15.9121 43.6945 15.7613C44.1821 15.6106 44.7052 15.6201 45.187 15.7885C45.6688 15.9569 46.0839 16.2753 46.3714 16.697C46.6479 17.0916 46.794 17.5628 46.7892 18.0445C46.7884 18.6777 46.5365 19.2846 46.0888 19.7323C45.6411 20.18 45.0341 20.4319 44.401 20.4327Z" fill="#FCA311"/>
<path d="M59.4738 6.03695L46.6938 14.8627C46.408 15.0602 46.2125 15.3632 46.1502 15.7049C46.0878 16.0466 46.1638 16.3991 46.3614 16.6848C46.5589 16.9706 46.8619 17.1661 47.2036 17.2284C47.5453 17.2908 47.8978 17.2148 48.1835 17.0172L60.9628 8.19078C61.2485 7.99332 61.4441 7.69045 61.5065 7.34879C61.5689 7.00714 61.493 6.65468 61.2956 6.36897C61.0981 6.08325 60.7953 5.88768 60.4536 5.82527C60.1119 5.76287 59.7595 5.83874 59.4738 6.0362V6.03695Z" fill="#FCA311"/>
<path d="M40.5455 18.7608L28.0867 25.9844C27.9347 26.0691 27.8011 26.1831 27.6937 26.32C27.5862 26.4568 27.5071 26.6137 27.461 26.7814C27.4148 26.9492 27.4026 27.1244 27.4249 27.297C27.4472 27.4695 27.5036 27.6359 27.5909 27.7864C27.6782 27.9368 27.7946 28.0684 27.9333 28.1735C28.072 28.2785 28.2303 28.3548 28.3988 28.398C28.5673 28.4412 28.7427 28.4504 28.9149 28.4251C29.087 28.3998 29.2523 28.3405 29.4013 28.2505L41.8616 21.0269C42.1557 20.8494 42.3683 20.5635 42.4536 20.2307C42.5389 19.898 42.4901 19.5451 42.3178 19.2479C42.1454 18.9508 41.8632 18.7333 41.532 18.6421C41.2008 18.551 40.8471 18.5936 40.547 18.7608H40.5455Z" fill="#FCA311"/>
</svg>
