<svg width="49" height="70" viewBox="0 0 49 70" fill="none" xmlns="http://www.w3.org/2000/svg">
<path d="M24.2758 34.5686C22.5557 34.579 20.8571 34.1856 19.3167 33.4199C17.7763 32.6542 16.4372 31.5377 15.407 30.1601C12.6945 26.5487 11.3184 21.7666 11.3184 15.9462C11.3184 15.6697 11.4282 15.4045 11.6237 15.209C11.8192 15.0135 12.0844 14.9037 12.3609 14.9037C12.6374 14.9037 12.9026 15.0135 13.0981 15.209C13.2936 15.4045 13.4035 15.6697 13.4035 15.9462C13.4035 21.3049 14.6384 25.6658 17.0744 28.9066C17.9174 30.0181 19.0061 30.9194 20.2555 31.5399C21.5048 32.1604 22.8808 32.4833 24.2758 32.4833C25.6708 32.4833 27.0468 32.1604 28.2961 31.5399C29.5455 30.9194 30.6342 30.0181 31.4772 28.9066C33.9132 25.6652 35.1481 21.3044 35.1481 15.9456C35.1481 15.6691 35.258 15.4039 35.4535 15.2084C35.649 15.0129 35.9142 14.9031 36.1907 14.9031C36.4672 14.9031 36.7324 15.0129 36.9279 15.2084C37.1234 15.4039 37.2333 15.6691 37.2333 15.9456C37.2333 21.7661 35.8571 26.5499 33.1447 30.1595C32.1144 31.5371 30.7753 32.6537 29.2349 33.4195C27.6946 34.1853 25.996 34.5789 24.2758 34.5686Z" fill="#00344C"/>
<path d="M12.9854 23.1799C12.9592 23.1799 12.933 23.1799 12.9068 23.1799L11.1964 23.0524C10.1858 22.9727 9.24214 22.5157 8.55298 21.7722C7.86381 21.0287 7.47956 20.0532 7.47656 19.0395V17.7336C7.47735 16.9833 7.77574 16.264 8.30626 15.7335C8.83678 15.203 9.55609 14.9046 10.3063 14.9038H12.3617C12.6382 14.9038 12.9033 15.0136 13.0989 15.2092C13.2944 15.4047 13.4042 15.6699 13.4042 15.9464C13.4042 16.2229 13.2944 16.488 13.0989 16.6836C12.9033 16.8791 12.6382 16.9889 12.3617 16.9889H10.304C10.1065 16.9889 9.91705 17.0674 9.7774 17.207C9.63774 17.3467 9.55929 17.5361 9.55929 17.7336V19.0395C9.56123 19.5275 9.74666 19.997 10.0787 20.3547C10.4108 20.7124 10.8653 20.9321 11.3519 20.9703L13.0617 21.0978C13.3304 21.1181 13.5808 21.2417 13.7603 21.4426C13.9399 21.6436 14.0347 21.9062 14.0248 22.1755C14.0149 22.4448 13.9012 22.6998 13.7074 22.8871C13.5136 23.0743 13.2549 23.1793 12.9854 23.1799Z" fill="#00344C"/>
<path d="M35.5674 23.1799C35.298 23.1793 35.0392 23.0743 34.8454 22.8871C34.6517 22.6998 34.5379 22.4448 34.528 22.1755C34.5182 21.9062 34.613 21.6436 34.7925 21.4426C34.9721 21.2417 35.2225 21.1181 35.4912 21.0978L37.2039 20.9703C37.6896 20.9309 38.1427 20.7106 38.4737 20.353C38.8047 19.9955 38.9893 19.5267 38.9912 19.0395V17.7336C38.9912 17.5361 38.9127 17.3467 38.7731 17.207C38.6334 17.0674 38.444 16.9889 38.2465 16.9889H36.1912C35.9147 16.9889 35.6495 16.8791 35.454 16.6836C35.2585 16.488 35.1486 16.2229 35.1486 15.9464C35.1486 15.6699 35.2585 15.4047 35.454 15.2092C35.6495 15.0136 35.9147 14.9038 36.1912 14.9038H38.2489C38.9992 14.9046 39.7185 15.203 40.249 15.7335C40.7795 16.264 41.0779 16.9833 41.0787 17.7336V19.0395C41.0749 20.053 40.6901 21.028 40.0006 21.7709C39.3111 22.5138 38.3675 22.9702 37.3571 23.0494L35.6461 23.1769C35.6199 23.1787 35.5954 23.1799 35.5674 23.1799Z" fill="#00344C"/>
<path d="M12.3609 16.9888C12.0845 16.9885 11.8195 16.8786 11.6241 16.6831C11.4286 16.4877 11.3187 16.2227 11.3184 15.9463V9.97872C11.3214 7.33312 12.3736 4.79673 14.2444 2.92601C16.1151 1.05528 18.6515 0.00299589 21.2971 0H27.9694C28.657 0.000186135 29.3331 0.176641 29.9331 0.512517C30.5332 0.848392 31.037 1.33247 31.3967 1.91854C31.7564 2.5046 31.9598 3.17308 31.9875 3.86014C32.0153 4.5472 31.8664 5.2299 31.5552 5.84306L30.4584 8.00204C29.7268 9.45154 28.6063 10.6688 27.2222 11.5177C25.8381 12.3666 24.2451 12.8135 22.6214 12.8085H17.5195L13.0514 16.7297C12.8605 16.8974 12.615 16.9895 12.3609 16.9888ZM21.2971 2.08511C19.2043 2.08747 17.1979 2.91988 15.7181 4.39971C14.2382 5.87953 13.4058 7.88593 13.4035 9.97872V13.6449L16.4418 10.9826C16.6311 10.8159 16.8746 10.7238 17.1269 10.7234H22.6214C23.8592 10.7271 25.0737 10.3863 26.1289 9.73929C27.1842 9.09225 28.0386 8.16443 28.5967 7.05957L29.6935 4.9006C29.8441 4.60551 29.9165 4.27671 29.9036 3.94567C29.8908 3.61462 29.7932 3.29241 29.6202 3.00988C29.4472 2.72735 29.2045 2.49395 28.9155 2.33203C28.6265 2.17011 28.3007 2.08509 27.9694 2.08511H21.2971Z" fill="#00344C"/>
<path d="M36.1915 16.9888C35.9384 16.9888 35.6941 16.8966 35.504 16.7297L31.0204 12.7977C29.3797 12.7125 27.8216 12.0518 26.6196 10.9319C26.5194 10.8386 26.4385 10.7265 26.3815 10.602C26.3246 10.4775 26.2927 10.343 26.2878 10.2061C26.2828 10.0693 26.3049 9.93282 26.3527 9.80451C26.4005 9.6762 26.4731 9.55855 26.5663 9.4583C26.6596 9.35804 26.7717 9.27713 26.8962 9.22019C27.0207 9.16325 27.1552 9.1314 27.2921 9.12645C27.4289 9.1215 27.5654 9.14355 27.6937 9.19134C27.822 9.23913 27.9396 9.31172 28.0399 9.40498C28.9487 10.2524 30.1454 10.723 31.388 10.7216C31.6524 10.7212 31.9087 10.8128 32.113 10.9807L35.1513 13.6431V9.51817C35.1531 8.31186 34.7107 7.14713 33.9086 6.24613C33.1065 5.34513 32.0008 4.77093 30.8024 4.63306C30.6664 4.61741 30.5348 4.57514 30.4152 4.50865C30.2956 4.44216 30.1902 4.35276 30.1051 4.24555C30.02 4.13834 29.9569 4.01542 29.9193 3.88381C29.8818 3.7522 29.8705 3.61448 29.8861 3.47851C29.9018 3.34254 29.944 3.21098 30.0105 3.09135C30.077 2.97171 30.1664 2.86635 30.2736 2.78126C30.3808 2.69618 30.5038 2.63305 30.6354 2.59547C30.767 2.55789 30.9047 2.54661 31.0407 2.56225C32.7472 2.75818 34.3219 3.57533 35.4646 4.85787C36.6073 6.14041 37.238 7.79864 37.2364 9.51638V15.9445C37.2365 16.0817 37.2095 16.2176 37.157 16.3443C37.1045 16.4711 37.0275 16.5863 36.9305 16.6833C36.8334 16.7803 36.7182 16.8572 36.5914 16.9096C36.4646 16.9621 36.3287 16.989 36.1915 16.9888Z" fill="#00344C"/>
<path d="M19.3728 47.9628C19.3116 47.9629 19.2506 47.9573 19.1905 47.9461C19.0248 47.9171 18.8687 47.8483 18.7356 47.7455C18.6024 47.6428 18.4962 47.5092 18.4262 47.3563L14.3948 38.6108C14.3317 38.4857 14.2945 38.3492 14.2854 38.2095C14.2763 38.0697 14.2954 37.9295 14.3417 37.7973C14.3879 37.6651 14.4603 37.5436 14.5546 37.44C14.6489 37.3364 14.763 37.2529 14.8903 37.1944C15.0175 37.1358 15.1553 37.1036 15.2953 37.0995C15.4353 37.0954 15.5747 37.1196 15.7051 37.1705C15.8356 37.2215 15.9544 37.2982 16.0546 37.3961C16.1547 37.4941 16.2341 37.6111 16.288 37.7404L19.6897 45.1211L22.8186 41.9774L19.0541 38.0454C18.8678 37.8448 18.7679 37.579 18.7759 37.3054C18.784 37.0317 18.8993 36.7722 19.0971 36.5829C19.2949 36.3936 19.5591 36.2897 19.8329 36.2936C20.1066 36.2975 20.3678 36.4089 20.5601 36.6037L25.0282 41.2714C25.2163 41.4681 25.3201 41.7305 25.3174 42.0026C25.3147 42.2747 25.2058 42.535 25.0139 42.728L20.1097 47.6566C20.013 47.7536 19.8982 47.8305 19.7717 47.883C19.6453 47.9356 19.5097 47.9627 19.3728 47.9628Z" fill="#FCA311"/>
<path d="M29.1808 47.9629C29.0435 47.9629 28.9075 47.9357 28.7808 47.8829C28.654 47.8302 28.5389 47.7529 28.4421 47.6555L23.5379 42.7269C23.346 42.534 23.2371 42.2736 23.2344 42.0015C23.2318 41.7294 23.3355 41.467 23.5236 41.2703L27.9917 36.6027C28.0858 36.5014 28.1991 36.4198 28.3249 36.3627C28.4508 36.3056 28.5868 36.274 28.725 36.27C28.8632 36.2659 29.0008 36.2894 29.1298 36.339C29.2589 36.3886 29.3767 36.4634 29.4766 36.559C29.5765 36.6546 29.6563 36.7691 29.7115 36.8958C29.7667 37.0226 29.7961 37.159 29.7981 37.2972C29.8001 37.4355 29.7745 37.5727 29.723 37.701C29.6714 37.8292 29.5948 37.946 29.4978 38.0444L25.7332 41.9763L28.8639 45.1212L32.2656 37.7405C32.3213 37.6137 32.4017 37.4992 32.5021 37.4038C32.6025 37.3084 32.7209 37.234 32.8504 37.1848C32.9799 37.1357 33.1179 37.1129 33.2563 37.1177C33.3948 37.1225 33.5309 37.1548 33.6567 37.2128C33.7824 37.2708 33.8954 37.3533 33.989 37.4554C34.0825 37.5575 34.1548 37.6773 34.2016 37.8077C34.2483 37.9381 34.2686 38.0765 34.2613 38.2148C34.254 38.3531 34.2191 38.4886 34.1589 38.6133L30.1275 47.3588C30.0574 47.5117 29.9512 47.6453 29.818 47.748C29.6849 47.8507 29.5288 47.9196 29.3631 47.9486C29.3029 47.959 29.2419 47.9638 29.1808 47.9629Z" fill="#FCA311"/>
<path d="M24.2758 70.0001C24.0492 70.0004 23.8287 69.9266 23.6479 69.7898L19.8054 66.8921C19.658 66.7809 19.5428 66.6326 19.4715 66.4623C19.4002 66.292 19.3754 66.1059 19.3997 65.9228L21.6337 49.0597L20.0848 45.6908C19.9758 45.4406 19.9692 45.1577 20.0664 44.9027C20.1636 44.6477 20.3568 44.4409 20.6047 44.3268C20.8525 44.2126 21.1352 44.2001 21.3922 44.2919C21.6491 44.3837 21.8599 44.5726 21.9792 44.818L23.6574 48.461C23.7399 48.64 23.7698 48.8387 23.7438 49.0341L21.5497 65.5958L24.2758 67.6523L27.0049 65.594L24.812 49.0335C24.786 48.8381 24.816 48.6394 24.8984 48.4604L26.5766 44.8174C26.6959 44.572 26.9067 44.3831 27.1637 44.2913C27.4206 44.1995 27.7033 44.212 27.9512 44.3262C28.199 44.4404 28.3922 44.6471 28.4894 44.9021C28.5866 45.1571 28.58 45.44 28.4711 45.6902L26.918 49.0597L29.152 65.9234C29.1763 66.1064 29.1515 66.2926 29.0802 66.4629C29.0089 66.6332 28.8937 66.7815 28.7463 66.8927L24.9037 69.7904C24.7229 69.9269 24.5024 70.0006 24.2758 70.0001Z" fill="#FCA311"/>
<path d="M25.8458 49.9389H22.7086C22.4321 49.9389 22.1669 49.829 21.9714 49.6335C21.7759 49.438 21.666 49.1728 21.666 48.8963C21.666 48.6198 21.7759 48.3546 21.9714 48.1591C22.1669 47.9636 22.4321 47.8538 22.7086 47.8538H25.8458C26.1223 47.8538 26.3874 47.9636 26.583 48.1591C26.7785 48.3546 26.8883 48.6198 26.8883 48.8963C26.8883 49.1728 26.7785 49.438 26.583 49.6335C26.3874 49.829 26.1223 49.9389 25.8458 49.9389Z" fill="#FCA311"/>
<path d="M47.5097 70C47.3728 70.0001 47.2371 69.9732 47.1106 69.9208C46.9841 69.8685 46.8691 69.7917 46.7723 69.6948C46.6755 69.598 46.5987 69.4831 46.5463 69.3565C46.494 69.23 46.4671 69.0944 46.4671 68.9575V46.8119C46.4659 45.3908 45.9696 44.0147 45.0636 42.9199C44.1576 41.8252 42.8985 41.0803 41.5028 40.8133L28.5489 38.3475C28.3106 38.3021 28.0955 38.1749 27.9408 37.988C27.786 37.8011 27.7013 37.5661 27.7012 37.3234V32.4937C27.7012 32.2172 27.811 31.952 28.0065 31.7565C28.202 31.561 28.4672 31.4512 28.7437 31.4512C29.0202 31.4512 29.2854 31.561 29.4809 31.7565C29.6764 31.952 29.7863 32.2172 29.7863 32.4937V36.4608L41.8924 38.7651C43.7648 39.123 45.454 40.1222 46.6695 41.5908C47.8849 43.0593 48.5507 44.9055 48.5522 46.8119V68.9575C48.5523 69.0944 48.5254 69.23 48.473 69.3565C48.4207 69.4831 48.3439 69.598 48.2471 69.6948C48.1502 69.7917 48.0353 69.8685 47.9087 69.9208C47.7822 69.9732 47.6466 70.0001 47.5097 70Z" fill="#00344C"/>
<path d="M1.04255 70C0.905621 70.0001 0.770017 69.9732 0.643493 69.9208C0.516969 69.8685 0.402008 69.7917 0.305182 69.6948C0.208357 69.598 0.131565 69.4831 0.0791998 69.3565C0.0268343 69.23 -7.81436e-05 69.0944 1.70427e-07 68.9575V46.8119C0.00155868 44.9055 0.667314 43.0593 1.88277 41.5908C3.09823 40.1222 4.78742 39.123 6.65983 38.7651L18.766 36.4608V32.4937C18.766 32.2172 18.8758 31.952 19.0713 31.7565C19.2668 31.561 19.532 31.4512 19.8085 31.4512C20.085 31.4512 20.3502 31.561 20.5457 31.7565C20.7412 31.952 20.8511 32.2172 20.8511 32.4937V37.3234C20.8509 37.5661 20.7662 37.8011 20.6115 37.988C20.4567 38.1749 20.2417 38.3021 20.0033 38.3475L7.04945 40.8133C5.65375 41.0803 4.39467 41.8252 3.48868 42.9199C2.58269 44.0147 2.08639 45.3908 2.08511 46.8119V68.9575C2.08519 69.0944 2.05827 69.23 2.00591 69.3565C1.95354 69.4831 1.87675 69.598 1.77992 69.6948C1.6831 69.7917 1.56814 69.8685 1.44161 69.9208C1.31509 69.9732 1.17949 70.0001 1.04255 70Z" fill="#00344C"/>
</svg>
