<svg width="71" height="53" viewBox="0 0 71 53" fill="none" xmlns="http://www.w3.org/2000/svg">
<path d="M68.9594 52.7263H7.5977C5.58391 52.7239 3.65327 51.9229 2.22931 50.4989C0.805342 49.075 0.00431867 47.1443 0.00195367 45.1306V7.59864C0.00122281 5.67407 0.731084 3.82098 2.04405 2.41383C3.35702 1.00668 5.15519 0.150393 7.0752 0.0180045C8.9952 -0.114384 10.8939 0.486999 12.3876 1.70063C13.8812 2.91426 14.8585 4.64963 15.122 6.55609H68.9594C69.0963 6.55601 69.2319 6.58292 69.3585 6.63529C69.485 6.68765 69.5999 6.76444 69.6968 6.86127C69.7936 6.9581 69.8704 7.07306 69.9228 7.19958C69.9751 7.3261 70.002 7.46171 70.002 7.59864V51.6837C70.002 51.8207 69.9751 51.9563 69.9228 52.0828C69.8704 52.2093 69.7936 52.3243 69.6968 52.4211C69.5999 52.5179 69.485 52.5947 69.3585 52.6471C69.2319 52.6995 69.0963 52.7264 68.9594 52.7263ZM2.08706 45.1306C2.08864 46.5916 2.66973 47.9923 3.70283 49.0254C4.73593 50.0585 6.13667 50.6396 7.5977 50.6412H67.9168V8.64119H15.1934V45.1306C15.1934 45.4071 15.0836 45.6722 14.8881 45.8677C14.6926 46.0633 14.4274 46.1731 14.1509 46.1731C13.8744 46.1731 13.6092 46.0633 13.4137 45.8677C13.2182 45.6722 13.1083 45.4071 13.1083 45.1306C13.1083 43.669 12.5278 42.2674 11.4943 41.2339C10.4609 40.2005 9.05921 39.6199 7.5977 39.6199C6.13619 39.6199 4.73453 40.2005 3.70109 41.2339C2.66764 42.2674 2.08706 43.669 2.08706 45.1306ZM7.5977 2.088C6.13667 2.08958 4.73593 2.67067 3.70283 3.70377C2.66973 4.73688 2.08864 6.13761 2.08706 7.59864V39.9077C2.79594 39.1582 3.65026 38.5612 4.59777 38.1531C5.54529 37.7451 6.56607 37.5347 7.5977 37.5347C8.62932 37.5347 9.65011 37.7451 10.5976 38.1531C11.5451 38.5612 12.3995 39.1582 13.1083 39.9077V7.59864C13.1068 6.13761 12.5257 4.73688 11.4926 3.70377C10.4595 2.67067 9.05873 2.08958 7.5977 2.088Z" fill="#00344C"/>
<path d="M44.9822 45.3839C44.5032 45.3835 44.0293 45.2856 43.5893 45.0962L41.733 44.2997C41.0504 44.0078 40.4777 43.5073 40.0971 42.8699L39.7051 42.2146C39.2797 41.5041 39.1169 40.6669 39.2452 39.8489L39.7861 36.4203C39.797 36.35 39.7876 36.2779 39.759 36.2127C39.7304 36.1475 39.6838 36.0918 39.6246 36.0522L39.1433 35.7317C38.7965 35.5025 38.514 35.1887 38.3223 34.8198C38.1307 34.451 38.0364 34.0394 38.0483 33.6239L38.1138 31.1129C38.1149 31.0141 38.0775 30.9188 38.0096 30.8471C37.3815 30.1386 36.8346 29.3621 36.379 28.5321C36.2152 28.2387 36.1131 27.9149 36.0791 27.5806C36.045 27.2463 36.0798 26.9085 36.1812 26.5882L36.5458 25.4408C36.662 25.0773 36.861 24.7459 37.1271 24.4724C37.3932 24.199 37.7192 23.9911 38.0793 23.865C38.4713 23.728 38.7644 23.6267 38.986 23.5499C39.3016 22.7414 39.7261 21.9797 40.2478 21.286C40.3439 21.1575 40.4053 21.0065 40.4262 20.8474C40.447 20.6883 40.4266 20.5265 40.3669 20.3775L39.8588 19.0901C39.7452 18.8032 39.6869 18.4974 39.6872 18.1888V17.036C39.6872 16.6978 39.7571 16.3633 39.8924 16.0533C40.0277 15.7434 40.2255 15.4647 40.4734 15.2348C40.7214 15.0048 41.0142 14.8285 41.3334 14.7169C41.6527 14.6053 41.9915 14.5609 42.3287 14.5863L42.9954 14.6369C43.6369 14.6865 44.2528 14.9102 44.7766 15.2839L47.6732 17.3529L48.0008 17.4965C53.9344 18.8316 56.7356 22.5306 57.6686 24.0664C57.8296 24.3337 58.0211 24.5814 58.2393 24.8045L59.6357 26.223C60.0418 26.6367 60.289 27.1803 60.3339 27.7582L60.3887 28.4731C60.3928 28.5236 60.4071 28.5728 60.4308 28.6177C60.4544 28.6625 60.487 28.7021 60.5264 28.734L62.3732 30.2335C62.686 30.4876 62.9316 30.8148 63.0882 31.1862C63.2448 31.5576 63.3076 31.9618 63.2711 32.3632C63.2346 32.7645 63.0999 33.1508 62.8789 33.4879C62.6579 33.8249 62.3574 34.1024 62.0038 34.2959L59.6548 35.5827C59.6107 35.6068 59.5718 35.6394 59.5404 35.6786L57.8491 37.8054C57.4893 38.2581 56.9812 38.5691 56.4144 38.6838C55.8477 38.7984 55.2587 38.7093 54.7512 38.4322C54.6654 38.386 54.565 38.3749 54.4712 38.4012L51.8904 39.1363C51.8429 39.1497 51.7985 39.1723 51.7598 39.203C51.7212 39.2337 51.689 39.2718 51.6652 39.3151L50.2426 41.9173C49.6873 42.9345 48.8496 43.7694 47.8304 44.3211L46.6622 44.9544C46.1468 45.2356 45.5693 45.3833 44.9822 45.3839ZM42.1399 16.6643C42.0415 16.6647 41.9474 16.7041 41.878 16.7737C41.8085 16.8434 41.7695 16.9377 41.7693 17.036V18.1906C41.7697 18.2374 41.7786 18.2839 41.7955 18.3276L42.3031 19.6138C42.4947 20.0926 42.5598 20.6126 42.4922 21.1239C42.4245 21.6351 42.2265 22.1204 41.9171 22.5329C41.4277 23.1784 41.0509 23.9019 40.8024 24.6728C40.7531 24.8375 40.6637 24.9874 40.5421 25.1089C40.3729 25.2781 40.3491 25.2877 39.7343 25.5003L38.762 25.8381C38.7077 25.8573 38.6586 25.8888 38.6185 25.9302C38.5784 25.9715 38.5484 26.0216 38.5309 26.0764L38.1663 27.2226C38.1505 27.2707 38.1448 27.3215 38.1496 27.3718C38.1544 27.4222 38.1696 27.471 38.1943 27.5151C38.5723 28.2022 39.0233 28.8466 39.5395 29.437C39.9755 29.9067 40.2106 30.5282 40.1948 31.1689L40.1292 33.6805C40.1276 33.7434 40.142 33.8058 40.1712 33.8616C40.2004 33.9173 40.2434 33.9647 40.2961 33.9992L40.7774 34.3197C41.1678 34.5811 41.4755 34.9486 41.6642 35.3789C41.8529 35.8091 41.9148 36.2843 41.8426 36.7486L41.3017 40.1771C41.2493 40.5121 41.3161 40.855 41.4905 41.1458L41.8819 41.7981C42.0376 42.0591 42.272 42.2639 42.5515 42.3831L44.4103 43.1797C44.6107 43.2656 44.8281 43.3049 45.0459 43.2946C45.2638 43.2843 45.4765 43.2246 45.6679 43.1201L46.8361 42.4862C47.5024 42.1259 48.05 41.5805 48.4131 40.9158L49.8351 38.3154C49.9922 38.0302 50.2041 37.7787 50.4585 37.5755C50.713 37.3723 51.005 37.2212 51.3179 37.1311L53.8957 36.3947C54.5154 36.2161 55.1805 36.2898 55.7461 36.5997C55.8229 36.6424 55.9124 36.6563 55.9986 36.6389C56.0847 36.6216 56.1619 36.5741 56.2161 36.5049L57.9092 34.3769C58.1129 34.1214 58.3655 33.9089 58.6521 33.752L61.0006 32.4658C61.0542 32.4366 61.0998 32.3947 61.1333 32.3437C61.1668 32.2927 61.1872 32.2343 61.1927 32.1735C61.1981 32.1127 61.1885 32.0516 61.1647 31.9954C61.1408 31.9392 61.1035 31.8898 61.056 31.8516L59.2092 30.3509C58.9508 30.1401 58.7377 29.8791 58.5829 29.5837C58.4281 29.2883 58.3347 28.9646 58.3084 28.6322L58.2536 27.9173C58.2469 27.8297 58.2093 27.7474 58.1475 27.6849L56.7529 26.2677C56.4211 25.9295 56.1298 25.5538 55.8849 25.1483C55.2653 24.123 52.8138 20.6855 47.4521 19.5101C47.3846 19.4956 47.3187 19.4743 47.2555 19.4464L46.7384 19.2194C46.6721 19.1904 46.609 19.1544 46.5502 19.1122L43.5649 16.9806C43.3502 16.8278 43.0979 16.7365 42.8351 16.7167L42.1685 16.6654C42.159 16.6645 42.1494 16.6641 42.1399 16.6643Z" fill="#FCA311"/>
<path d="M30.2049 24.4267C29.7629 24.4263 29.3277 24.3173 28.9378 24.1092L26.1938 22.6502C26.0843 22.5918 25.9596 22.5681 25.8363 22.5823L24.4518 22.7467C24.0732 22.7914 23.6895 22.7554 23.3258 22.641C22.9621 22.5267 22.6268 22.3367 22.3418 22.0834C22.0569 21.8302 21.8288 21.5194 21.6726 21.1717C21.5164 20.824 21.4356 20.4471 21.4355 20.0659V18.4621C21.437 18.0452 21.5344 17.6341 21.7204 17.261C21.9064 16.8878 22.1758 16.5625 22.5079 16.3103L24.1587 15.0592C24.6623 14.677 25.2842 14.4839 25.9157 14.5135C26.5473 14.5431 27.1484 14.7936 27.614 15.2213L27.8452 15.4328C27.8938 15.4777 27.9576 15.5027 28.0239 15.5027C28.0901 15.5027 28.154 15.4777 28.2026 15.4328L29.2011 14.551C29.6894 14.1147 30.3245 13.8791 30.9792 13.8913C31.634 13.9036 32.2599 14.1629 32.7315 14.6172L33.2378 15.0991C33.5435 15.3923 33.7535 15.7711 33.8401 16.1857C33.9268 16.6003 33.8861 17.0315 33.7234 17.4225L33.2504 18.5497C33.2174 18.6283 33.2012 18.7129 33.2028 18.7982C33.2043 18.8834 33.2236 18.9674 33.2593 19.0448L33.7984 20.2112C33.9457 20.5296 34.0273 20.8744 34.0385 21.225C34.0496 21.5756 33.99 21.9249 33.8633 22.2519C33.7365 22.579 33.5452 22.8772 33.3007 23.1288C33.0562 23.3803 32.7635 23.58 32.4401 23.716L31.2606 24.2116C30.9268 24.3537 30.5677 24.4268 30.2049 24.4267ZM25.9096 20.4948C26.3499 20.495 26.7834 20.6034 27.172 20.8105L29.9172 22.2701C29.9975 22.3128 30.0863 22.3371 30.1772 22.3412C30.2681 22.3454 30.3587 22.3292 30.4426 22.2939L31.6222 21.7983C31.6875 21.771 31.7466 21.7308 31.7961 21.6802C31.8455 21.6295 31.8842 21.5694 31.9098 21.5034C31.9355 21.4375 31.9475 21.367 31.9453 21.2963C31.9431 21.2255 31.9266 21.156 31.8968 21.0917L31.3571 19.9253C31.2 19.5846 31.1154 19.2151 31.1087 18.84C31.1021 18.465 31.1734 18.0926 31.3184 17.7466L31.795 16.6201L31.288 16.1333C31.1925 16.0412 31.0657 15.9887 30.9331 15.9862C30.8005 15.9838 30.6718 16.0317 30.5731 16.1202L29.5746 17.0019C29.14 17.3873 28.5778 17.5977 27.9969 17.5924C27.4161 17.5871 26.8578 17.3665 26.4303 16.9733L26.1991 16.7619C26.0932 16.665 25.9568 16.6083 25.8135 16.6016C25.6702 16.5948 25.529 16.6385 25.4145 16.7249L23.7631 17.976C23.6878 18.0334 23.6266 18.1073 23.5845 18.1922C23.5423 18.277 23.5203 18.3704 23.5201 18.4651V20.0694C23.5198 20.1562 23.538 20.242 23.5735 20.3211C23.6091 20.4002 23.6611 20.4708 23.7262 20.5282C23.79 20.5862 23.8657 20.6297 23.948 20.6556C24.0303 20.6815 24.1172 20.6893 24.2028 20.6783L25.5867 20.5151C25.6938 20.5011 25.8016 20.4938 25.9096 20.493V20.4948Z" fill="#FCA311"/>
<path d="M22.7429 38.6281C22.3127 38.6277 21.8899 38.5162 21.5155 38.3043C21.1411 38.0924 20.8278 37.7874 20.606 37.4188L20.2301 36.7902C20.0076 36.4163 19.8738 35.9962 19.8391 35.5625C19.8044 35.1287 19.8697 34.6927 20.0299 34.2881L20.8044 32.3448C20.8251 32.2934 20.8348 32.2382 20.833 32.1828L20.7847 30.7137C20.7691 30.2102 20.9061 29.7137 21.1777 29.2895C21.4494 28.8653 21.843 28.5331 22.3068 28.3366L23.77 27.7224C24.3887 27.46 25.0808 27.4274 25.7214 27.6305C26.362 27.8336 26.9089 28.259 27.2634 28.8299L28.2547 30.4128C28.6386 31.0254 28.7735 31.7617 28.6318 32.4707C28.4902 33.1796 28.0826 33.8075 27.4928 34.2256L27.1181 34.4919C27.1019 34.5036 27.0882 34.5186 27.078 34.5358C27.0678 34.553 27.0611 34.5721 27.0585 34.5919L26.9393 35.4302C26.888 35.7916 26.7574 36.1372 26.557 36.4424C26.3566 36.7475 26.0913 37.0046 25.78 37.1954L24.0398 38.2594C23.6501 38.5002 23.2011 38.6279 22.7429 38.6281ZM24.8667 29.5817C24.7672 29.5823 24.6689 29.6026 24.5772 29.6413L23.1141 30.2555C23.0394 30.2873 22.9761 30.3408 22.9324 30.4092C22.8887 30.4776 22.8667 30.5575 22.8692 30.6386L22.9198 32.1065C22.9312 32.4509 22.8703 32.7939 22.7411 33.1133L21.9667 35.0584C21.9244 35.165 21.9071 35.2798 21.9163 35.394C21.9255 35.5083 21.9609 35.6189 22.0197 35.7173L22.395 36.3452C22.4223 36.3906 22.4583 36.4302 22.5009 36.4616C22.5436 36.493 22.5921 36.5157 22.6435 36.5282C22.695 36.5408 22.7484 36.5431 22.8008 36.5349C22.8531 36.5267 22.9033 36.5082 22.9484 36.4805L24.6868 35.4123C24.7368 35.382 24.7795 35.341 24.8118 35.2923C24.8442 35.2436 24.8654 35.1883 24.8739 35.1305L24.993 34.2923C25.0366 33.9921 25.1406 33.7039 25.2987 33.4451C25.4568 33.1862 25.6657 32.9621 25.9129 32.7862L26.2876 32.5205C26.4426 32.4104 26.5498 32.2453 26.5871 32.0588C26.6244 31.8723 26.5891 31.6786 26.4884 31.5173L25.4964 29.9344C25.4303 29.8268 25.3377 29.7379 25.2275 29.6762C25.1172 29.6144 24.9931 29.5819 24.8667 29.5817Z" fill="#FCA311"/>
</svg>
