<svg width="86" height="553" viewBox="0 0 86 553" fill="none" xmlns="http://www.w3.org/2000/svg">
<path d="M3.02595 14.08H5.42595C5.76195 14.08 6.12995 13.984 6.43395 13.76C6.62595 13.616 7.05795 13.184 7.20195 12.992C7.42595 12.688 7.52195 12.32 7.52195 11.984V6.448C7.52195 6.112 7.42595 5.744 7.20195 5.44C7.05795 5.248 6.62595 4.816 6.43395 4.672C6.12995 4.448 5.76195 4.352 5.42595 4.352H3.02595C2.68995 4.352 2.32195 4.448 2.01795 4.672C1.82595 4.816 1.39395 5.248 1.24995 5.44C1.02595 5.744 0.929953 6.112 0.929953 6.448V11.984C0.929953 12.32 1.02595 12.688 1.24995 12.992C1.39395 13.184 1.82595 13.616 2.01795 13.76C2.32195 13.984 2.68995 14.08 3.02595 14.08ZM2.60995 11.84V6.592C2.60995 6.464 2.67395 6.368 2.84995 6.192C3.02595 6.016 3.12195 5.952 3.24995 5.952H5.20195C5.32995 5.952 5.42595 6.016 5.60195 6.192C5.77795 6.368 5.84195 6.464 5.84195 6.592V11.84C5.84195 11.968 5.77795 12.064 5.60195 12.24C5.42595 12.416 5.32995 12.48 5.20195 12.48H3.24995C3.12195 12.48 3.02595 12.416 2.84995 12.24C2.67395 12.064 2.60995 11.968 2.60995 11.84ZM10.4471 4.432V6.048H12.3511V14H14.0311V4.432H10.4471Z" fill="#FCA311"/>
<path d="M69.026 144.08H71.426C71.762 144.08 72.13 143.984 72.434 143.76C72.626 143.616 73.058 143.184 73.202 142.992C73.426 142.688 73.522 142.32 73.522 141.984V136.448C73.522 136.112 73.426 135.744 73.202 135.44C73.058 135.248 72.626 134.816 72.434 134.672C72.13 134.448 71.762 134.352 71.426 134.352H69.026C68.69 134.352 68.322 134.448 68.018 134.672C67.826 134.816 67.394 135.248 67.25 135.44C67.026 135.744 66.93 136.112 66.93 136.448V141.984C66.93 142.32 67.026 142.688 67.25 142.992C67.394 143.184 67.826 143.616 68.018 143.76C68.322 143.984 68.69 144.08 69.026 144.08ZM68.61 141.84V136.592C68.61 136.464 68.674 136.368 68.85 136.192C69.026 136.016 69.122 135.952 69.25 135.952H71.202C71.33 135.952 71.426 136.016 71.602 136.192C71.778 136.368 71.842 136.464 71.842 136.592V141.84C71.842 141.968 71.778 142.064 71.602 142.24C71.426 142.416 71.33 142.48 71.202 142.48H69.25C69.122 142.48 69.026 142.416 68.85 142.24C68.674 142.064 68.61 141.968 68.61 141.84ZM78.2231 140.976L81.3751 139.344C81.9991 139.024 82.5591 138.432 82.5591 137.616V136.448C82.5591 136.112 82.4631 135.744 82.2391 135.44C82.0951 135.248 81.6631 134.816 81.4711 134.672C81.1671 134.448 80.7991 134.352 80.4631 134.352H78.5751C77.7751 134.352 77.2631 134.784 76.7351 135.408C76.5431 135.632 76.2871 136.016 76.1751 136.288L77.8231 136.72C78.1271 136.256 78.4791 135.952 78.6071 135.952H80.2391C80.3671 135.952 80.4631 136.016 80.6391 136.192C80.8151 136.368 80.8791 136.464 80.8791 136.592V137.568C80.8791 137.712 80.7991 137.824 80.6711 137.888L77.4871 139.536C76.8151 139.888 76.2871 140.448 76.2871 141.248V144H82.4471V142.4H77.9671V141.312C77.9671 141.216 78.0471 141.072 78.2231 140.976Z" fill="#FCA311"/>
<path d="M69.026 404.08H71.426C71.762 404.08 72.13 403.984 72.434 403.76C72.626 403.616 73.058 403.184 73.202 402.992C73.426 402.688 73.522 402.32 73.522 401.984V396.448C73.522 396.112 73.426 395.744 73.202 395.44C73.058 395.248 72.626 394.816 72.434 394.672C72.13 394.448 71.762 394.352 71.426 394.352H69.026C68.69 394.352 68.322 394.448 68.018 394.672C67.826 394.816 67.394 395.248 67.25 395.44C67.026 395.744 66.93 396.112 66.93 396.448V401.984C66.93 402.32 67.026 402.688 67.25 402.992C67.394 403.184 67.826 403.616 68.018 403.76C68.322 403.984 68.69 404.08 69.026 404.08ZM68.61 401.84V396.592C68.61 396.464 68.674 396.368 68.85 396.192C69.026 396.016 69.122 395.952 69.25 395.952H71.202C71.33 395.952 71.426 396.016 71.602 396.192C71.778 396.368 71.842 396.464 71.842 396.592V401.84C71.842 401.968 71.778 402.064 71.602 402.24C71.426 402.416 71.33 402.48 71.202 402.48H69.25C69.122 402.48 69.026 402.416 68.85 402.24C68.674 402.064 68.61 401.968 68.61 401.84ZM82.7831 397.792V396.448C82.7831 396.112 82.6871 395.744 82.4631 395.44C82.3191 395.248 81.8871 394.816 81.6951 394.672C81.3911 394.448 81.0231 394.352 80.6871 394.352H78.5591C77.7751 394.352 77.2471 394.832 76.7351 395.408C76.5111 395.664 76.2551 396.08 76.1751 396.288L77.8231 396.72C78.1271 396.256 78.4791 395.952 78.6071 395.952H80.4631C80.5911 395.952 80.6871 396.016 80.8631 396.192C81.0391 396.368 81.1031 396.464 81.1031 396.592V397.728C81.1031 397.856 81.0391 397.952 80.8631 398.128C80.6871 398.304 80.5911 398.368 80.4631 398.368H78.4631V399.952H80.4631C80.5911 399.952 80.6871 400.016 80.8631 400.192C81.0391 400.368 81.1031 400.464 81.1031 400.592V401.84C81.1031 401.968 81.0391 402.064 80.8631 402.24C80.6871 402.416 80.5911 402.48 80.4631 402.48H78.6231C78.4791 402.48 78.1271 402.176 77.8231 401.712L76.1751 402.144C76.2551 402.352 76.5431 402.8 76.7351 403.024C77.2311 403.616 77.7751 404.08 78.5591 404.08H80.6871C81.0231 404.08 81.3911 403.984 81.6951 403.76C81.8871 403.616 82.3191 403.184 82.4631 402.992C82.6871 402.688 82.7831 402.32 82.7831 401.984V400.528C82.7831 399.92 82.4311 399.52 82.0311 399.168C82.4311 398.8 82.7831 398.384 82.7831 397.792Z" fill="#FCA311"/>
<path d="M3.02595 275.08H5.42595C5.76195 275.08 6.12995 274.984 6.43395 274.76C6.62595 274.616 7.05795 274.184 7.20195 273.992C7.42595 273.688 7.52195 273.32 7.52195 272.984V267.448C7.52195 267.112 7.42595 266.744 7.20195 266.44C7.05795 266.248 6.62595 265.816 6.43395 265.672C6.12995 265.448 5.76195 265.352 5.42595 265.352H3.02595C2.68995 265.352 2.32195 265.448 2.01795 265.672C1.82595 265.816 1.39395 266.248 1.24995 266.44C1.02595 266.744 0.929953 267.112 0.929953 267.448V272.984C0.929953 273.32 1.02595 273.688 1.24995 273.992C1.39395 274.184 1.82595 274.616 2.01795 274.76C2.32195 274.984 2.68995 275.08 3.02595 275.08ZM2.60995 272.84V267.592C2.60995 267.464 2.67395 267.368 2.84995 267.192C3.02595 267.016 3.12195 266.952 3.24995 266.952H5.20195C5.32995 266.952 5.42595 267.016 5.60195 267.192C5.77795 267.368 5.84195 267.464 5.84195 267.592V272.84C5.84195 272.968 5.77795 273.064 5.60195 273.24C5.42595 273.416 5.32995 273.48 5.20195 273.48H3.24995C3.12195 273.48 3.02595 273.416 2.84995 273.24C2.67395 273.064 2.60995 272.968 2.60995 272.84ZM16.7831 268.792V267.448C16.7831 267.112 16.6871 266.744 16.4631 266.44C16.3191 266.248 15.8871 265.816 15.6951 265.672C15.3911 265.448 15.0231 265.352 14.6871 265.352H12.5591C11.7751 265.352 11.2471 265.832 10.7351 266.408C10.5111 266.664 10.2551 267.08 10.1751 267.288L11.8231 267.72C12.1271 267.256 12.4791 266.952 12.6071 266.952H14.4631C14.5911 266.952 14.6871 267.016 14.8631 267.192C15.0391 267.368 15.1031 267.464 15.1031 267.592V268.728C15.1031 268.856 15.0391 268.952 14.8631 269.128C14.6871 269.304 14.5911 269.368 14.4631 269.368H12.4631V270.952H14.4631C14.5911 270.952 14.6871 271.016 14.8631 271.192C15.0391 271.368 15.1031 271.464 15.1031 271.592V272.84C15.1031 272.968 15.0391 273.064 14.8631 273.24C14.6871 273.416 14.5911 273.48 14.4631 273.48H12.6231C12.4791 273.48 12.1271 273.176 11.8231 272.712L10.1751 273.144C10.2551 273.352 10.5431 273.8 10.7351 274.024C11.2311 274.616 11.7751 275.08 12.5591 275.08H14.6871C15.0231 275.08 15.3911 274.984 15.6951 274.76C15.8871 274.616 16.3191 274.184 16.4631 273.992C16.6871 273.688 16.7831 273.32 16.7831 272.984V271.528C16.7831 270.92 16.4311 270.52 16.0311 270.168C16.4311 269.8 16.7831 269.384 16.7831 268.792Z" fill="#FCA311"/>
<path d="M3.02595 532.08H5.42595C5.76195 532.08 6.12995 531.984 6.43395 531.76C6.62595 531.616 7.05795 531.184 7.20195 530.992C7.42595 530.688 7.52195 530.32 7.52195 529.984V524.448C7.52195 524.112 7.42595 523.744 7.20195 523.44C7.05795 523.248 6.62595 522.816 6.43395 522.672C6.12995 522.448 5.76195 522.352 5.42595 522.352H3.02595C2.68995 522.352 2.32195 522.448 2.01795 522.672C1.82595 522.816 1.39395 523.248 1.24995 523.44C1.02595 523.744 0.929953 524.112 0.929953 524.448V529.984C0.929953 530.32 1.02595 530.688 1.24995 530.992C1.39395 531.184 1.82595 531.616 2.01795 531.76C2.32195 531.984 2.68995 532.08 3.02595 532.08ZM2.60995 529.84V524.592C2.60995 524.464 2.67395 524.368 2.84995 524.192C3.02595 524.016 3.12195 523.952 3.24995 523.952H5.20195C5.32995 523.952 5.42595 524.016 5.60195 524.192C5.77795 524.368 5.84195 524.464 5.84195 524.592V529.84C5.84195 529.968 5.77795 530.064 5.60195 530.24C5.42595 530.416 5.32995 530.48 5.20195 530.48H3.24995C3.12195 530.48 3.02595 530.416 2.84995 530.24C2.67395 530.064 2.60995 529.968 2.60995 529.84ZM16.3031 527.088C16.1591 526.896 15.7271 526.464 15.5351 526.32C15.2311 526.096 14.8631 526 14.5271 526H12.2231V524.032H16.1591V522.432H10.5431V527.6H14.3031C14.4311 527.6 14.5271 527.664 14.7031 527.84C14.8791 528.016 14.9431 528.112 14.9431 528.24V529.84C14.9431 529.968 14.8791 530.064 14.7031 530.24C14.5271 530.416 14.4311 530.48 14.3031 530.48H12.5911C12.4471 530.48 12.0951 530.176 11.7911 529.712L10.1431 530.144C10.2231 530.352 10.4791 530.752 10.7031 531.024C11.1991 531.616 11.7431 532.08 12.5271 532.08H14.5271C14.8631 532.08 15.2311 531.984 15.5351 531.76C15.7271 531.616 16.1591 531.184 16.3031 530.992C16.5271 530.688 16.6231 530.32 16.6231 529.984V528.096C16.6231 527.76 16.5271 527.392 16.3031 527.088Z" fill="#FCA311"/>
<circle cx="42.502" cy="26.5" r="7.5" fill="#FCA311"/>
<circle cx="42.502" cy="156.5" r="7.5" fill="#FCA311"/>
<circle cx="42.502" cy="286.5" r="7.5" fill="#FCA311"/>
<circle cx="42.502" cy="416.5" r="7.5" fill="#FCA311"/>
<circle cx="42.502" cy="545.5" r="7.5" fill="#FCA311"/>
<rect x="41.002" y="39" width="3" height="104" fill="#FCA311"/>
<rect x="41.002" y="169" width="3" height="104" fill="#FCA311"/>
<rect x="41.002" y="299" width="3" height="104" fill="#FCA311"/>
<rect x="41.002" y="429" width="3" height="104" fill="#FCA311"/>
<rect x="0.00195312" y="25" width="30" height="3" fill="#FCA311"/>
<rect x="0.00195312" y="286" width="30" height="3" fill="#FCA311"/>
<rect x="0.00195312" y="544" width="30" height="3" fill="#FCA311"/>
<rect x="55.002" y="155" width="30" height="3" fill="#FCA311"/>
<rect x="55.002" y="415" width="30" height="3" fill="#FCA311"/>
</svg>
