<svg width="71" height="70" viewBox="0 0 71 70" fill="none" xmlns="http://www.w3.org/2000/svg">
<path d="M63.729 70H6.27487C4.61172 69.9983 3.01719 69.3368 1.84116 68.1608C0.665138 66.9848 0.00368681 65.3902 0.00195312 63.7271V6.27292C0.00368681 4.60977 0.665138 3.01524 1.84116 1.83921C3.01719 0.663185 4.61172 0.00173368 6.27487 0H63.729C65.3922 0.00173368 66.9867 0.663185 68.1627 1.83921C69.3388 3.01524 70.0002 4.60977 70.002 6.27292V63.7271C70.0002 65.3902 69.3388 66.9848 68.1627 68.1608C66.9867 69.3368 65.3922 69.9983 63.729 70Z" fill="#F8F8F8"/>
<path d="M59.6252 65H10.3787C8.95319 64.9985 7.58644 64.4316 6.57842 63.4235C5.5704 62.4155 5.00344 61.0488 5.00195 59.6232V10.3768C5.00344 8.95123 5.5704 7.58449 6.57842 6.57647C7.58644 5.56844 8.95319 5.00149 10.3787 5H59.6252C61.0507 5.00149 62.4175 5.56844 63.4255 6.57647C64.4335 7.58449 65.0005 8.95123 65.002 10.3768V59.6232C65.0005 61.0488 64.4335 62.4155 63.4255 63.4235C62.4175 64.4316 61.0507 64.9985 59.6252 65ZM10.3787 6.78614C9.42677 6.78722 8.51411 7.16587 7.84096 7.83901C7.16782 8.51215 6.78917 9.42482 6.78809 10.3768V59.6232C6.78917 60.5752 7.16782 61.4878 7.84096 62.161C8.51411 62.8341 9.42677 63.2128 10.3787 63.2139H59.6252C60.5771 63.2128 61.4898 62.8341 62.1629 62.161C62.8361 61.4878 63.2147 60.5752 63.2158 59.6232V10.3768C63.2147 9.42482 62.8361 8.51215 62.1629 7.83901C61.4898 7.16587 60.5771 6.78722 59.6252 6.78614H10.3787Z" fill="#00344C"/>
<path d="M57.9845 60.5346H12.0184C11.3419 60.5338 10.6934 60.2647 10.215 59.7864C9.7367 59.308 9.46761 58.6595 9.4668 57.983V12.017C9.46761 11.3405 9.7367 10.6919 10.215 10.2136C10.6934 9.73523 11.3419 9.46614 12.0184 9.46533H57.9845C58.661 9.46614 59.3095 9.73523 59.7878 10.2136C60.2662 10.6919 60.5353 11.3405 60.5361 12.017V57.983C60.5353 58.6595 60.2662 59.308 59.7878 59.7864C59.3095 60.2647 58.661 60.5338 57.9845 60.5346ZM12.0184 11.2515C11.8154 11.2515 11.6207 11.3321 11.4771 11.4757C11.3336 11.6192 11.2529 11.8139 11.2529 12.017V57.983C11.2529 58.186 11.3336 58.3807 11.4771 58.5243C11.6207 58.6678 11.8154 58.7485 12.0184 58.7485H57.9845C58.1875 58.7485 58.3822 58.6678 58.5257 58.5243C58.6693 58.3807 58.75 58.186 58.75 57.983V12.017C58.75 11.8139 58.6693 11.6192 58.5257 11.4757C58.3822 11.3321 58.1875 11.2515 57.9845 11.2515H12.0184Z" fill="#00344C"/>
<path d="M46.6583 50.8711C46.1047 50.8722 45.5563 50.7641 45.0446 50.5527C44.5329 50.3414 44.068 50.0311 43.6765 49.6397L35.001 40.9642L26.3254 49.6397C25.5303 50.41 24.4642 50.8367 23.3572 50.8279C22.2502 50.8191 21.1911 50.3755 20.4083 49.5927C19.6255 48.8099 19.1818 47.7507 19.173 46.6437C19.1642 45.5367 19.591 44.4707 20.3613 43.6755L29.0368 35L20.3613 26.3245C19.9594 25.9351 19.639 25.4698 19.4187 24.9554C19.1984 24.441 19.0827 23.888 19.0783 23.3285C19.0738 22.769 19.1807 22.2142 19.3928 21.6964C19.6049 21.1786 19.9179 20.7082 20.3135 20.3125C20.7092 19.9169 21.1796 19.6039 21.6974 19.3918C22.2151 19.1798 22.77 19.0728 23.3295 19.0773C23.889 19.0817 24.442 19.1975 24.9564 19.4177C25.4707 19.638 25.9361 19.9584 26.3254 20.3603L35.001 29.0358L43.6765 20.3603C44.4716 19.59 45.5377 19.1633 46.6447 19.172C47.7517 19.1808 48.8109 19.6245 49.5937 20.4073C50.3765 21.1901 50.8201 22.2492 50.8289 23.3562C50.8377 24.4632 50.4109 25.5293 49.6407 26.3245L40.9651 35L49.6407 43.6755C50.2299 44.2653 50.6311 45.0165 50.7935 45.8342C50.9559 46.6519 50.8722 47.4993 50.553 48.2695C50.2338 49.0396 49.6934 49.6978 49.0002 50.1609C48.307 50.624 47.492 50.8711 46.6583 50.8711ZM35.001 38.8085C35.1183 38.8084 35.2344 38.8314 35.3428 38.8763C35.4511 38.9213 35.5495 38.9872 35.6322 39.0703L44.939 48.3766C45.395 48.8326 46.0135 49.0888 46.6583 49.0888C47.3032 49.0888 47.9216 48.8326 48.3776 48.3766C48.8336 47.9207 49.0898 47.3022 49.0898 46.6574C49.0898 46.0125 48.8336 45.3941 48.3776 44.9381L39.0713 35.6313C38.9883 35.5484 38.9225 35.45 38.8776 35.3417C38.8327 35.2334 38.8095 35.1173 38.8095 35C38.8095 34.8827 38.8327 34.7666 38.8776 34.6583C38.9225 34.55 38.9883 34.4516 39.0713 34.3687L48.3776 25.0619C48.6034 24.8361 48.7825 24.5681 48.9047 24.2731C49.0269 23.9781 49.0898 23.6619 49.0898 23.3426C49.0898 23.0233 49.0269 22.7071 48.9047 22.4122C48.7825 22.1172 48.6034 21.8491 48.3776 21.6233C48.1518 21.3976 47.8838 21.2185 47.5888 21.0963C47.2938 20.9741 46.9776 20.9112 46.6583 20.9112C46.339 20.9112 46.0229 20.9741 45.7279 21.0963C45.4329 21.2185 45.1648 21.3976 44.939 21.6233L35.6322 30.9296C35.5494 31.0126 35.451 31.0785 35.3427 31.1234C35.2343 31.1683 35.1182 31.1914 35.001 31.1914C34.8837 31.1914 34.7676 31.1683 34.6593 31.1234C34.5509 31.0785 34.4525 31.0126 34.3697 30.9296L25.0629 21.6233C24.8371 21.3976 24.5691 21.2185 24.2741 21.0963C23.9791 20.9741 23.6629 20.9112 23.3436 20.9112C23.0243 20.9112 22.7081 20.9741 22.4131 21.0963C22.1181 21.2185 21.8501 21.3976 21.6243 21.6233C21.3985 21.8491 21.2194 22.1172 21.0972 22.4122C20.9751 22.7071 20.9122 23.0233 20.9122 23.3426C20.9122 23.6619 20.9751 23.9781 21.0972 24.2731C21.2194 24.5681 21.3985 24.8361 21.6243 25.0619L30.9306 34.3687C31.0136 34.4516 31.0794 34.55 31.1243 34.6583C31.1693 34.7666 31.1924 34.8827 31.1924 35C31.1924 35.1173 31.1693 35.2334 31.1243 35.3417C31.0794 35.45 31.0136 35.5484 30.9306 35.6313L21.6243 44.9381C21.1683 45.3941 20.9122 46.0125 20.9122 46.6574C20.9122 47.3022 21.1683 47.9207 21.6243 48.3766C22.0803 48.8326 22.6987 49.0888 23.3436 49.0888C23.9885 49.0888 24.6069 48.8326 25.0629 48.3766L34.3697 39.0703C34.4524 38.9872 34.5508 38.9213 34.6592 38.8763C34.7675 38.8314 34.8837 38.8084 35.001 38.8085Z" fill="#FCA311"/>
</svg>
