<svg width="376" height="167" viewBox="0 0 376 167" fill="none" xmlns="http://www.w3.org/2000/svg">
<path d="M367.562 50.7148C359.999 34.4084 347.736 21.8066 333.105 13.7422L332.975 13.7055C311.877 2.02429 285.871 -0.102373 262.131 9.80522C261.69 9.99748 261.282 10.1989 260.85 10.3586C260.284 10.6211 259.695 10.8418 259.129 11.1042C258.563 11.3667 257.987 11.6618 257.412 11.9568C256.92 12.2051 256.396 12.4441 255.904 12.6924C254.387 13.4605 252.917 14.3122 251.479 15.173C251.271 15.29 251.095 15.4162 250.918 15.5424C249.43 16.4592 247.965 17.4178 246.564 18.3947C246.514 18.4507 246.439 18.4649 246.388 18.5209L246.245 18.6563C240.223 22.9376 234.868 27.9696 230.342 33.552C229.967 34.009 229.615 34.5078 229.24 34.9649C228.805 35.5105 228.37 36.0561 227.959 36.6435C227.283 37.5434 226.673 38.4616 226.03 39.3706C225.919 39.5152 225.84 39.6689 225.729 39.8135C225.008 40.8762 224.352 41.9574 223.695 43.0385C223.469 43.4671 223.229 43.8214 222.979 44.2082C215.836 56.5794 202.193 63.7065 187.908 63.5127C180.803 63.4087 174.059 61.4017 168.257 57.7963C162.437 54.2561 157.508 49.1736 154.1 42.9371C154.053 42.8535 153.974 42.7608 153.927 42.6773C153.048 41.0578 152.077 39.5177 151.073 37.9684C150.783 37.4999 150.484 37.0639 150.162 36.5862C149.139 35.1021 148.108 33.6505 147.002 32.2132C146.717 31.8516 146.4 31.4808 146.092 31.0774C144.888 29.6125 143.652 28.1385 142.355 26.753L142.243 26.6512C140.844 25.1312 139.353 23.6907 137.843 22.3153C137.707 22.1717 137.54 22.0189 137.395 21.9078C135.829 20.4815 134.235 19.1529 132.568 17.8385L132.423 17.7275C123.968 11.1933 114.142 6.27767 103.408 3.46235C103.115 3.37974 102.822 3.29713 102.529 3.21451C100.655 2.75646 98.8039 2.34016 96.893 2.01243C96.3862 1.93991 95.8795 1.86738 95.3819 1.76228C93.7315 1.50798 92.0718 1.28626 90.3938 1.12971C90.0173 1.0939 89.6826 1.03469 89.3061 0.998877C87.3492 0.834053 85.3648 0.766971 83.4363 0.750835C83.0506 0.747608 82.6324 0.735199 82.2467 0.731972C80.1045 0.72592 77.9673 0.826792 75.8769 1.01119L75.7466 0.974468C68.5369 1.6148 61.5534 3.19819 54.9396 5.58924C25.8346 16.2001 4.00392 42.8952 1.26874 75.783C-2.44422 120.74 30.9292 160.186 75.8574 163.884C95.7138 165.508 114.482 159.896 129.577 149.24L129.61 149.249C130.894 148.309 132.145 147.361 133.364 146.403C133.633 146.198 133.869 145.983 134.129 145.81C135.223 144.922 136.293 143.993 137.372 143.031C137.516 142.896 137.65 142.793 137.794 142.658C140.249 140.431 142.546 138.019 144.699 135.495C144.801 135.383 144.861 135.295 144.963 135.183C148.23 131.321 151.163 127.153 153.653 122.685C160.273 111.046 172.698 103.998 186.082 104.148L188.6 104.19C202.221 104.372 215.047 111.611 221.457 123.653C221.551 123.82 221.677 123.996 221.77 124.164C222.99 126.442 224.303 128.641 225.718 130.728C225.798 130.821 225.844 130.904 225.924 130.997C230.042 137.082 234.879 142.491 240.289 147.111C240.457 147.264 240.601 147.375 240.769 147.528C242.298 148.838 243.886 150.06 245.484 151.249C245.773 151.471 246.103 151.67 246.392 151.892C247.743 152.835 249.126 153.788 250.537 154.643C250.812 154.791 251.035 154.994 251.31 155.142C273.78 168.688 302.361 171.153 327.958 159.272C368.824 140.23 386.559 91.664 367.553 50.7474L367.562 50.7148Z" fill="url(#paint0_radial_1432_64303)" fill-opacity="0.25"/>
<defs>
<radialGradient id="paint0_radial_1432_64303" cx="0" cy="0" r="1" gradientUnits="userSpaceOnUse" gradientTransform="translate(9.46504 146.754) rotate(-15.2817) scale(360.591 606.589)">
<stop offset="0.171875" stop-color="#FCA311"/>
<stop offset="1" stop-color="#F8CDAE"/>
</radialGradient>
</defs>
</svg>
